<ttFont>
          <CharString index="0">
            212 97 rmoveto
            -41 callgsubr
            rlineto
            -60 17 37 -6 37 hhcurveto
            22 42 6 11 24 -71 callsubr
            -195 -538 -79 callgsubr
            20 157 -86 callsubr
            return
          </CharString>
          <CharString index="1">
            -84 callsubr
            5 -25 -41 9 callsubr
            -40 -2 68 callsubr
            -101 callgsubr
            return
          </CharString>
          <CharString index="2">
            -105 callgsubr
            266 -45 callgsubr
            return
          </CharString>
          <CharString index="3">
            hintmask 11010000
            -106 callsubr
            return
          </CharString>
          <CharString index="4">
            203 58 callgsubr
            105 15 128 115 116 15 -128 -105 -105 -15 -129 -116 -115 -15 129 105 vhcurveto
            -167 hmoveto
            -105 23 -119 84 -70 vhcurveto
            -37 45 56 -26 89 hhcurveto
            91 54 26 37 46 hvcurveto
            83 70 24 119 105 vvcurveto
            105 -24 118 -83 70 vhcurveto
            37 -46 -54 26 -91 -16 callgsubr
            -70 -23 -118 -105 vvcurveto
            return
          </CharString>
          <CharString index="5">
            hintmask 11101000
            -104 callgsubr
            return
          </CharString>
          <CharString index="6">
            193 275 rmoveto
            -58 callsubr
            -162 hmoveto
            -17 callgsubr
            49 -19 83 hhcurveto
            83 50 19 31 40 hvcurveto
            76 58 23 98 84 -63 callgsubr
            -5 callgsubr
            return
          </CharString>
          <CharString index="7">
            rmoveto
            -20 -7 -34 -24 -13 -32 92 -125 rcurveline
            34 -10 59 -3 35 13 106 137 rcurveline
            -16 31 -33 21 -20 8 -98 -95 rcurveline
            endchar
          </CharString>
          <CharString index="8">
            521 383 rmoveto
            131 -103 42 -121 -70 -69 -2 -2 -80 vhcurveto
            2 callsubr
            -546 vlineto
            -5 25 35 -64 callgsubr
            195 20 vlineto
            33 19 -2 -33 14 hvcurveto
            44 -101 rlineto
            -48 21 25 -21 44 hhcurveto
            46 42 25 24 19 hvcurveto
            -18 16 -16 24 -12 27 -26 59 rcurveline
            -17 39 -23 24 -35 12 rrcurveto
            52 12 61 55 76 vvcurveto
            -293 60 rmoveto
            24 14 -1 24 hhcurveto
            50 19 -28 -34 -35 -16 -31 -61 -9 -22 0 -1 -23 hvcurveto
            return
          </CharString>
          <CharString index="9">
            rmoveto
            10 -29 28 -24 26 -7 185 139 rcurveline
            -12 39 -45 39 -37 12 rrcurveto
            endchar
          </CharString>
          <CharString index="10">
            51 144 rmoveto
            -11 -14 -7 -22 -18 vvcurveto
            -11 2 -11 15 -69 vhcurveto
            337 hlineto
            57 48 30 54 27 -3 16 -6 21 hvcurveto
            -27 -14 -41 -4 -37 -2 -28 -1 rcurveline
            -41 -1 -52 -2 -47 -3 -2 3 rcurveline
            23 18 32 33 16 19 188 213 rcurveline
            14 17 3 17 17 vvcurveto
            10 -1 9 -21 75 vhcurveto
            -402 hlineto
            -7 -27 -4 -18 -27 vvcurveto
            -17 1 -16 5 -19 vhcurveto
            116 hlineto
            22 75 3 4 46 hvcurveto
            2 -2 -22 -18 -39 -37 -16 -19 rlinecurve
            return
          </CharString>
          <CharString index="11">
            57 155 rmoveto
            -13 -18 -7 -22 -19 vvcurveto
            -14 2 -11 16 -71 vhcurveto
            382 hlineto
            62 43 27 57 25 -5 28 -6 19 hvcurveto
            -12 -27 -37 -11 -48 hhcurveto
            -56 hlineto
            -43 -64 -4 -3 -43 hvcurveto
            -3 3 26 27 33 40 19 27 rlinecurve
            223 306 rlineto
            14 20 4 18 18 vvcurveto
            12 -2 11 -20 75 vhcurveto
            -443 hlineto
            -7 -27 -4 -22 -28 vvcurveto
            -17 1 -17 5 -19 vhcurveto
            143 hlineto
            41 67 3 6 47 hvcurveto
            3 -3 -26 -28 -36 -44 -19 -27 rlinecurve
            return
          </CharString>
          <CharString index="12">
            73 -43 46 -66 vhcurveto
            -22 hlineto
            -22 -35 -2 -3 -31 hvcurveto
            -5 -18 -1 -21 -17 vvcurveto
            -19 1 -17 5 -17 vhcurveto
            15 hlineto
            35 12 -25 -33 hvcurveto
            -331 -51 callsubr
            return
          </CharString>
          <CharString index="13">
            -44 22 rlineto
            10 -17 -23 8 -23 hhcurveto
            -53 -42 -36 -52 -21 hvcurveto
            -8 -19 rlineto
            -28 10 35 -19 27 hhcurveto
            9 12 rlineto
            17 12 11 8 12 hhcurveto
            10 10 -5 -4 9 hvcurveto
            endchar
          </CharString>
          <CharString index="14">
            17 41 rmoveto
            -100 callgsubr
            return
          </CharString>
          <CharString index="15">
            -5 callsubr
            -20 -31 -31 callgsubr
            -344 vlineto
            -60 -21 -38 -66 -64 -22 38 60 vhcurveto
            250 vlineto
            72 -34 28 -61 vhcurveto
            -57 -6 callgsubr
            -345 vlineto
            -137 83 -84 161 162 83 84 137 vhcurveto
            return
          </CharString>
          <CharString index="16">
            rmoveto
            -18 4 -22 8 -18 vhcurveto
            -9 -23 callsubr
            8 15 67 callsubr
            4 22 -3 callsubr
            -4 22 -8 18 vhcurveto
            9 -15 -32 7 -27 hhcurveto
            -27 -30 -7 -9 69 callsubr
            -18 -4 -21 -19 vvcurveto
            return
          </CharString>
          <CharString index="17">
            68 vlineto
            153 hlineto
            6 -28 callgsubr
            -6 19 vhcurveto
            -153 hlineto
            -14 -28 -56 callgsubr
            return
          </CharString>
          <CharString index="18">
            hintmask 00000000
            hintmask 01001000
            234 384 rmoveto
            hintmask 10001000
            -95 callsubr
            return
          </CharString>
          <CharString index="19">
            hintmask 11010000
            -97 callsubr
            hintmask 00101000
            return
          </CharString>
          <CharString index="20">
            148 hintmask 10101000
            -96 callgsubr
            return
          </CharString>
          <CharString index="21">
            rmoveto
            16 53 18 72 14 51 rrcurveto
            6 hlineto
            13 -53 15 -70 16 -53 10 -34 rcurveline
            -9 -7 1 -10 hhcurveto
            -62 hlineto
            -11 -10 -1 -10 hhcurveto
            return
          </CharString>
          <CharString index="22">
            22 29 vvcurveto
            203 vlineto
            127 -91 44 -87 -65 -97 -17 -27 -67 vhcurveto
            4 -39 12 -44 22 -26 rrcurveto
            16 52 52 16 43 hhcurveto
            45 20 -21 -42 hvcurveto
            -19 vlineto
            2 -26 -27 0 -18 -21 callsubr
            return
          </CharString>
          <CharString index="23">
            242 143 rmoveto
            -42 callsubr
            rlineto
            -69 20 25 -18 51 hhcurveto
            30 40 7 12 22 hvcurveto
            -216 672 rlineto
            return
          </CharString>
          <CharString index="24">
            15 59 rmoveto
            -47 74 98 -27 81 hhcurveto
            175 88 93 121 87 -55 69 -96 42 hvcurveto
            -120 51 rlineto
            -44 18 -15 19 26 vvcurveto
            26 22 33 58 53 76 -25 -24 51 vhcurveto
            31 28 20 46 3 46 rrcurveto
            26 -52 -88 31 -95 hhcurveto
            -135 -108 -84 -125 -96 61 -52 82 -37 hvcurveto
            118 -50 rlineto
            55 -24 8 -29 -21 vvcurveto
            -33 -23 -33 -58 -72 -75 31 34 -56 vhcurveto
            -31 -27 -27 -48 -4 -45 rrcurveto
            return
          </CharString>
          <CharString index="25">
            73 -41 46 -66 vhcurveto
            -22 hlineto
            -21 -40 -2 -3 -35 hvcurveto
            -5 -18 -2 -21 -17 vvcurveto
            -19 2 -17 5 -17 vhcurveto
            24 hlineto
            35 12 -25 -33 hvcurveto
            -334 vlineto
            -73 -22 -25 -58 -24 vhcurveto
            1 -36 19 -42 22 -17 rrcurveto
            161 31 31 71 147 vvcurveto
            return
          </CharString>
          <CharString index="26">
            74 hmoveto
            -70 callsubr
            551 -57 callsubr
            return
          </CharString>
          <CharString index="27">
            88 -15 117 257 118 104 119 hstem
            95 160 169 159 vstem
            95 hmoveto
            -4 24 31 -2 25 hhcurveto
            25 31 2 4 24 hvcurveto
            483 vlineto
            60 23 38 59 57 30 -43 -48 -9 -1 -9 -1 -9 vhcurveto
            -56 -26 -30 -51 -41 vvcurveto
            -41 22 -33 40 -37 vhcurveto
            41 -38 rlineto
            19 -18 10 -16 -18 vvcurveto
            -27 -22 -15 -35 -18 -25 5 14 -28 vhcurveto
            -23 -23 -18 -50 -1 -34 rrcurveto
            -20 41 52 -9 38 hhcurveto
            118 85 56 104 44 -24 46 -46 45 hvcurveto
            -38 37 rlineto
            -15 14 -6 12 13 vvcurveto
            21 19 27 44 10 vhcurveto
            11 25 6 27 25 vvcurveto
            128 -99 81 -148 -145 -96 -68 -133 vhcurveto
            -22 vlineto
            -86 1 rlineto
            -3 -17 -2 -24 -17 vvcurveto
            -18 2 -25 3 -18 vhcurveto
            86 1 rlineto
            endchar
          </CharString>
          <CharString index="28">
            280 420 rmoveto
            -11 -29 -12 -53 -12 -39 rrcurveto
            -6 hlineto
            -3 30 -8 34 -16 42 -37 96 rcurveline
            44 -16 -26 14 -42 hhcurveto
            -27 -34 -8 -14 -29 hvcurveto
            159 -372 rlineto
            -165 36 callgsubr
            30 1 5 25 hvcurveto
            161 vlineto
            160 379 -7 7 rlineto
            7 -29 -13 3 -27 hhcurveto
            -20 -26 -1 -6 -22 hvcurveto
            return
          </CharString>
          <CharString index="29">
            -55 callsubr
            70 76 21 36 50 vhcurveto
            -4 31 40 callsubr
            -54 callgsubr
            return
          </CharString>
          <CharString index="30">
            rmoveto
            5 -28 24 -36 29 -15 37 17 25 17 19 23 rrcurveto
            -2 -33 -2 -35 -16 vvcurveto
            -84 -100 vlineto
            -3 -17 -2 -21 -18 vvcurveto
            -19 2 -20 3 -17 vhcurveto
            307 hlineto
            5 16 2 21 19 vvcurveto
            18 -2 21 -5 17 vhcurveto
            -81 338 hlineto
            3 -25 -16 2 -19 hhcurveto
            -18 -21 -2 -3 -22 hvcurveto
            -31 -64 -34 -38 -75 -46 rrcurveto
            return
          </CharString>
          <CharString index="31">
            -12 3 -30 9 -18 vhcurveto
            -13 20 32 -6 84 callsubr
            33 6 13 20 hvcurveto
            9 1 callgsubr
            -9 19 vhcurveto
            11 -20 -33 7 -26 hhcurveto
            -26 -32 -7 -11 -20 hvcurveto
            -9 -19 -3 -30 -12 vvcurveto
            return
          </CharString>
          <CharString index="32">
            17 callgsubr
            hintmask 11001010
            21 callgsubr
            hintmask 10101010
            -92 callsubr
            hintmask 00010100
            return
          </CharString>
          <CharString index="33">
            160 hintmask 10101000
            -95 callgsubr
            hintmask 01010000
            return
          </CharString>
          <CharString index="34">
            614 39 rmoveto
            -33 31 -7 28 -12 35 -41 124 rcurveline
            -18 53 -24 45 -68 15 23 19 18 24 15 30 122 230 rcurveline
            -9 11 rlineto
            3 -32 -38 29 callsubr
            -47 -16 -18 -38 -19 hvcurveto
            -95 -179 rlineto
            -27 -14 -6 -7 -25 hhcurveto
            -26 -1 rlineto
            264 -33 callgsubr
            285 vlineto
            1 16 15 1 13 hhcurveto
            48 25 -24 -63 20 hvcurveto
            38 -117 rlineto
            -62 19 20 -30 58 hhcurveto
            43 42 18 30 21 hvcurveto
            return
          </CharString>
          <CharString index="35">
            hintmask 10010000
            -81 callgsubr
            return
          </CharString>
          <CharString index="36">
            hvcurveto
            -189 543 rlineto
            5 -36 -28 1 -25 hhcurveto
            -26 71 callgsubr
            -35 hvcurveto
            return
          </CharString>
          <CharString index="37">
            -5 25 37 -64 callgsubr
            return
          </CharString>
          <CharString index="38">
            -57 callgsubr
            314 hlineto
            1 callsubr
            56 callsubr
            -729 -30 callgsubr
            return
          </CharString>
          <CharString index="39">
            rmoveto
            -37 -12 -46 -39 -11 -39 185 -139 rcurveline
            26 7 27 24 11 29 rrcurveto
            endchar
          </CharString>
          <CharString index="40">
            11 -17 -34 7 -26 hhcurveto
            -26 -32 -7 -11 -18 hvcurveto
            -7 -12 -5 -30 -19 vvcurveto
            -20 5 -26 7 -13 vhcurveto
            9 -8 20 -4 16 -2 -2 -47 -52 -29 -32 -9 -14 callsubr
            32 56 86 94 vvcurveto
            28 -3 24 -10 27 vhcurveto
            return
          </CharString>
          <CharString index="41">
            560 38 rmoveto
            -24 21 -12 27 -16 36 -35 88 rcurveline
            -19 44 -20 32 -50 14 21 17 18 22 17 30 101 172 rcurveline
            -8 10 rlineto
            4 -26 -53 3 -17 hhcurveto
            -48 -16 -18 -34 -18 hvcurveto
            -75 -133 rlineto
            -22 -13 -2 -5 -28 hhcurveto
            -7 return
          </CharString>
          <CharString index="42">
            rmoveto
            68 callgsubr
            -28 -23 -1 -1 -23 hvcurveto
            1 vlineto
            27 1 19 26 vvcurveto
            return
          </CharString>
          <CharString index="43">
            rmoveto
            23 20 5 19 19 vvcurveto
            20 -16 34 -12 19 vhcurveto
            -256 hlineto
            -9 -20 -1 -23 -13 vvcurveto
            -11 0 -17 7 -22 vhcurveto
            66 hlineto
            15 46 2 4 18 hvcurveto
            3 -4 -13 -9 -19 -12 -15 -13 rlinecurve
            -64 -56 5 -24 26 -35 21 -8 rlinecurve
            2 9 10 3 8 hhcurveto
            35 16 -23 -25 -30 -21 -19 -36 -31 -26 14 17 -24 hvcurveto
            -26 -22 -20 -34 -6 -29 rrcurveto
            -29 35 55 -20 65 hhcurveto
            89 81 54 93 67 -48 51 -64 8 hvcurveto
            9 5 8 5 7 6 rrcurveto
            return
          </CharString>
          <CharString index="44">
            47 134 rmoveto
            -17 -21 -5 -20 -17 vvcurveto
            -18 4 -21 13 -37 vhcurveto
            302 hlineto
            62 21 28 41 21 -5 15 -11 27 hvcurveto
            -14 -28 -35 -3 -30 hhcurveto
            -35 hlineto
            -25 -25 -2 -4 -29 hvcurveto
            -3 5 26 26 27 35 22 29 rlinecurve
            123 163 rlineto
            10 14 5 18 15 vvcurveto
            22 -8 25 -13 38 vhcurveto
            -348 hlineto
            -5 -21 -4 -23 -24 vvcurveto
            -15 2 -17 4 -16 vhcurveto
            77 hlineto
            36 51 4 4 37 hvcurveto
            3 -5 -23 -24 -34 -38 -24 -32 rlinecurve
            return
          </CharString>
          <CharString index="45">
            rmoveto
            -12 3 -29 8 -17 vhcurveto
            -13 17 27 -6 23 hhcurveto
            22 28 6 13 18 hvcurveto
            7 17 3 29 12 vvcurveto
            11 76 callgsubr
            10 -18 -28 7 -22 hhcurveto
            -23 -27 -7 -10 69 callsubr
            -19 -3 -29 -11 vvcurveto
            endchar
          </CharString>
          <CharString index="46">
            rmoveto
            -28 -29 -18 -42 -7 -38 rrcurveto
            -25 32 67 -20 58 hhcurveto
            155 56 82 147 hvcurveto
            337 vlineto
            6 -26 -33 0 -20 hhcurveto
            -19 78 callgsubr
            -343 vlineto
            -64 -22 -33 -51 -25 -31 10 18 -28 vhcurveto
            return
          </CharString>
          <CharString index="47">
            170 hintmask 11010100
            -93 callsubr
            hintmask 00101000
            return
          </CharString>
          <CharString index="48">
            352 500 rmoveto
            -119 -2 rlineto
            145 vlineto
            -7 7 rlineto
            -61 hlineto
            -61 -24 -25 -69 hvcurveto
            -58 vlineto
            -78 2 rlineto
            -5 -19 -2 -18 -17 vvcurveto
            -20 2 -19 5 -18 vhcurveto
            78 1 rlineto
            -256 vlineto
            -95 42 -44 91 39 53 5 5 37 vhcurveto
            3 10 1 13 12 vvcurveto
            24 -5 28 -8 22 vhcurveto
            -56 hlineto
            -31 -13 17 30 hvcurveto
            230 vlineto
            119 -2 rlineto
            4 18 2 19 20 vvcurveto
            17 -2 18 -4 19 vhcurveto
            return
          </CharString>
          <CharString index="49">
            77 13 98 98 97 13 -98 -77 -76 -13 -98 -97 -98 -13 98 76 vhcurveto
            return
          </CharString>
          <CharString index="50">
            vlineto
            5 -37 callgsubr
            32 callsubr
            return
          </CharString>
          <CharString index="51">
            -5 26 35 -33 callsubr
            22 42 callsubr
            return
          </CharString>
          <CharString index="52">
            449 199 rmoveto
            10 33 3 22 callsubr
            -76 91 -132 -159 -65 -117 -151 -132 47 -129 176 return
          </CharString>
          <CharString index="53">
            rmoveto
            -24 -19 -34 -53 -3 -46 241 -94 rcurveline
            25 15 14 31 5 29 rrcurveto
            endchar
          </CharString>
          <CharString index="54">
            rmoveto
            -28 -18 20 27 38 18 26 45 14 20 -1 -1 20 hvcurveto
            -80 vlineto
            -19 -23 -25 -10 -23 hhcurveto
            return
          </CharString>
          <CharString index="55">
            630 58 callgsubr
            116 -18 107 -94 74 vhcurveto
            36 -46 -82 14 -55 hhcurveto
            -87 -79 -1 -3 -86 hvcurveto
            16 callgsubr
            87 78 -2 87 hhcurveto
            55 82 14 36 46 hvcurveto
            95 74 17 107 117 vvcurveto
            -164 hmoveto
            -102 -17 -121 -115 -34 -29 0 -1 -36 vhcurveto
            447 vlineto
            -1 36 29 0 34 hhcurveto
            115 17 -121 -101 hvcurveto
            return
          </CharString>
          <CharString index="56">
            -34 callgsubr
            30 -19 callgsubr
            return
          </CharString>
          <CharString index="57">
            574 15 callgsubr
            -41 -76 13 -52 hhcurveto
            -79 -67 -2 -2 -78 hvcurveto
            2 callsubr
            -541 vlineto
            6 -6 rlineto
            -2 78 67 -1 79 hhcurveto
            52 76 11 28 41 7 callsubr
            -86 -97 vhcurveto
            -29 -16 -1 -29 hhcurveto
            319 vlineto
            28 17 -1 29 hhcurveto
            97 15 -87 -72 hvcurveto
            return
          </CharString>
          <CharString index="58">
            vlineto
            21 -1 12 20 vvcurveto
            63 hlineto
            175 hlineto
            9 23 4 return
          </CharString>
          <CharString index="59">
            30 427 rmoveto
            16 -12 22 -33 -59 vvcurveto
            -323 vlineto
            -4 23 29 6 callsubr
            311 vlineto
            33 21 25 18 36 hhcurveto
            17 -2 17 -2 17 -6 rrcurveto
            26 43 13 66 37 vvcurveto
            4 -20 -16 4 -30 hhcurveto
            -65 -38 -38 -52 -22 hvcurveto
            -23 53 -41 33 -64 5 -19 -15 -22 -38 -6 -27 rrcurveto
            return
          </CharString>
          <CharString index="60">
            161 -72 callsubr
            hintmask 01100000
            return
          </CharString>
          <CharString index="61">
            -5 19 18 -4 24 hhcurveto
            57 34 26 63 117 -102 91 -155 -159 -133 -108 -252 return
          </CharString>
          <CharString index="62">
            309 278 rmoveto
            -22 callsubr
            -160 77 -103 144 73 77 30 47 44 hvcurveto
            -20 callsubr
            52 7 -43 -77 -1 hvcurveto
            return
          </CharString>
          <CharString index="63">
            rmoveto
            -9 33 -40 39 -34 8 -201 -190 rcurveline
            -10 -24 0 -40 10 -24 203 -185 rcurveline
            33 8 43 38 10 32 -127 154 rcurveline
            return
          </CharString>
          <CharString index="64">
            -7 38 -35 44 -31 21 rrcurveto
            -33 -46 -55 -36 -69 hhcurveto
            -87 -50 71 142 152 33 81 86 return
          </CharString>
          <CharString index="65">
            142 hlineto
            10 16 0 1 13 hvcurveto
            19 -66 return
          </CharString>
          <CharString index="66">
            176 hmoveto
            -5 27 31 -1 22 hhcurveto
            22 30 52 callsubr
            477 vlineto
            27 -1 19 28 vvcurveto
            1 hlineto
            15 33 -1 15 hhcurveto
            29 hlineto
            58 26 19 53 20 -3 25 -5 16 hvcurveto
            -495 hlineto
            -5 -24 -1 -25 -18 vvcurveto
            -18 1 -24 5 -24 vhcurveto
            103 hlineto
            15 34 1 15 hhcurveto
            return
          </CharString>
          <CharString index="67">
            384 rmoveto
            hintmask 11000100
            -82 callsubr
            hintmask 00011000
            return
          </CharString>
          <CharString index="68">
            -37 callsubr
            -499 vlineto
            -4 22 30 6 callsubr
            334 vlineto
            return
          </CharString>
          <CharString index="69">
            -6 18 vhcurveto
            -129 hlineto
            -12 -25 0 -1 -25 hvcurveto
            return
          </CharString>
          <CharString index="70">
            hlineto
            -7 -7 rlineto
            return
          </CharString>
          <CharString index="71">
            205 -57 callsubr
            -551 vlineto
            -5 25 37 -1 19 hhcurveto
            20 31 1 5 26 -6 callsubr
            return
          </CharString>
          <CharString index="72">
            1 5 26 hvcurveto
            return
          </CharString>
          <CharString index="73">
            -190 613 -91 callsubr
            endchar
          </CharString>
          <CharString index="74">
            -1 19 hhcurveto
            return
          </CharString>
          <CharString index="75">
            4 -3 -29 callgsubr
            return
          </CharString>
          <CharString index="76">
            rmoveto
            -19 4 -21 8 -18 vhcurveto
            -10 -23 callsubr
            9 15 67 callsubr
            4 21 19 vvcurveto
            17 -4 23 -8 18 vhcurveto
            9 -15 -32 6 -27 hhcurveto
            -27 -30 -6 -9 69 callsubr
            -18 -4 -22 -18 vvcurveto
            endchar
          </CharString>
          <CharString index="77">
            24 -7 85 -3 41 10 378 683 rcurveline
            -24 7 -84 3 -42 -10 rrcurveto
            return
          </CharString>
          <CharString index="78">
            -29 -17 -1 -2 -23 hvcurveto
            1 vlineto
            25 1 return
          </CharString>
          <CharString index="79">
            255 114 rmoveto
            -32 -12 17 30 hvcurveto
            481 -4 callgsubr
            -595 10 callsubr
            3 10 0 66 callsubr
            return
          </CharString>
          <CharString index="80">
            vlineto
            -4 23 27 -2 25 hhcurveto
            28 27 55 callgsubr
            21 hhcurveto
            33 47 callgsubr
            36 14 20 23 vhcurveto
            -19 25 -6 35 39 vvcurveto
            endchar
          </CharString>
          <CharString index="81">
            -61 vhcurveto
            -7 callsubr
            return
          </CharString>
          <CharString index="82">
            63 callsubr
            -55 callgsubr
            return
          </CharString>
          <CharString index="83">
            -14 callgsubr
            35 14 20 23 vhcurveto
            -18 25 return
          </CharString>
          <CharString index="84">
            15 32 -6 27 hhcurveto
            27 32 7 return
          </CharString>
          <CharString index="85">
            -4 20 17 -2 26 hhcurveto
            44 33 24 52 99 -83 67 -112 -110 -114 -72 -194 return
          </CharString>
          <CharString index="86">
            hhcurveto
            -103 -95 -53 -120 -72 49 -80 103 return
          </CharString>
          <CharString index="87">
            -7 31 -27 42 -25 14 rrcurveto
            -22 -32 -39 -20 -39 hhcurveto
            -57 -30 35 106 105 16 45 46 return
          </CharString>
          <CharString index="88">
            rmoveto
            -71 55 -57 86 86 55 57 -32 callgsubr
            -12 callgsubr
          </CharString>
          <CharString index="89">
            62 vlineto
            129 hlineto
            6 18 2 return
          </CharString>
          <CharString index="90">
            71 -55 57 -86 -86 -55 -57 -71 return
          </CharString>
          <CharString index="91">
            7 97 124 209 121 return
          </CharString>
          <CharString index="92">
            rmoveto
            21 -11 42 -4 25 8 53 222 rcurveline
            -30 23 -61 7 -38 -11 rrcurveto
            endchar
          </CharString>
          <CharString index="93">
            -3 -28 11 -31 27 -13 rrcurveto
            116 return
          </CharString>
          <CharString index="94">
            44 -15 124 442 -20 26 -20 return
          </CharString>
          <CharString index="95">
            6 2 8 hhcurveto
            19 13 -12 -18 hvcurveto
            hintmask 10111100
            26 callgsubr
            vhcurveto
            hintmask 01111100
            10 callgsubr
            return
          </CharString>
          <CharString index="96">
            130 141 134 return
          </CharString>
          <CharString index="97">
            -56 callsubr
            26 hvcurveto
            return
          </CharString>
          <CharString index="98">
            98 -15 123 467 123 return
          </CharString>
          <CharString index="99">
            53 callgsubr
            38 6 27 rrcurveto
            return
          </CharString>
          <CharString index="100">
            -59 -37 callsubr
            return
          </CharString>
          <CharString index="101">
            hvcurveto
            220 vlineto
            13 12 1 8 hhcurveto
            32 -2 14 -14 15 -37 42 -105 rcurveline
            17 -44 20 -26 53 -1 41 -1 42 21 21 26 rrcurveto
            return
          </CharString>
          <CharString index="102">
            6 -26 -37 1 -18 hhcurveto
            return
          </CharString>
          <CharString index="103">
            rmoveto
            6 13 callsubr
            -6 21 vhcurveto
            -424 hlineto
            -6 12 callsubr
            6 -21 vhcurveto
            return
          </CharString>
          <CharString index="104">
            18 vvcurveto
            18 return
          </CharString>
          <CharString index="105">
            -2 29 -14 27 -17 15 rrcurveto
            return
          </CharString>
          <CharString index="106">
            20 15 22 36 37 callsubr
            return
          </CharString>
          <CharString index="107">
            -279 389 114 -5 -20 return
          </CharString>
          <CharString index="108">
            58 callsubr
            -62 vhcurveto
            return
          </CharString>
          <CharString index="109">
            -6 -6 rlineto
            return
          </CharString>
          <CharString index="110">
            vlineto
            28 -1 19 27 vvcurveto
            15 21 -1 14 hhcurveto
            116 hlineto
            14 22 1 14 hhcurveto
            -27 -1 -19 -28 vvcurveto
            return
          </CharString>
          <CharString index="111">
            hvcurveto
            3 19 0 return
          </CharString>
          <CharString index="112">
            -199 -21 609 114 -5 -20 return
          </CharString>
          <CharString index="113">
            -10 callgsubr
            29 -19 callgsubr
            return
          </CharString>
          <CharString index="114">
            hvcurveto
            88 60 15 87 93 vvcurveto
            -160 hmoveto
            -72 -15 return
          </CharString>
          <CharString index="115">
            330 rmoveto
            104 -49 74 -91 return
          </CharString>
          <CharString index="116">
            29 callsubr
            -27 return
          </CharString>
          <CharString index="117">
            vlineto
            -95 34 -44 90 38 40 5 5 30 vhcurveto
            return
          </CharString>
          <CharString index="118">
            119 95 108 96 111 return
          </CharString>
          <CharString index="119">
            -21 -1 -27 41 callsubr
            -28 return
          </CharString>
          <CharString index="120">
            21 1 28 42 callgsubr
            27 return
          </CharString>
          <CharString index="121">
            -32 callsubr
            44 33 callgsubr
            84 callgsubr
            return
          </CharString>
          <CharString index="122">
            65 callsubr
            25 return
          </CharString>
          <CharString index="123">
            124 108 124 return
          </CharString>
          <CharString index="124">
            hstemhm
            31 162 return
          </CharString>
          <CharString index="125">
            18 vvcurveto
            16 -2 return
          </CharString>
          <CharString index="126">
            27 callgsubr
            -18 -7 -19 53 callsubr
            25 return
          </CharString>
          <CharString index="127">
            -15 124 333 124 return
          </CharString>
          <CharString index="128">
            -252 -6 695 return
          </CharString>
          <CharString index="129">
            26 44 vvcurveto
            121 return
          </CharString>
          <CharString index="130">
            -13 callgsubr
            38 33 callgsubr
            9 621 return
          </CharString>
          <CharString index="131">
            -126 -15 113 303 113 return
          </CharString>
          <CharString index="132">
            -20 -9 140 368 -20 28 -20 return
          </CharString>
          <CharString index="133">
            46 250 125 193 121 return
          </CharString>
          <CharString index="134">
            hintmask 00000000
            hintmask 11000000
            return
          </CharString>
          <CharString index="135">
            1 5 27 hvcurveto
            return
          </CharString>
          <CharString index="136">
            2 -26 hhcurveto
            return
          </CharString>
          <CharString index="137">
            118 hstemhm
            return
          </CharString>
          <CharString index="138">
            -9 callsubr
            29 33 callgsubr
            36 167 return
          </CharString>
          <CharString index="139">
            -5 -25 hvcurveto
            return
          </CharString>
          <CharString index="140">
            72 156 return
          </CharString>
          <CharString index="141">
            46 65 48 -38 38 -63 3 hvcurveto
            return
          </CharString>
          <CharString index="142">
            -22 -15 130 328 123 return
          </CharString>
          <CharString index="143">
            -12 -15 129 456 128 return
          </CharString>
          <CharString index="144">
            6 27 rrcurveto
            -17 12 -11 return
          </CharString>
          <CharString index="145">
            -152 58 -107 122 return
          </CharString>
          <CharString index="146">
            8 4 callsubr
            return
          </CharString>
          <CharString index="147">
            -14 38 -23 23 rrcurveto
            return
          </CharString>
          <CharString index="148">
            -14 vvcurveto
            -14 1 return
          </CharString>
          <CharString index="149">
            32 1 5 return
          </CharString>
          <CharString index="150">
            8 callsubr
            -53 -43 -24 -31 -38 vhcurveto
            return
          </CharString>
          <CharString index="151">
            27 18 vvcurveto
            return
          </CharString>
          <CharString index="152">
            -5 callsubr
            -21 -30 -1 -6 -27 hvcurveto
            return
          </CharString>
          <CharString index="153">
            5 -25 -35 1 -20 hhcurveto
            -21 -33 -31 callgsubr
            return
          </CharString>
          <CharString index="154">
            484 294 -294 312 hstemhm
            40 151 return
          </CharString>
          <CharString index="155">
            38 callgsubr
            -7 -20 hstemhm
            32 160 return
          </CharString>
          <CharString index="156">
            -195 -21 28 -21 199 return
          </CharString>
          <CharString index="157">
            27 229 17 callsubr
            return
          </CharString>
          <CharString index="158">
            157 hintmask 00000000
            return
          </CharString>
          <CharString index="159">
            1 5 28 hvcurveto
            return
          </CharString>
          <CharString index="160">
            hhcurveto
            -23 -18 12 return
          </CharString>
          <CharString index="161">
            21 vvcurveto
            21 -2 return
          </CharString>
          <CharString index="162">
            hlineto
            27 120 -31 15 -71 0 -34 -15 rlinecurve
            return
          </CharString>
          <CharString index="163">
            -60 -37 callsubr
            return
          </CharString>
          <CharString index="164">
            hhcurveto
            -19 82 callsubr
            return
          </CharString>
          <CharString index="165">
            70 -23 24 return
          </CharString>
          <CharString index="166">
            -72 -219 117 607 -20 23 -20 return
          </CharString>
          <CharString index="167">
            116 hstem
            113 19 callgsubr
            113 return
          </CharString>
          <CharString index="168">
            166 116 170 return
          </CharString>
          <CharString index="169">
            hstemhm
            4 567 return
          </CharString>
          <CharString index="170">
            vlineto
            5 -26 return
          </CharString>
          <CharString index="171">
            -119 0 115 268 116 return
          </CharString>
          <CharString index="172">
            -8 -13 -19 -7 -18 53 callsubr
            return
          </CharString>
          <CharString index="173">
            13 12 vvcurveto
            25 -4 27 -8 22 vhcurveto
            return
          </CharString>
          <CharString index="174">
            hvcurveto
            8 18 return
          </CharString>
          <CharString index="175">
            -4 -26 hvcurveto
            return
          </CharString>
          <CharString index="176">
            -17 hvcurveto
            -8 return
          </CharString>
          <CharString index="177">
            vlineto
            -5 26 return
          </CharString>
          <CharString index="178">
            152 vstem
            return
          </CharString>
          <CharString index="179">
            -94 -15 122 291 116 return
          </CharString>
          <CharString index="180">
            -16 hvcurveto
            -7 -15 -4 -20 -18 vvcurveto
            return
          </CharString>
          <CharString index="181">
            16 26 -5 25 hhcurveto
            25 27 6 return
          </CharString>
          <CharString index="182">
            152 hintmask 00000000
            return
          </CharString>
          <CharString index="183">
            128 165 10 return
          </CharString>
          <CharString index="184">
            32 -35 callsubr
            return
          </CharString>
          <CharString index="185">
            -47 62 0 111 return
          </CharString>
          <CharString index="186">
            27 23 callgsubr
            return
          </CharString>
          <CharString index="187">
            -28 6 -27 hhcurveto
            return
          </CharString>
          <CharString index="188">
            hlineto
            -6 -20 -2 return
          </CharString>
          <CharString index="189">
            -35 -1 -5 return
          </CharString>
          <CharString index="190">
            92 98 92 return
          </CharString>
          <CharString index="191">
            26 hhcurveto
            26 return
          </CharString>
        <CharString name=".notdef">
          -383 endchar
        </CharString>
        <CharString name=".null">
          -569 endchar
        </CharString>
        <CharString name="A">
          -13 callgsubr
          hstem
          9 621 vstem
          -106 callsubr
          endchar
        </CharString>
        <CharString name="AE">
          318 -3 134 12 125 10 -11 callsubr
          hstemhm
          390 52 callgsubr
          hintmask 11111000
          267 143 rmoveto
          88 hlineto
          9 13 0 1 13 hvcurveto
          hintmask 10111000
          -54 vlineto
          -57 33 -36 57 vhcurveto
          267 hlineto
          58 35 27 50 9 hvcurveto
          -11 callgsubr
          -235 hlineto
          -29 -23 -1 -1 -22 hvcurveto
          1 vlineto
          27 1 21 26 vvcurveto
          74 68 vlineto
          155 hlineto
          7 -28 callgsubr
          -7 19 vhcurveto
          -155 hlineto
          -15 -27 -56 callgsubr
          207 hlineto
          9 24 4 18 callgsubr
          -1 21 -4 24 vhcurveto
          -430 hlineto
          -31 -43 -3 -11 -23 hvcurveto
          -295 -656 67 callgsubr
          -8 19 36 -3 27 hhcurveto
          25 25 0 6 24 hvcurveto
          60 144 rlineto
          -1 14 16 0 11 hhcurveto
          43 202 rmoveto
          25 59 29 74 21 59 rrcurveto
          5 -270 hlineto
          -13 -14 1 -9 hhcurveto
          -43 hlineto
          -10 -12 -1 -12 hhcurveto
          endchar
        </CharString>
        <CharString name="Aacute">
          23 callsubr
          -433 285 -104 callsubr
          hintmask 00101000
          -42 533 -83 callgsubr
        </CharString>
        <CharString name="Acircumflex">
          -13 callgsubr
          34 192 hstemhm
          9 621 -493 362 -104 callsubr
          hintmask 00101000
          198 466 -84 callgsubr
        </CharString>
        <CharString name="Adieresis">
          -13 callgsubr
          63 30 callsubr
          9 621 -486 16 callsubr
          -104 callsubr
          hintmask 00101100
          201 601 -106 callgsubr
        </CharString>
        <CharString name="Agrave">
          23 callsubr
          -459 285 -104 callsubr
          hintmask 00101000
          -7 670 -54 callsubr
        </CharString>
        <CharString name="Aogonek">
          69 40 callgsubr
          209 39 -31 -20 164 127 267 152 hstemhm
          431 113 hintmask 00000000
          hintmask 01011010
          9 12 rmoveto
          -80 callgsubr
          -42 callsubr
          13 -46 15 -23 24 -10 rlinecurve
          -32 -28 -31 -41 -49 vvcurveto
          -60 49 -7 callgsubr
          hintmask 10101010
          19 callsubr
          33 28 31 49 27 65 callgsubr
          -17 19 -51 0 -26 1 rlinecurve
          hintmask 01011010
          -12 -7 -15 -11 -15 -13 rrcurveto
          hintmask 01101110
          -6 12 14 -2 18 hhcurveto
          26 34 6 9 23 65 callgsubr
          -216 672 rlineto
          5 -25 -41 9 callsubr
          -40 -2 68 callsubr
          33 -337 -85 callgsubr
          endchar
        </CharString>
        <CharString name="Aring">
          69 143 127 569 77 hstem
          181 83 callsubr
          vstem
          -84 callsubr
          -2 -3 1 -2 hhcurveto
          35 23 21 38 44 vvcurveto
          -17 callsubr
          -43 19 -38 35 -23 vhcurveto
          -1 -2 -2 0 -2 hhcurveto
          -101 callgsubr
          34 519 rmoveto
          -12 callgsubr
        </CharString>
        <CharString name="Atilde">
          -13 callgsubr
          52 117 hstemhm
          9 621 -508 400 -104 callsubr
          hintmask 00000000
          84 490 -65 callgsubr
          hintmask 00101000
          -71 callgsubr
        </CharString>
        <CharString name="B">
          46 -6 113 194 114 160 114 hstemhm
          76 158 158 156 -129 161 hintmask 00000000
          hintmask 11110100
          83 685 rmoveto
          16 callgsubr
          86 83 -2 77 hhcurveto
          153 98 62 140 80 -54 72 -67 22 hvcurveto
          hintmask 11111000
          51 22 38 55 60 vvcurveto
          126 -95 56 -139 vhcurveto
          hintmask 11110100
          -72 -79 -2 -2 -80 hvcurveto
          234 -384 rmoveto
          80 22 -54 -44 -42 -19 -54 -82 -21 -31 0 -1 -32 hvcurveto
          195 vlineto
          275 vmoveto
          hintmask 11111000
          -1 25 29 0 18 hhcurveto
          67 19 -40 -39 -39 -19 -42 -68 hvcurveto
          -71 hlineto
          endchar
        </CharString>
        <CharString name="C">
          35 callgsubr
          hstem
          36 168 229 71 callsubr
          -76 callgsubr
          endchar
        </CharString>
        <CharString name="CR">
          -383 endchar
        </CharString>
        <CharString name="Cacute">
          35 callgsubr
          29 33 callgsubr
          36 168 -3 285 -53 -50 callgsubr
          -232 392 -83 callgsubr
        </CharString>
        <CharString name="Ccaron">
          35 callgsubr
          41 70 callgsubr
          36 168 -62 364 -73 -50 callgsubr
          -230 509 -92 callgsubr
        </CharString>
        <CharString name="Ccedilla">
          40 13 callgsubr
          603 128 hstemhm
          36 168 125 118 -14 75 callsubr
          hintmask 01111100
          254 -78 rmoveto
          4 -8 10 -10 8 -4 rrcurveto
          2 7 -12 callsubr
          35 -11 33 hhcurveto
          82 58 46 65 48 -39 38 -62 3 hvcurveto
          8 20 94 10 86 44 50 49 rlinecurve
          -43 callsubr
          hvcurveto
          hintmask 01111010
          88 24 -77 -83 -2 hvcurveto
          -46 callsubr
          -162 57 -170 181 -20 hvcurveto
          hintmask 01111100
          -8 -20 -8 -27 -4 -18 rrcurveto
          endchar
        </CharString>
        <CharString name="D">
          98 -6 125 445 64 callgsubr
          76 159 231 164 vstem
          -52 callsubr
          endchar
        </CharString>
        <CharString name="Dcaron">
          98 -6 125 445 125 50 70 callgsubr
          76 159 -99 364 -34 164 hintmask 11010100
          -52 callsubr
          hintmask 00101000
          -269 577 -92 callgsubr
        </CharString>
        <CharString name="E">
          -32 callsubr
          hstem
          75 59 callgsubr
          -105 callsubr
          endchar
        </CharString>
        <CharString name="Eacute">
          14 callsubr
          -59 285 -102 callgsubr
          hintmask 00010100
          -364 671 -83 callgsubr
        </CharString>
        <CharString name="Ecaron">
          -32 callsubr
          56 70 callgsubr
          84 callgsubr
          -118 364 -102 callgsubr
          hintmask 00010100
          -362 788 -92 callgsubr
        </CharString>
        <CharString name="Ecircumflex">
          -32 callsubr
          40 192 hstemhm
          84 callgsubr
          -119 362 -102 callgsubr
          hintmask 00010100
          -124 604 -84 callgsubr
        </CharString>
        <CharString name="Edieresis">
          -32 callsubr
          69 30 callsubr
          84 callgsubr
          -112 16 callsubr
          -102 callgsubr
          hintmask 00010110
          -121 739 -106 callgsubr
        </CharString>
        <CharString name="Egrave">
          14 callsubr
          -85 285 -102 callgsubr
          hintmask 00010100
          -329 808 -54 callsubr
        </CharString>
        <CharString name="Eogonek">
          5 -197 -21 215 -29 callgsubr
          hstem
          84 callgsubr
          55 114 vstem
          -105 callgsubr
          182 hlineto
          -35 -28 -26 -39 -47 vvcurveto
          -62 50 -7 callgsubr
          -2 29 -14 27 -17 15 rrcurveto
          15 callsubr
          30 22 37 55 22 hvcurveto
          4 2 28 11 19 24 5 33 rlinecurve
          -11 callgsubr
          endchar
        </CharString>
        <CharString name="Eth">
          113 -6 125 163 129 153 64 callgsubr
          91 156 234 164 vstem
          645 58 callgsubr
          116 -17 107 -95 74 vhcurveto
          36 -45 -83 14 -54 hhcurveto
          -87 -79 -1 -3 -87 hvcurveto
          -7 -7 rlineto
          -267 -67 vlineto
          -6 -21 -1 -25 -20 vvcurveto
          -21 1 -22 6 -20 vhcurveto
          67 -277 hlineto
          7 -7 rlineto
          -2 87 79 -2 87 hhcurveto
          54 83 14 36 45 hvcurveto
          96 74 16 107 117 vvcurveto
          -271 -60 rmoveto
          5 20 1 23 22 vvcurveto
          22 -1 21 69 callgsubr
          -127 154 hlineto
          -1 35 33 0 35 hhcurveto
          114 17 -120 -102 -101 -17 -122 -114 -35 -33 0 -1 -35 hvcurveto
          164 vlineto
          endchar
        </CharString>
        <CharString name="Euro">
          -8 -15 125 85 96 65 96 86 64 callgsubr
          84 154 vstem
          491 483 rmoveto
          32 17 26 40 5 35 rrcurveto
          52 -61 -80 36 -87 hhcurveto
          -144 -64 -95 -116 -24 hvcurveto
          -82 44 callgsubr
          72 hlineto
          -1 -11 0 -11 -11 vvcurveto
          -11 0 -11 1 -10 vhcurveto
          -72 44 callgsubr
          83 hlineto
          -116 23 64 -94 144 hhcurveto
          86 81 36 52 61 hvcurveto
          -5 35 -24 37 -34 19 rrcurveto
          -30 -41 -54 -24 -48 hhcurveto
          -51 -31 29 56 -15 hvcurveto
          161 hlineto
          46 callgsubr
          -174 31 hlineto
          34 174 vlineto
          46 callgsubr
          -161 hlineto
          57 15 31 29 51 hhcurveto
          48 54 -24 -31 41 hvcurveto
          endchar
        </CharString>
        <CharString name="Euro.smcp">
          -73 -15 119 60 85 52 86 60 119 hstem
          73 145 vstem
          433 409 rmoveto
          30 15 26 38 4 35 rrcurveto
          42 -54 -66 27 -77 hhcurveto
          -134 -57 -82 -97 -22 hvcurveto
          -75 hlineto
          -6 -20 0 -16 -7 vvcurveto
          -9 0 -14 6 -20 vhcurveto
          65 -26 hlineto
          -9 0 -9 1 -8 vhcurveto
          -66 hlineto
          -6 -19 0 -16 -7 vvcurveto
          -10 0 -14 6 -19 vhcurveto
          77 hlineto
          -97 23 60 -82 127 hhcurveto
          80 64 28 42 54 hvcurveto
          -4 34 -24 35 -32 18 rrcurveto
          -22 -34 -46 -16 -38 hhcurveto
          -42 -26 21 39 -15 hvcurveto
          129 hlineto
          4 19 1 13 11 vvcurveto
          10 -1 13 -4 19 vhcurveto
          -143 25 hlineto
          27 143 vlineto
          4 20 1 13 10 vvcurveto
          11 -1 12 -4 20 vhcurveto
          -129 hlineto
          40 14 26 20 43 hhcurveto
          38 44 -16 -22 36 hvcurveto
          endchar
        </CharString>
        <CharString name="F">
          -34 275 131 141 136 hstem
          76 19 callgsubr
          236 hmoveto
          275 20 vlineto
          194 hlineto
          5 19 3 28 -3 callsubr
          -3 29 -5 19 vhcurveto
          -194 hlineto
          -20 63 hlineto
          25 -1 27 26 vvcurveto
          72 hlineto
          125 hlineto
          58 27 22 53 18 -2 26 -4 17 hvcurveto
          -428 hlineto
          -7 -6 rlineto
          -677 vlineto
          8 callgsubr
          endchar
        </CharString>
        <CharString name="G">
          85 -15 126 144 133 178 132 hstem
          36 163 254 150 vstem
          340 388 rmoveto
          -6 -19 -5 -26 -21 vvcurveto
          -50 24 -17 52 vhcurveto
          50 hlineto
          -2 -24 0 -24 -21 vvcurveto
          -67 vlineto
          -5 -26 -29 -3 -32 hhcurveto
          -107 -60 69 156 160 62 70 101 56 63 -22 -32 49 hvcurveto
          32 21 36 48 3 45 rrcurveto
          43 -68 -86 29 -97 hhcurveto
          -157 -157 -118 -243 -216 98 -136 204 111 95 22 19 59 hvcurveto
          263 vlineto
          58 -26 43 -80 -1 vhcurveto
          endchar
        </CharString>
        <CharString name="H">
          117 285 134 hstem
          76 160 214 19 callgsubr
          450 hmoveto
          8 callgsubr
          683 vlineto
          46 callsubr
          -191 vlineto
          -28 1 -19 -27 vvcurveto
          -14 -22 1 -14 hhcurveto
          72 callgsubr
          27 1 19 28 vvcurveto
          191 -33 callgsubr
          212 3 callsubr
          endchar
        </CharString>
        <CharString name="Hbar">
          125 282 132 74 115 hstem
          80 160 214 19 callgsubr
          240 hmoveto
          209 3 callsubr
          -209 vlineto
          8 callgsubr
          488 66 vlineto
          5 20 2 17 22 vvcurveto
          23 -2 12 69 callgsubr
          -66 80 hlineto
          46 callsubr
          -80 -214 80 -25 callsubr
          -80 -65 vlineto
          -5 -21 -2 -17 -20 vvcurveto
          -21 2 -16 5 -20 vhcurveto
          65 -488 hlineto
          -10 callsubr
          165 414 rmoveto
          72 callgsubr
          26 1 21 28 vvcurveto
          214 hlineto
          -28 1 -21 -26 vvcurveto
          -14 -22 1 -14 hhcurveto
          endchar
        </CharString>
        <CharString name="I">
          21 callsubr
          hstem
          78 161 vstem
          -81 callgsubr
          endchar
        </CharString>
        <CharString name="IJ">
          211 -10 132 -128 695 hstemhm
          78 161 315 160 hintmask 01100000
          -81 callgsubr
          hintmask 10010000
          296 -531 -61 callgsubr
          endchar
        </CharString>
        <CharString name="Iacute">
          21 callsubr
          39 33 callgsubr
          33 285 -240 -47 callsubr
          -45 120 -83 callgsubr
        </CharString>
        <CharString name="Icircumflex">
          21 callsubr
          35 192 hstemhm
          -27 362 -257 -47 callsubr
          195 53 -84 callgsubr
        </CharString>
        <CharString name="Idieresis">
          21 callsubr
          64 30 callsubr
          -20 124 -26 161 -27 124 -72 callsubr
          hintmask 01101000
          198 188 -106 callgsubr
        </CharString>
        <CharString name="Igrave">
          21 callsubr
          39 33 callgsubr
          7 285 -214 -47 callsubr
          -10 257 -54 callsubr
        </CharString>
        <CharString name="Itilde">
          21 callsubr
          53 117 hstemhm
          -42 400 -280 161 -72 callsubr
          hintmask 00000000
          81 77 -65 callgsubr
          hintmask 01100000
          -71 callgsubr
        </CharString>
        <CharString name="J">
          -98 -10 132 hstem
          245 19 callgsubr
          65 152 -61 callgsubr
          endchar
        </CharString>
        <CharString name="Jcircumflex">
          -98 -10 132 601 192 hstemhm
          140 362 -257 160 hintmask 10010000
          65 152 -61 callgsubr
          hintmask 01100000
          375 583 -84 callgsubr
        </CharString>
        <CharString name="K">
          52 287 133 253 16 hstem
          76 19 callgsubr
          -73 callsubr
          endchar
        </CharString>
        <CharString name="Kcommaaccent">
          52 -23 callgsubr
          338 133 253 16 hstemhm
          76 160 43 134 hintmask 00011100
          -73 callsubr
          hintmask 11100010
          -212 -98 -94 callgsubr
        </CharString>
        <CharString name="L">
          -47 -3 138 hstem
          75 19 callgsubr
          -26 callgsubr
          endchar
        </CharString>
        <CharString name="Ldot">
          -47 -3 138 169 117 hstemhm
          75 160 101 146 hintmask 10100000
          -26 callgsubr
          hintmask 01010000
          -166 227 -62 callsubr
        </CharString>
        <CharString name="Lslash">
          -36 -3 138 hstem
          86 19 callgsubr
          246 588 rmoveto
          72 -34 30 -61 vhcurveto
          -58 -37 callsubr
          -293 vlineto
          -85 -29 -7 -40 1 -50 9 -27 rlinecurve
          12 -6 70 26 rlineto
          -174 vlineto
          -57 35 34 callgsubr
          1 21 19 vvcurveto
          -174 hlineto
          -29 -31 -1 -3 -33 hvcurveto
          182 vlineto
          168 58 8 40 -1 50 -10 27 rlinecurve
          -11 6 -154 -56 rlineto
          endchar
        </CharString>
        <CharString name="M">
          264 2 -20 119 155 252 174 hstem
          55 724 vstem
          55 2 rmoveto
          -6 23 32 -2 26 hhcurveto
          24 23 1 4 23 hvcurveto
          15 278 rlineto
          4 71 4 94 66 vvcurveto
          7 hlineto
          98 -407 rlineto
          -4 24 38 -2 20 hhcurveto
          22 37 2 4 24 hvcurveto
          99 407 rlineto
          6 hlineto
          1 -66 4 -94 3 -71 16 -278 rcurveline
          -4 23 22 -1 24 hhcurveto
          26 33 2 6 23 hvcurveto
          -53 680 rlineto
          6 -34 -45 2 -29 hhcurveto
          -30 -38 -2 -6 -33 hvcurveto
          -60 -245 -5 -24 -23 -107 -9 -50 rlinecurve
          -7 hlineto
          -8 50 -24 107 -5 24 -59 245 rcurveline
          6 -34 -38 2 -29 hhcurveto
          -30 -45 -2 -6 -33 hvcurveto
          endchar
        </CharString>
        <CharString name="N">
          57 callgsubr
          hstem
          76 149 247 148 vstem
          -96 callgsubr
          endchar
        </CharString>
        <CharString name="Nacute">
          57 callgsubr
          249 33 callgsubr
          76 149 2 285 -40 -87 callsubr
          hintmask 01010000
          -393 119 -83 callgsubr
        </CharString>
        <CharString name="Ncaron">
          57 callgsubr
          261 70 callgsubr
          76 149 -57 364 -60 -87 callsubr
          hintmask 01010000
          -391 236 -92 callgsubr
        </CharString>
        <CharString name="Ntilde">
          57 callgsubr
          263 117 hstemhm
          76 149 -73 400 -80 -87 callsubr
          hintmask 00000000
          -267 76 -65 callgsubr
          hintmask 01010000
          -71 callgsubr
        </CharString>
        <CharString name="O">
          -9 callsubr
          hstem
          36 167 261 167 vstem
          -103 callsubr
          endchar
        </CharString>
        <CharString name="OE">
          348 -2 134 146 -11 callsubr
          hstem
          36 164 232 155 vstem
          892 132 -65 callsubr
          75 -90 callsubr
          205 hlineto
          8 -42 callgsubr
          -386 hlineto
          7 -45 -55 8 -46 -16 callgsubr
          -69 -25 -119 -105 vvcurveto
          -105 25 -120 84 -69 vhcurveto
          -37 45 56 -26 89 hhcurveto
          44 53 6 7 44 hvcurveto
          311 -45 callgsubr
          -557 -24 rmoveto
          -116 -19 129 105 105 19 128 116 31 34 -6 -9 32 hvcurveto
          -437 vlineto
          -9 -32 -34 -6 -31 hhcurveto
          endchar
        </CharString>
        <CharString name="Oacute">
          31 callsubr
          5 285 -29 -93 callgsubr
          hintmask 00101000
          172 460 -83 callgsubr
        </CharString>
        <CharString name="Ocircumflex">
          -9 callsubr
          25 192 hstemhm
          36 167 -55 362 -46 -93 callgsubr
          hintmask 00101000
          412 393 -84 callgsubr
        </CharString>
        <CharString name="Odieresis">
          -9 callsubr
          54 30 callsubr
          36 167 -48 16 callsubr
          -47 167 hintmask 11010010
          -103 callsubr
          hintmask 00101100
          415 528 -106 callgsubr
        </CharString>
        <CharString name="Ograve">
          31 callsubr
          -21 285 -3 -93 callgsubr
          hintmask 00101000
          207 597 -54 callsubr
        </CharString>
        <CharString name="Oslash">
          101 -15 118 477 118 hstem
          36 160 279 159 vstem
          36 58 callgsubr
          -97 22 -109 68 -71 vhcurveto
          -48 -84 22 -27 41 -21 35 -6 rlinecurve
          44 76 rlineto
          -11 32 37 -7 46 hhcurveto
          91 55 26 37 45 hvcurveto
          82 70 26 119 105 vvcurveto
          97 -22 108 -68 71 vhcurveto
          49 87 -22 27 -40 21 -36 6 rlinecurve
          -46 -79 rlineto
          11 -31 -37 7 -46 hhcurveto
          -89 -57 -26 -37 -44 hvcurveto
          -84 -70 -25 -118 -105 vvcurveto
          439 hmoveto
          -107 -22 -132 -118 -21 -18 4 8 -16 vhcurveto
          182 349 rlineto
          10 -39 3 -43 -40 vvcurveto
          -279 hmoveto
          107 22 131 117 21 18 -5 -7 16 vhcurveto
          -181 -348 rlineto
          -10 38 -3 44 40 vvcurveto
          endchar
        </CharString>
        <CharString name="Otilde">
          -9 callsubr
          50 30 callsubr
          36 167 -82 409 -66 -93 callgsubr
          hintmask 00000000
          291 424 rmoveto
          -9 17 26 -9 25 hhcurveto
          57 46 79 callgsubr
          8 19 rlineto
          28 -11 -38 19 -29 hhcurveto
          -10 -12 rlineto
          -17 -13 -12 -7 -13 hhcurveto
          -11 -11 4 5 -10 hvcurveto
          hintmask 00101000
          -47 22 rlineto
          10 -19 -25 8 -25 hhcurveto
          -58 -45 -36 -52 -23 hvcurveto
          -9 -19 rlineto
          -28 11 38 -19 29 hhcurveto
          10 12 rlineto
          17 13 12 8 13 hhcurveto
          11 11 -5 -4 10 hvcurveto
          endchar
        </CharString>
        <CharString name="P">
          20 214 122 230 123 hstem
          76 160 161 163 vstem
          560 451 rmoveto
          162 -103 76 -142 -76 -70 -2 -2 -86 vhcurveto
          -7 -7 rlineto
          -678 4 callgsubr
          214 79 vlineto
          142 103 80 157 hvcurveto
          -324 116 rmoveto
          -1 27 18 0 21 hhcurveto
          79 16 -68 -47 -48 -16 -67 -79 -11 -27 -1 -1 -28 hvcurveto
          endchar
        </CharString>
        <CharString name="Q">
          102 -145 114 16 123 467 123 hstemhm
          36 164 268 166 hintmask 00000000
          hintmask 11111000
          435 -104 rmoveto
          -24 28 32 -17 47 hhcurveto
          54 46 44 70 1 hvcurveto
          -41 -32 10 37 -53 hvcurveto
          -26 18 23 9 22 15 20 23 rlinecurve
          62 69 16 99 92 vvcurveto
          106 -26 118 -83 70 vhcurveto
          38 -44 -56 25 -90 hhcurveto
          -90 -56 -25 -38 -45 hvcurveto
          -83 -70 -25 -118 -105 vvcurveto
          hintmask 01111000
          -104 25 -120 83 -70 vhcurveto
          -37 46 55 -26 88 hhcurveto
          -133 357 rmoveto
          106 18 127 117 116 17 -127 -106 -105 -17 -129 -116 -117 -18 129 105 vhcurveto
          endchar
        </CharString>
        <CharString name="R">
          26 callsubr
          hstem
          76 159 168 163 vstem
          -99 callgsubr
          endchar
        </CharString>
        <CharString name="Racute">
          26 callsubr
          38 33 callgsubr
          76 159 -56 285 -61 -70 callgsubr
          -56 429 -83 callgsubr
        </CharString>
        <CharString name="Rcaron">
          26 callsubr
          50 70 callgsubr
          76 159 -115 364 -81 -70 callgsubr
          -54 546 -92 callgsubr
        </CharString>
        <CharString name="Rcommaaccent">
          46 -23 callgsubr
          301 125 193 121 hstemhm
          76 159 40 134 -6 163 hintmask 00011101
          -99 callgsubr
          hintmask 11100010
          163 -432 -94 callgsubr
        </CharString>
        <CharString name="S">
          36 callsubr
          hstem
          37 164 160 170 vstem
          -83 callsubr
          endchar
        </CharString>
        <CharString name="Sacute">
          36 callsubr
          29 33 callgsubr
          37 164 -41 285 -84 -62 callgsubr
          145 743 -83 callgsubr
        </CharString>
        <CharString name="Scaron">
          36 callsubr
          41 70 callgsubr
          37 164 -100 364 -104 -62 callgsubr
          147 860 -92 callgsubr
        </CharString>
        <CharString name="T">
          -59 550 133 hstem
          176 19 callgsubr
          -41 callsubr
          endchar
        </CharString>
        <CharString name="Tcaron">
          -59 550 133 56 70 callgsubr
          72 364 -260 160 hintmask 10010000
          -41 callsubr
          hintmask 01100000
          -43 368 -92 callgsubr
        </CharString>
        <CharString name="Thorn">
          22 135 124 208 123 hstem
          76 160 160 164 vstem
          76 hmoveto
          -10 callsubr
          135 77 vlineto
          142 105 33 callsubr
          162 -105 65 -142 hvcurveto
          -27 -25 -1 -25 hhcurveto
          94 -25 callsubr
          224 -216 rmoveto
          79 17 -57 -47 -48 -17 -56 -79 -10 -26 -1 -1 -28 hvcurveto
          211 vlineto
          -1 28 25 0 11 hhcurveto
          endchar
        </CharString>
        <CharString name="U">
          54 callgsubr
          hstem
          66 161 220 19 callgsubr
          -95 callgsubr
          endchar
        </CharString>
        <CharString name="Uacute">
          49 callgsubr
          -18 285 -47 -74 callsubr
          -398 550 -83 callgsubr
        </CharString>
        <CharString name="Ucircumflex">
          54 callgsubr
          611 192 hstemhm
          66 161 -78 362 -64 -74 callsubr
          -158 483 -84 callgsubr
        </CharString>
        <CharString name="Udieresis">
          54 callgsubr
          640 30 callsubr
          66 161 -71 16 callsubr
          -65 160 hintmask 10100100
          -95 callgsubr
          hintmask 01011000
          -155 618 -106 callgsubr
        </CharString>
        <CharString name="Ugrave">
          49 callgsubr
          -44 285 -21 -74 callsubr
          -363 687 -54 callsubr
        </CharString>
        <CharString name="Uring">
          54 callgsubr
          548 77 102 77 hstemhm
          66 161 -34 83 callsubr
          -28 160 hintmask 10010010
          -95 callgsubr
          hintmask 01101100
          -414 536 -19 callsubr
        </CharString>
        <CharString name="V">
          37 -6 140 hstemhm
          9 589 27 callsubr
          317 134 rmoveto
          -6 -3 1 11 -2 hvcurveto
          -10 58 -12 65 -16 59 -77 285 rcurveline
          54 -14 -24 25 -48 hhcurveto
          -35 -33 -11 -12 -28 hvcurveto
          166 -603 rlineto
          -61 18 37 -11 53 hhcurveto
          41 49 2 4 38 hvcurveto
          187 670 -6 8 rlineto
          8 -22 -32 3 -20 hhcurveto
          -21 -25 0 -6 -24 hvcurveto
          endchar
        </CharString>
        <CharString name="W">
          334 -6 140 381 155 hstem
          15 868 vstem
          133 66 rmoveto
          -64 13 37 -8 52 hhcurveto
          43 52 3 4 39 hvcurveto
          45 282 13 79 13 90 7 63 rlinecurve
          7 hlineto
          6 -63 11 -91 12 -78 34 -217 rcurveline
          -64 10 40 -8 48 hhcurveto
          42 57 3 4 37 hvcurveto
          132 668 -7 9 rlineto
          7 -22 -29 4 -25 hhcurveto
          -22 -26 -1 -5 -24 hvcurveto
          -56 -336 -12 -67 -13 -92 -5 -54 rlinecurve
          -6 -3 0 13 -2 hvcurveto
          -76 523 rlineto
          6 -31 -39 1 -33 hhcurveto
          -31 -39 -1 -6 -32 hvcurveto
          -83 -536 rlineto
          -6 -2 0 13 -1 hvcurveto
          -5 48 -12 85 -11 66 -42 258 rcurveline
          68 -11 -21 20 -57 hhcurveto
          -28 -32 -9 -9 -24 hvcurveto
          endchar
        </CharString>
        <CharString name="X">
          47 658 -20 hstem
          8 600 vstem
          433 683 rmoveto
          -115 -195 -88 142 rlineto
          47 -30 -26 16 -45 hhcurveto
          -34 -39 -14 -21 -32 hvcurveto
          190 -306 -206 -336 4 -8 rlineto
          -8 23 32 -6 31 hhcurveto
          28 22 2 4 17 hvcurveto
          131 221 104 -168 rlineto
          -47 31 27 -16 45 hhcurveto
          34 39 14 21 32 hvcurveto
          -209 334 188 309 -4 7 rlineto
          8 -20 -33 6 -30 hhcurveto
          -28 -22 -2 -4 -17 hvcurveto
          endchar
        </CharString>
        <CharString name="Y">
          -27 -6 697 hstem
          191 19 callgsubr
          328 -78 callgsubr
          endchar
        </CharString>
        <CharString name="Yacute">
          -39 -6 697 36 33 callgsubr
          143 285 -243 160 hintmask 10010000
          322 -78 callgsubr
          hintmask 01100000
          -246 119 -83 callgsubr
        </CharString>
        <CharString name="Ydieresis">
          -39 -6 697 61 30 callsubr
          90 124 -29 160 -23 124 hintmask 10010000
          322 -78 callgsubr
          hintmask 01101000
          -3 187 -106 callgsubr
        </CharString>
        <CharString name="Z">
          14 callgsubr
          hstem
          37 505 vstem
          -96 callsubr
          endchar
        </CharString>
        <CharString name="Zacute">
          14 callgsubr
          44 33 callgsubr
          37 505 -379 285 -87 callgsubr
          -116 342 -83 callgsubr
        </CharString>
        <CharString name="Zcaron">
          14 callgsubr
          56 70 callgsubr
          37 505 -438 364 -87 callgsubr
          -114 459 -92 callgsubr
        </CharString>
        <CharString name="Zdotaccent">
          14 callgsubr
          75 116 hstemhm
          37 505 -340 160 -87 callgsubr
          -77 356 -31 callsubr
        </CharString>
        <CharString name="a">
          -1 callgsubr
          hstem
          30 50 callgsubr
          -97 callgsubr
          endchar
        </CharString>
        <CharString name="a.smcp">
          -16 callsubr
          hstem
          4 567 vstem
          -107 callsubr
          endchar
        </CharString>
        <CharString name="aacute">
          -1 callgsubr
          30 229 81 callgsubr
          -25 249 -107 157 hintmask 11101010
          -97 callgsubr
          hintmask 00010100
          -71 501 -98 callsubr
        </CharString>
        <CharString name="aacute.smcp">
          31 callgsubr
          -371 249 -103 callgsubr
          hintmask 00101000
          -21 433 -98 callsubr
        </CharString>
        <CharString name="acircumflex">
          -56 51 0 97 195 endchar
        </CharString>
        <CharString name="acircumflex.smcp">
          -16 callsubr
          45 203 62 callsubr
          -439 324 -103 callgsubr
          hintmask 00101000
          168 383 -90 callgsubr
        </CharString>
        <CharString name="acute">
          541 229 hstem
          104 249 vstem
          104 601 -98 callsubr
        </CharString>
        <CharString name="acute.cap">
          727 212 hstem
          74 285 vstem
          74 802 -83 callgsubr
        </CharString>
        <CharString name="adieresis">
          -1 callgsubr
          63 99 81 callgsubr
          -106 2 callgsubr
          -117 157 hintmask 11101001
          -97 callgsubr
          hintmask 00010110
          49 523 -107 callgsubr
        </CharString>
        <CharString name="adieresis.smcp">
          -16 callsubr
          75 99 62 callsubr
          -452 2 callgsubr
          -103 callgsubr
          hintmask 00101100
          99 455 -107 callgsubr
        </CharString>
        <CharString name="ae">
          187 -15 115 -115 119 95 108 -96 99 80 121 -108 111 81 callgsubr
          117 155 128 144 hintmask 0000000000000000
          hintmask 0010011110000000
          713 199 rmoveto
          9 33 4 22 callsubr
          -75 91 -132 -52 -44 -18 -31 -35 vhcurveto
          hintmask 1001101110000000
          31 -30 -44 15 -48 hhcurveto
          -60 -90 -17 -27 -67 hvcurveto
          4 -39 12 -44 22 -26 rrcurveto
          17 52 53 15 43 hhcurveto
          44 20 -21 -41 hvcurveto
          -20 vlineto
          2 -26 -26 0 -19 -21 callsubr
          74 57 32 39 40 hvcurveto
          hintmask 0110011110000000
          -46 36 55 -25 74 hhcurveto
          71 73 21 36 51 hvcurveto
          -5 31 -13 38 -24 23 rrcurveto
          -16 -40 -42 -14 -45 hhcurveto
          -67 -18 41 54 -4 hvcurveto
          hintmask 1001011110000000
          -227 -99 rmoveto
          -28 -18 20 26 39 18 26 45 14 21 0 -2 20 hvcurveto
          2 -24 4 -24 6 -21 rrcurveto
          -26 -26 -30 -14 -28 hhcurveto
          290 303 rmoveto
          48 16 -39 -46 hvcurveto
          -11 vlineto
          hintmask 0010011110000000
          -128 hlineto
          hintmask 1001011110000000
          65 4 17 31 43 hhcurveto
          endchar
        </CharString>
        <CharString name="ae.smcp">
          234 -2 126 -21 116 -2 120 88 126 hstemhm
          355 146 hintmask 00000000
          hintmask 01011000
          240 103 rmoveto
          86 hlineto
          9 10 0 1 10 hvcurveto
          hintmask 10111000
          -17 vlineto
          -54 31 -35 56 vhcurveto
          227 7 callgsubr
          39 callsubr
          18 14 vvcurveto
          -199 hlineto
          -30 -15 -2 -2 -22 hvcurveto
          2 vlineto
          24 1 13 25 vvcurveto
          33 60 vlineto
          132 hlineto
          7 19 2 25 18 callsubr
          24 -7 18 vhcurveto
          -132 hlineto
          -12 -24 0 -1 -24 hvcurveto
          34 vlineto
          21 -1 14 20 vvcurveto
          61 hlineto
          179 hlineto
          8 23 4 23 -22 callgsubr
          -388 hlineto
          -31 -45 -2 -10 -22 hvcurveto
          -260 -525 6 -9 rlineto
          -8 19 24 -3 27 hhcurveto
          25 20 0 6 24 hvcurveto
          48 104 rlineto
          14 17 -1 15 hhcurveto
          34 173 rmoveto
          76 165 rlineto
          4 hlineto
          1 1 rlineto
          -224 vlineto
          -10 -10 1 -11 hhcurveto
          -40 hlineto
          -13 -12 -1 -12 hhcurveto
          endchar
        </CharString>
        <CharString name="agrave">
          -56 52 0 97 193 endchar
        </CharString>
        <CharString name="agrave.smcp">
          31 callgsubr
          -423 249 -103 callgsubr
          hintmask 00101000
          21 602 -68 callsubr
        </CharString>
        <CharString name="ampersand">
          87 -15 121 187 131 151 123 -34 -20 hstemhm
          40 163 -134 164 150 52 callgsubr
          hintmask 01100110
          332 424 rmoveto
          -67 -32 25 53 42 27 31 55 49 50 -13 -15 45 hvcurveto
          hintmask 01011010
          27 29 15 49 -2 39 rrcurveto
          hintmask 01100110
          19 -55 -78 15 -79 hhcurveto
          -133 -85 -74 -109 -71 40 -59 58 -21 hvcurveto
          hintmask 11011010
          -68 -21 -59 -69 -95 vvcurveto
          -105 67 -89 128 62 56 23 34 38 vhcurveto
          10 -44 rlineto
          -5 17 28 -2 26 hhcurveto
          28 26 2 7 18 hvcurveto
          -4 47 -3 69 44 vvcurveto
          71 vlineto
          17 -1 22 23 vvcurveto
          22 hlineto
          60 34 25 53 29 -7 28 -13 16 hvcurveto
          -13 -29 -39 -7 -38 hhcurveto
          -143 -193 rmoveto
          -87 vlineto
          -18 -21 -35 -20 -47 hhcurveto
          -42 -35 26 62 65 41 34 76 hvcurveto
          64 hlineto
          -1 -23 0 -22 -17 vvcurveto
          endchar
        </CharString>
        <CharString name="ampersand.smcp">
          28 -14 115 127 121 99 30 callsubr
          35 161 -131 163 116 150 hintmask 00000000
          hintmask 01101100
          310 349 rmoveto
          -54 -28 17 36 25 19 21 47 39 47 -12 -12 41 hvcurveto
          27 29 15 46 -2 38 rrcurveto
          15 -51 -75 14 -62 hhcurveto
          -129 -79 -59 -92 -58 33 -46 52 -17 hvcurveto
          hintmask 11110100
          -62 -18 -53 -55 -77 vvcurveto
          -84 60 -74 112 59 52 21 27 32 vhcurveto
          9 -38 rlineto
          -4 17 27 -2 20 hhcurveto
          28 32 3 8 18 hvcurveto
          -2 24 -5 45 27 vvcurveto
          73 vlineto
          22 -1 19 -1 17 vhcurveto
          10 hlineto
          58 35 18 56 23 -9 32 -10 13 hvcurveto
          -13 -25 -29 -8 -47 hhcurveto
          -131 -177 rmoveto
          -44 vlineto
          -14 -20 -33 -13 -30 hhcurveto
          -32 -33 15 45 49 40 18 61 hvcurveto
          47 hlineto
          endchar
        </CharString>
        <CharString name="aogonek">
          -28 40 callgsubr
          203 0 callgsubr
          81 callgsubr
          92 114 -89 51 callsubr
          hintmask 10111010
          479 -107 rmoveto
          15 callsubr
          28 19 22 23 21 hvcurveto
          hintmask 01111101
          28 28 20 28 9 30 rrcurveto
          -20 14 -11 -85 callsubr
          hvcurveto
          hintmask 01111010
          66 46 27 33 35 hvcurveto
          8 -10 9 -9 11 -8 rrcurveto
          -36 -27 -47 -50 -60 vvcurveto
          -60 50 -7 callgsubr
          hintmask 10111010
          -2 callsubr
          hintmask 01111101
          -251 207 -53 callsubr
          endchar
        </CharString>
        <CharString name="aogonek.smcp">
          7 40 callgsubr
          216 -20 119 124 209 121 hstemhm
          372 114 hintmask 00000000
          hintmask 01111100
          4 13 rmoveto
          -79 callgsubr
          -41 callgsubr
          10 -35 16 -16 19 -8 rlinecurve
          -32 -28 -33 -41 -48 vvcurveto
          -60 50 -7 callgsubr
          hintmask 10111100
          -2 29 -14 27 -17 15 rrcurveto
          65 callsubr
          24 35 31 33 54 26 -71 callsubr
          33 -297 -86 callsubr
          endchar
        </CharString>
        <CharString name="aring">
          -1 callgsubr
          31 79 101 77 81 callgsubr
          -73 83 callsubr
          -92 157 hintmask 1110010010000000
          -97 callgsubr
          hintmask 0001101100000000
          -119 571 -68 callgsubr
        </CharString>
        <CharString name="aring.smcp">
          -16 callsubr
          43 79 101 77 62 callsubr
          -419 83 callsubr
          hintmask 11001000
          -107 callsubr
          hintmask 00110110
          -69 503 -68 callgsubr
        </CharString>
        <CharString name="asciicircum">
          -39 299 7 226 123 hstem
          28 474 vstem
          348 648 rmoveto
          -36 10 -96 -1 -34 -9 -154 -342 rcurveline
          38 -9 72 -1 39 10 47 119 rcurveline
          9 21 21 64 7 22 rrcurveto
          8 hlineto
          7 -22 21 -64 9 -21 47 -119 rcurveline
          39 -10 72 1 38 9 rrcurveto
          endchar
        </CharString>
        <CharString name="asciitilde">
          63 193 143 -74 144 hstemhm
          31 570 hintmask 00000000
          hintmask 01100000
          301 385 rmoveto
          14 -31 -30 7 -28 hhcurveto
          -69 -55 -41 -62 -37 hvcurveto
          -20 -34 15 -35 46 -22 32 -3 rlinecurve
          25 27 rlineto
          17 16 18 9 21 hhcurveto
          13 14 -4 -7 17 hvcurveto
          hintmask 10100000
          83 -37 rlineto
          -14 32 29 -7 28 hhcurveto
          69 55 40 62 37 hvcurveto
          20 34 -15 35 -46 22 -31 3 rlinecurve
          -25 -26 rlineto
          -18 -17 -18 -9 -20 hhcurveto
          -14 -14 4 7 -16 hvcurveto
          endchar
        </CharString>
        <CharString name="asterisk">
          -48 563 -20 21 -20 186 9 hstemhm
          199 121 hintmask 00000000
          hintmask 01110000
          36 522 rmoveto
          63 -16 rlineto
          -9 31 36 -1 36 hhcurveto
          -29 -21 -29 -22 -20 -25 -41 -50 rcurveline
          16 -28 55 -39 30 -6 34 54 rcurveline
          18 27 13 34 11 34 11 -34 11 -35 18 -27 36 -54 rcurveline
          31 7 53 40 16 27 -41 49 rcurveline
          hintmask 10110000
          -21 25 -28 23 -29 21 rrcurveto
          36 37 0 9 31 hvcurveto
          63 17 2 32 -22 63 -19 23 rlinecurve
          -60 -24 -31 -13 -30 -19 -29 -21 rlinecurve
          11 34 11 35 2 33 3 65 rcurveline
          -29 12 -68 0 -28 -12 4 -65 rcurveline
          hintmask 01110000
          2 -33 10 -34 11 -34 -29 21 -30 21 -30 12 -60 23 rcurveline
          -21 -24 -21 -64 3 -31 rrcurveto
          endchar
        </CharString>
        <CharString name="at">
          411 -203 119 81 116 265 108 85 115 hstem
          39 155 93 150 114 144 100 153 vstem
          696 411 rmoveto
          39 -38 -77 36 -78 hhcurveto
          -139 -77 -106 -153 -135 56 -95 108 50 50 28 34 36 hvcurveto
          -36 31 49 -23 59 hhcurveto
          107 115 88 208 249 -191 141 -251 -269 -198 -192 -272 -294 175 -131 247 82 102 22 28 63 hvcurveto
          34 -13 44 -26 28 vhcurveto
          -24 -63 -66 -13 -67 hhcurveto
          -172 -107 97 209 205 124 144 188 174 115 -102 -169 -142 -31 -45 -38 -22 -9 15 36 hvcurveto
          -208 -51 rmoveto
          -39 -11 38 83 79 12 65 54 20 14 -5 -12 14 hvcurveto
          -201 vlineto
          -14 vlineto
          -20 -19 -24 -13 -21 hhcurveto
          endchar
        </CharString>
        <CharString name="atilde">
          -56 51 0 97 196 endchar
        </CharString>
        <CharString name="atilde.smcp">
          -16 callsubr
          55 118 62 callsubr
          -466 376 -103 callgsubr
          hintmask 00000000
          73 404 -98 callgsubr
        </CharString>
        <CharString name="b">
          -34 -9 112 281 64 callgsubr
          60 152 133 19 callgsubr
          505 257 rmoveto
          145 -59 107 -118 -47 -38 -14 -20 -31 vhcurveto
          167 vlineto
          70 -25 24 -26 callsubr
          -704 vlineto
          -21 53 70 -13 73 hhcurveto
          152 98 103 163 -1 hvcurveto
          -224 127 rmoveto
          43 -1 21 -39 -90 vvcurveto
          -93 -26 -58 -61 -16 -15 1 3 -15 vhcurveto
          244 vlineto
          24 22 26 9 21 hhcurveto
          endchar
        </CharString>
        <CharString name="b.smcp">
          -4 -4 109 129 108 106 108 hstemhm
          72 153 123 154 -129 17 callgsubr
          hintmask 11110100
          78 552 rmoveto
          2 callsubr
          -542 vlineto
          6 -5 rlineto
          -2 80 74 -1 68 hhcurveto
          134 97 37 128 60 -44 59 -57 18 hvcurveto
          hintmask 11111000
          44 18 28 47 46 vvcurveto
          109 -92 38 -123 vhcurveto
          hintmask 11110100
          -65 -92 -2 -2 -52 hvcurveto
          212 -318 rmoveto
          63 20 -34 -32 -29 -15 -34 -60 -21 -26 0 -1 -26 hvcurveto
          130 vlineto
          215 vmoveto
          hintmask 11111000
          -1 19 24 0 12 hhcurveto
          53 15 -26 -26 -28 -15 -26 -54 hvcurveto
          -54 hlineto
          endchar
        </CharString>
        <CharString name="backslash">
          -118 -120 888 hstem
          3 447 vstem
          317 -120 rmoveto
          46 6 49 15 38 30 -314 837 rcurveline
          -46 -5 -49 -16 -38 -30 rrcurveto
          endchar
        </CharString>
        <CharString name="bar">
          -299 -149 929 hstem
          62 146 vstem
          62 -142 rmoveto
          -6 23 35 -1 17 hhcurveto
          18 29 1 6 24 hvcurveto
          915 vlineto
          6 -24 -29 1 -18 hhcurveto
          -17 -35 -1 -6 -23 hvcurveto
          endchar
        </CharString>
        <CharString name="braceleft">
          -170 -180 1016 hstemhm
          38 160 -69 51 callsubr
          hintmask 10100000
          45 377 rmoveto
          hintmask 11000000
          -10 -24 0 -50 10 -25 rrcurveto
          hintmask 10100000
          49 -9 35 -48 -52 vvcurveto
          -161 vlineto
          -104 68 -59 94 -15 vhcurveto
          66 -10 21 23 15 54 -6 23 rlinecurve
          -61 21 rlineto
          -20 6 -20 24 38 vvcurveto
          158 vlineto
          68 -35 66 -53 23 vhcurveto
          8 vlineto
          53 23 35 65 69 vvcurveto
          157 vlineto
          38 20 24 20 6 vhcurveto
          61 21 6 23 -15 55 -21 23 rlinecurve
          -66 -11 rlineto
          -94 -15 -68 -58 -105 vvcurveto
          -160 vlineto
          -52 -35 -49 -49 -9 vhcurveto
          endchar
        </CharString>
        <CharString name="braceright">
          -170 -180 1016 hstem
          113 156 vstem
          354 377 rmoveto
          -50 9 -35 49 52 vvcurveto
          160 vlineto
          105 -68 58 -93 15 vhcurveto
          -67 11 -21 -23 -14 -55 6 -23 rlinecurve
          60 -21 rlineto
          20 -6 21 -24 -38 vvcurveto
          -157 vlineto
          -69 34 -65 54 -23 vhcurveto
          -8 vlineto
          -54 -23 -34 -66 -68 vvcurveto
          -158 vlineto
          -38 -21 -24 -20 -6 vhcurveto
          -60 -21 -6 -23 14 -54 21 -23 rlinecurve
          67 10 rlineto
          93 15 68 59 104 vvcurveto
          161 vlineto
          52 35 48 50 9 vhcurveto
          9 25 0 50 -9 24 rrcurveto
          endchar
        </CharString>
        <CharString name="bracketleft">
          56 callgsubr
          98 71 callsubr
          356 -155 rmoveto
          4 10 2 21 12 vvcurveto
          25 -7 27 -5 11 vhcurveto
          -100 3 rlineto
          756 vlineto
          100 3 rlineto
          5 12 7 26 25 vvcurveto
          12 -2 21 -4 10 vhcurveto
          -249 9 -9 -8 rlineto
          -976 vlineto
          9 -8 rlineto
          endchar
        </CharString>
        <CharString name="bracketright">
          56 callgsubr
          145 71 callsubr
          288 -164 rmoveto
          9 8 rlineto
          976 vlineto
          -9 8 -250 -9 rlineto
          -3 -10 -2 -21 -12 vvcurveto
          -25 6 -26 5 -12 vhcurveto
          101 -3 rlineto
          -756 vlineto
          -101 -3 rlineto
          -5 -11 -6 -27 -25 vvcurveto
          -12 2 -21 3 -10 vhcurveto
          endchar
        </CharString>
        <CharString name="brokenbar">
          -305 -149 929 hstem
          60 144 vstem
          60 -142 rmoveto
          -2 callgsubr
          141 vmoveto
          -2 callgsubr
          endchar
        </CharString>
        <CharString name="bullet">
          -107 171 197 hstem
          94 257 vstem
          94 269 rmoveto
          -20 5 -49 14 -29 vhcurveto
          -21 30 48 -10 40 hhcurveto
          39 50 10 21 31 hvcurveto
          13 29 5 49 20 vvcurveto
          19 -5 49 -13 31 vhcurveto
          18 -31 -50 11 -39 hhcurveto
          -40 -48 -11 -18 -30 hvcurveto
          -14 -31 -5 -49 -19 vvcurveto
          endchar
        </CharString>
        <CharString name="c">
          72 callsubr
          hstem
          30 159 120 140 vstem
          -45 callsubr
          endchar
        </CharString>
        <CharString name="c.smcp">
          35 callsubr
          hstem
          31 162 184 148 vstem
          -74 callgsubr
          endchar
        </CharString>
        <CharString name="cacute">
          -94 55 0 99 194 endchar
        </CharString>
        <CharString name="cacute.smcp">
          35 callsubr
          50 callsubr
          11 249 -76 -49 callgsubr
          -173 352 -98 callsubr
        </CharString>
        <CharString name="caron">
          554 206 hstem
          36 326 vstem
          103 751 -100 callsubr
        </CharString>
        <CharString name="caron.alt">
          -105 554 11 215 24 hstem
          190 141 vstem
          190 565 -15 callsubr
        </CharString>
        <CharString name="caron.cap">
          739 193 hstem
          15 364 vstem
          76 919 -92 callgsubr
        </CharString>
        <CharString name="ccaron">
          72 callsubr
          40 206 hstemhm
          30 159 -100 326 -106 140 hintmask 11010100
          -45 callsubr
          hintmask 00101000
          -153 473 -100 callsubr
        </CharString>
        <CharString name="ccaron.smcp">
          35 callsubr
          40 206 17 callsubr
          -59 326 -83 -49 callgsubr
          -176 502 -100 callsubr
        </CharString>
        <CharString name="ccedilla">
          -94 13 callgsubr
          430 116 hstemhm
          30 159 72 118 -70 140 hintmask 00000000
          hintmask 10111100
          186 -78 rmoveto
          4 45 callgsubr
          19 13 -12 -18 26 callgsubr
          hvcurveto
          hintmask 01011010
          10 callgsubr
          36 -11 32 hhcurveto
          82 58 34 callsubr
          8 19 62 8 60 27 37 40 rlinecurve
          -20 callsubr
          hvcurveto
          hintmask 01111010
          52 7 -43 -77 -1 hvcurveto
          -22 callsubr
          -143 61 -98 116 -18 hvcurveto
          hintmask 10111100
          -8 -21 -9 -27 -4 -19 rrcurveto
          endchar
        </CharString>
        <CharString name="ccedilla.smcp">
          -22 13 callgsubr
          475 123 17 callsubr
          111 118 -45 148 hintmask 00000000
          hintmask 01111100
          229 -78 rmoveto
          4 -8 10 -10 9 -4 rrcurveto
          2 6 -12 callsubr
          36 -11 32 hhcurveto
          83 57 34 callsubr
          2 6 4 8 3 6 78 10 63 33 46 40 -43 callgsubr
          hvcurveto
          hintmask 01111010
          70 16 -57 -85 hvcurveto
          -38 callgsubr
          -129 51 -142 167 -15 hvcurveto
          hintmask 01111100
          -8 -21 -8 -26 -4 -18 rrcurveto
          endchar
        </CharString>
        <CharString name="cedilla">
          13 callgsubr
          -64 96 hstemhm
          210 117 hintmask 00000000
          hintmask 01011000
          135 -78 rmoveto
          3 45 callgsubr
          20 13 -12 -18 hvcurveto
          hintmask 10011000
          -17 -13 -11 -23 -18 -18 6 7 -11 vhcurveto
          hintmask 01011000
          -15 -17 -9 -28 -1 -22 rrcurveto
          hintmask 10101000
          -13 18 35 -11 33 hhcurveto
          82 57 34 callsubr
          hintmask 01011000
          4 10 6 13 5 9 rrcurveto
          -80 hlineto
          -9 -21 -12 -35 -5 -22 rrcurveto
          endchar
        </CharString>
        <CharString name="cent">
          -106 -33 216 291 208 hstem
          185 112 vstem
          185 -33 rmoveto
          -4 14 30 0 12 hhcurveto
          12 28 0 4 16 hvcurveto
          98 vlineto
          55 11 53 28 31 36 -7 30 -27 38 -24 17 rrcurveto
          -22 -32 -38 -20 -36 hhcurveto
          -54 -34 34 107 102 13 48 45 50 8 -59 -61 hvcurveto
          -5 17 23 -2 16 hhcurveto
          53 30 25 60 74 -55 61 -84 18 hvcurveto
          97 vlineto
          4 -16 -28 1 -12 hhcurveto
          -12 -30 -1 -4 -14 hvcurveto
          -100 vlineto
          -87 -23 -76 -77 -158 vvcurveto
          -112 35 -117 125 -29 vhcurveto
          endchar
        </CharString>
        <CharString name="cent.smcp">
          -151 -31 189 347 -20 hstemhm
          163 108 hintmask 00000000
          hintmask 11100000
          163 -31 rmoveto
          -4 14 28 -1 12 hhcurveto
          11 27 0 5 16 hvcurveto
          76 vlineto
          47 9 48 22 30 29 -7 30 -23 36 -23 16 rrcurveto
          -18 -31 -36 -11 -31 hhcurveto
          -48 -29 32 79 93 14 33 35 38 9 -33 -77 hvcurveto
          -5 16 23 -2 14 hhcurveto
          52 29 24 56 82 -51 50 -74 15 hvcurveto
          81 vlineto
          3 -16 -27 1 -10 hhcurveto
          -12 -28 -1 -3 -14 hvcurveto
          -82 vlineto
          -79 -21 -66 -70 -138 vvcurveto
          -96 31 -104 111 -27 vhcurveto
          endchar
        </CharString>
        <CharString name="circumflex">
          544 203 hstem
          38 324 vstem
          295 551 -90 callgsubr
        </CharString>
        <CharString name="circumflex.cap">
          723 192 hstem
          14 362 vstem
          314 735 -84 callgsubr
        </CharString>
        <CharString name="colon">
          -275 8 121 188 121 hstemhm
          57 169 hintmask 10100000
          57 68 rmoveto
          -76 callsubr
          hintmask 01100000
          309 vmoveto
          -76 callsubr
          endchar
        </CharString>
        <CharString name="comma">
          -274 -8 136 hstemhm
          72 166 27 callsubr
          -36 callgsubr
          endchar
        </CharString>
        <CharString name="commaaccent">
          -35 callgsubr
        </CharString>
        <CharString name="commaaccent.cap">
          -35 callgsubr
        </CharString>
        <CharString name="copyright">
          220 -22 103 67 93 209 86 66 103 hstem
          31 117 75 119 96 107 96 117 vstem
          31 341 rmoveto
          -205 158 -158 205 205 159 158 205 205 -159 159 -205 -205 -158 -159 -205 vhcurveto
          117 hmoveto
          145 101 116 145 145 102 -116 -145 -145 -102 -115 -145 -145 -101 115 145 vhcurveto
          290 23 rmoveto
          -4 10 19 -2 14 hhcurveto
          43 21 20 41 67 -63 50 -85 -83 -91 -52 -142 -94 38 -100 135 49 64 25 31 30 hvcurveto
          -3 24 -19 31 -19 13 rrcurveto
          -16 -27 -30 -15 -25 hhcurveto
          -47 -27 34 67 71 15 37 35 39 7 -43 -43 hvcurveto
          endchar
        </CharString>
        <CharString name="currency">
          22 112 115 213 115 hstem
          63 153 157 153 vstem
          63 333 rmoveto
          -44 10 -39 18 -32 vhcurveto
          -69 -78 20 -30 29 -32 30 -17 rlinecurve
          83 73 rlineto
          -15 32 37 -7 41 hhcurveto
          40 37 7 15 32 hvcurveto
          84 -74 32 19 29 30 18 30 rlinecurve
          -70 77 rlineto
          19 33 11 39 45 vvcurveto
          43 -10 39 -19 32 vhcurveto
          71 81 -19 30 -30 30 -29 19 rlinecurve
          -84 -76 rlineto
          15 -33 -37 9 -42 hhcurveto
          -42 -38 -8 -16 -32 hvcurveto
          -81 73 -30 -18 -32 -30 -17 -31 rlinecurve
          69 -77 rlineto
          -19 -33 -9 -39 -43 vvcurveto
          153 hmoveto
          59 20 48 58 59 20 -48 -59 -58 -20 -48 -59 -58 -20 50 56 vhcurveto
          endchar
        </CharString>
        <CharString name="currency.smcp">
          -86 79 106 163 90 63 -20 hstem
          43 142 111 141 vstem
          43 266 rmoveto
          -35 7 -31 14 -26 vhcurveto
          -57 -65 21 -29 28 -32 30 -17 rlinecurve
          71 62 rlineto
          -10 25 28 -4 30 hhcurveto
          29 28 4 9 24 hvcurveto
          72 -63 32 20 29 29 18 30 rlinecurve
          -57 64 rlineto
          14 27 8 31 36 vvcurveto
          34 -7 30 -13 25 vhcurveto
          58 69 -20 29 -29 30 -29 18 rlinecurve
          -72 -63 rlineto
          10 -25 -29 5 -31 hhcurveto
          -31 -29 -5 -10 -25 hvcurveto
          -69 61 -30 -19 -32 -28 -17 -31 rlinecurve
          56 -64 rlineto
          -13 -26 -7 -31 -34 vvcurveto
          142 hmoveto
          47 15 35 40 40 16 -35 -47 -46 -16 -35 -40 -40 -15 37 44 vhcurveto
          endchar
        </CharString>
        <CharString name="d">
          -30 -15 38 callgsubr
          hstem
          32 160 133 71 callsubr
          -58 callgsubr
          endchar
        </CharString>
        <CharString name="d.smcp">
          74 callgsubr
          hstem
          33 callsubr
          186 19 callgsubr
          -50 callsubr
          endchar
        </CharString>
        <CharString name="dcaron">
          95 -15 38 callgsubr
          41 11 215 24 hstemhm
          32 160 133 152 58 141 hintmask 11001100
          -58 callgsubr
          hintmask 00110010
          283 450 -15 callsubr
        </CharString>
        <CharString name="dcaron.smcp">
          74 callgsubr
          50 206 29 callgsubr
          -99 326 -41 160 hintmask 11010100
          -50 callsubr
          hintmask 00101000
          -218 528 -100 callsubr
        </CharString>
        <CharString name="degree">
          -218 353 96 129 97 hstem
          14 108 105 109 vstem
          14 514 rmoveto
          -95 68 -66 93 94 67 66 95 94 -67 67 -94 -93 -68 -67 -94 vhcurveto
          108 hmoveto
          39 21 25 32 32 20 -25 -39 -40 -20 -25 -32 -32 -21 25 40 vhcurveto
          endchar
        </CharString>
        <CharString name="dieresis">
          574 99 hstem
          25 2 callgsubr
          vstem
          226 623 -107 callgsubr
        </CharString>
        <CharString name="dieresis.cap">
          752 118 hstem
          21 16 callsubr
          vstem
          317 870 -106 callgsubr
        </CharString>
        <CharString name="divide">
          -39 68 105 64 125 63 106 hstem
          187 144 vstem
          187 478 rmoveto
          -17 4 -21 7 -15 vhcurveto
          -9 74 callsubr
          8 14 hvcurveto
          8 15 60 callgsubr
          8 -14 -27 6 -25 hhcurveto
          -25 -26 -6 -8 73 callsubr
          -358 vmoveto
          -17 4 -21 7 -14 vhcurveto
          -10 74 callsubr
          9 14 hvcurveto
          8 14 60 callgsubr
          9 -14 -27 5 -25 hhcurveto
          -25 -26 -5 -9 73 callsubr
          290 117 rmoveto
          6 21 1 27 42 callgsubr
          28 -6 21 vhcurveto
          -424 hlineto
          -6 -21 -1 -28 41 callsubr
          -27 6 -21 vhcurveto
          endchar
        </CharString>
        <CharString name="dollar">
          -59 -41 196 332 203 hstemhm
          196 112 -108 112 51 callgsubr
          22 95 rmoveto
          hintmask 11100000
          33 -23 67 -27 74 -10 rrcurveto
          -76 vlineto
          -4 15 30 0 11 hhcurveto
          12 29 0 4 15 hvcurveto
          76 vlineto
          103 15 74 62 90 vvcurveto
          87 -58 55 -81 31 vhcurveto
          -92 35 rlineto
          -27 10 -19 8 21 vvcurveto
          24 19 14 33 41 60 -18 -22 55 vhcurveto
          32 27 22 49 45 vvcurveto
          -42 17 -52 19 -64 7 rrcurveto
          79 vlineto
          4 -15 -29 1 -12 hhcurveto
          -11 -30 -1 -4 -15 hvcurveto
          -80 vlineto
          -90 -17 -64 -64 -90 vvcurveto
          -83 58 -49 76 -29 vhcurveto
          95 -34 rlineto
          32 -12 13 -19 -17 vvcurveto
          -27 -26 -14 -37 -63 -64 28 27 -51 vhcurveto
          -30 -20 -26 -57 -1 -38 rrcurveto
          endchar
        </CharString>
        <CharString name="dollar.smcp">
          -112 -34 175 271 175 hstemhm
          174 107 -104 108 51 callgsubr
          18 77 rmoveto
          hintmask 11100000
          30 -20 58 -24 68 -8 rrcurveto
          -59 vlineto
          -4 15 27 -1 12 hhcurveto
          11 28 1 4 14 hvcurveto
          60 vlineto
          90 14 65 50 87 vvcurveto
          72 -51 49 -79 29 vhcurveto
          -79 29 rlineto
          -18 7 -18 7 15 vvcurveto
          17 14 10 28 43 52 -15 -20 44 vhcurveto
          31 24 20 36 2 48 -38 18 -50 16 -52 6 rrcurveto
          62 vlineto
          4 -15 -28 1 -11 hhcurveto
          -11 -28 -1 -4 -15 hvcurveto
          -65 vlineto
          -83 -18 -55 -53 -79 vvcurveto
          -77 59 -40 63 -23 vhcurveto
          85 -31 rlineto
          26 -10 6 -12 -10 vvcurveto
          -19 -17 -9 -29 -52 -61 22 23 -46 vhcurveto
          -30 -20 -23 -50 -2 -39 rrcurveto
          endchar
        </CharString>
        <CharString name="dotaccent">
          584 60 callsubr
          642 -91 callsubr
          endchar
        </CharString>
        <CharString name="dotaccent.cap">
          758 60 callsubr
          816 -31 callsubr
        </CharString>
        <CharString name="dotlessi">
          -271 389 114 -5 -20 hstemhm
          83 51 callsubr
          hintmask 01100000
          240 384 rmoveto
          hintmask 10100000
          -95 callsubr
          endchar
        </CharString>
        <CharString name="dotlessj">
          -265 5 callsubr
          hstemhm
          92 52 callgsubr
          hintmask 10110000
          246 384 rmoveto
          hintmask 11010000
          -82 callsubr
          endchar
        </CharString>
        <CharString name="e">
          -72 -15 11 callsubr
          hstem
          30 157 132 143 vstem
          -78 callsubr
          endchar
        </CharString>
        <CharString name="e.smcp">
          -20 callgsubr
          hstem
          33 callsubr
          vstem
          -104 callgsubr
          endchar
        </CharString>
        <CharString name="eacute">
          -72 -15 11 callsubr
          79 callsubr
          30 157 -25 249 -92 143 hintmask 11101010
          -78 callsubr
          hintmask 00010100
          -91 198 -98 callsubr
        </CharString>
        <CharString name="eacute.smcp">
          20 callgsubr
          -44 249 -102 callsubr
          hintmask 00010100
          -308 528 -98 callsubr
        </CharString>
        <CharString name="ecaron">
          -72 56 0 101 207 endchar
        </CharString>
        <CharString name="ecaron.smcp">
          -20 callgsubr
          55 206 29 callgsubr
          -114 326 -102 callsubr
          hintmask 00010100
          -311 678 -100 callsubr
        </CharString>
        <CharString name="ecircumflex">
          -72 56 0 101 195 endchar
        </CharString>
        <CharString name="ecircumflex.smcp">
          -20 callgsubr
          45 203 29 callgsubr
          -112 324 -102 callsubr
          hintmask 00010100
          -119 478 -90 callgsubr
        </CharString>
        <CharString name="edieresis">
          -72 -15 11 callsubr
          60 99 hstemhm
          30 157 -106 2 callgsubr
          -102 143 hintmask 11101001
          -78 callsubr
          hintmask 00010110
          29 220 -107 callgsubr
        </CharString>
        <CharString name="edieresis.smcp">
          -20 callgsubr
          75 99 29 callgsubr
          -125 2 callgsubr
          -102 callsubr
          hintmask 00010110
          -188 550 -107 callgsubr
        </CharString>
        <CharString name="egrave">
          -72 56 0 101 193 endchar
        </CharString>
        <CharString name="egrave.smcp">
          20 callgsubr
          -96 249 -102 callsubr
          hintmask 00010100
          -266 697 -68 callsubr
        </CharString>
        <CharString name="eight">
          -39 -15 108 460 110 hstemhm
          26 156 -140 152 143 149 -140 17 callgsubr
          hintmask 11100100
          26 165 rmoveto
          -112 91 -68 141 136 108 70 117 2 vhcurveto
          1 84 -44 54 -68 40 rrcurveto
          hintmask 11011000
          51 29 42 47 63 vvcurveto
          100 -85 74 -136 -130 -93 -77 -100 -70 32 -46 60 -38 vhcurveto
          hintmask 11100100
          -59 -36 -49 -58 -73 vvcurveto
          235 109 rmoveto
          56 -22 29 -37 -42 vvcurveto
          -44 -29 -36 -52 -51 -32 35 46 37 15 39 39 33 vhcurveto
          hintmask 11011000
          -42 204 rmoveto
          37 29 29 41 45 28 -30 -40 -34 -16 -29 -31 -23 vhcurveto
          -13 5 rlineto
          -52 19 -31 26 40 vvcurveto
          endchar
        </CharString>
        <CharString name="eight.smcp">
          -87 -15 103 373 105 hstemhm
          25 149 -133 147 109 144 -136 75 callsubr
          hintmask 11100100
          25 134 rmoveto
          -89 82 -60 128 124 98 56 117 61 -33 45 -55 35 vhcurveto
          hintmask 11011000
          39 22 33 37 55 vvcurveto
          88 -75 65 -124 -120 -81 -76 -86 -55 28 -40 52 -34 vhcurveto
          hintmask 11100100
          -49 -25 -47 -46 -70 vvcurveto
          214 88 rmoveto
          37 -14 29 -24 -39 vvcurveto
          -25 -20 -32 -45 -44 -22 26 31 28 12 29 40 25 vhcurveto
          hintmask 11011000
          -38 187 rmoveto
          23 18 24 36 38 17 -27 -24 -20 -9 -24 -23 -20 vhcurveto
          -13 5 rlineto
          -41 15 -23 20 28 vvcurveto
          endchar
        </CharString>
        <CharString name="emdash">
          247 206 119 hstem
          67 681 vstem
          742 206 rmoveto
          5 21 1 25 42 callgsubr
          24 69 callgsubr
          -668 hlineto
          -6 -21 -1 -24 41 callsubr
          -25 6 -21 vhcurveto
          endchar
        </CharString>
        <CharString name="endash">
          -14 206 119 hstem
          56 445 vstem
          494 206 rmoveto
          6 21 1 25 42 callgsubr
          24 -6 21 vhcurveto
          -432 hlineto
          -5 -21 -1 -24 41 callsubr
          -25 5 -21 vhcurveto
          endchar
        </CharString>
        <CharString name="eogonek">
          -72 40 callgsubr
          203 11 callsubr
          hstemhm
          30 157 25 114 -7 143 hintmask 00000000
          hintmask 01111101
          -55 callsubr
          vhcurveto
          hintmask 01111110
          12 hlineto
          -32 -29 -21 -35 -36 vvcurveto
          -64 50 -7 callgsubr
          hintmask 10111110
          19 callsubr
          32 24 34 38 29 hvcurveto
          23 8 20 11 18 13 -4 31 40 callsubr
          hintmask 01111101
          -54 callgsubr
          endchar
        </CharString>
        <CharString name="eogonek.smcp">
          -40 40 callgsubr
          216 128 90 124 83 128 29 callgsubr
          17 114 hintmask 00000000
          hintmask 10111110
          450 -107 rmoveto
          15 callsubr
          30 21 36 54 22 hvcurveto
          4 2 29 10 16 24 6 34 rlinecurve
          3 19 0 21 13 vvcurveto
          hintmask 01111100
          -196 hlineto
          -29 callsubr
          10 25 vvcurveto
          32 -18 callsubr
          27 18 callsubr
          27 -38 callsubr
          31 -49 callsubr
          25 -73 callgsubr
          145 hlineto
          -36 -28 -27 -39 -48 vvcurveto
          -62 50 -7 callgsubr
          -2 callsubr
          endchar
        </CharString>
        <CharString name="equal">
          -39 123 125 104 64 callgsubr
          46 438 vstem
          477 123 -4 callsubr
          424 229 -4 callsubr
          endchar
        </CharString>
        <CharString name="eth">
          -49 -15 114 278 110 171 -20 hstem
          29 159 142 19 callgsubr
          84 571 rmoveto
          6 -28 21 -27 23 -16 91 62 rcurveline
          25 -25 22 -27 13 -29 rrcurveto
          4 -12 -13 2 -14 hhcurveto
          -60 -47 -20 -33 -37 hvcurveto
          -47 -42 -26 -64 -85 vvcurveto
          -71 18 -76 53 -52 -18 callgsubr
          52 19 74 79 vvcurveto
          160 -55 132 -100 96 vhcurveto
          64 44 -8 29 -21 26 -22 16 rlinecurve
          -84 -57 -33 22 -36 19 -40 17 rlinecurve
          -29 -14 -28 -43 -5 -38 20 -12 21 -13 20 -14 rrcurveto
          176 -370 rmoveto
          -82 -10 -68 -61 -62 -9 68 73 86 18 51 55 20 20 -7 -10 20 vhcurveto
          7 -31 2 -33 -47 vvcurveto
          endchar
        </CharString>
        <CharString name="eth.smcp">
          47 -4 116 103 119 105 117 hstem
          81 154 189 19 callgsubr
          584 15 callgsubr
          -42 -75 13 -52 hhcurveto
          -79 -67 -2 -2 -79 hvcurveto
          2 callsubr
          -212 -66 vlineto
          -6 -21 -1 -19 -19 vvcurveto
          -22 1 -18 6 -20 vhcurveto
          66 -210 hlineto
          6 -6 rlineto
          -2 79 67 -1 79 hhcurveto
          52 75 11 28 42 7 callsubr
          -91 -97 vhcurveto
          -29 -19 -1 -29 hhcurveto
          104 96 vlineto
          5 20 2 18 23 vvcurveto
          22 -2 15 69 callgsubr
          -96 106 hlineto
          -1 28 20 0 29 hhcurveto
          97 15 -92 -72 hvcurveto
          endchar
        </CharString>
        <CharString name="exclam">
          -261 5 134 541 12 hstem
          75 148 vstem
          91 209 rmoveto
          -6 20 27 -1 14 hhcurveto
          15 21 1 6 21 hvcurveto
          35 471 -9 12 rlineto
          -70 -61 -18 -25 -35 hvcurveto
          81 -510 rmoveto
          -27 -28 -6 -11 -20 hvcurveto
          -6 -12 -4 -28 -19 vvcurveto
          -18 4 -28 6 -12 vhcurveto
          -11 20 28 -6 27 hhcurveto
          27 28 6 11 18 hvcurveto
          8 12 4 28 18 vvcurveto
          19 -4 28 -8 12 vhcurveto
          11 -18 80 callsubr
          endchar
        </CharString>
        <CharString name="exclamdown">
          -261 -193 11 541 134 hstem
          85 148 vstem
          218 289 rmoveto
          6 -20 -28 1 -14 hhcurveto
          -15 -21 -1 -6 -21 hvcurveto
          -35 -471 9 -11 rlineto
          70 62 18 25 34 hvcurveto
          -81 509 rmoveto
          27 28 6 11 20 hvcurveto
          6 12 4 18 callgsubr
          -4 28 -6 12 vhcurveto
          11 -20 80 callsubr
          -27 -28 -6 -11 -18 hvcurveto
          -8 73 callgsubr
          8 -12 vhcurveto
          -11 18 28 -6 27 hhcurveto
          endchar
        </CharString>
        <CharString name="f">
          -211 390 110 hstem
          88 71 callsubr
          88 hmoveto
          -4 24 26 -2 25 hhcurveto
          26 28 2 4 23 hvcurveto
          391 vlineto
          120 -2 rlineto
          4 17 2 22 18 vvcurveto
          17 -2 20 -4 17 vhcurveto
          -131 -2 rlineto
          -3 20 -1 19 17 vvcurveto
          46 24 23 43 27 30 -8 -6 20 vhcurveto
          20 21 15 47 -1 35 rrcurveto
          13 -35 -56 15 -63 hhcurveto
          -104 -70 -75 -99 -23 2 -22 3 -22 hvcurveto
          -78 1 rlineto
          -4 -17 -2 -20 -17 vvcurveto
          -18 2 -22 4 -17 vhcurveto
          86 1 rlineto
          endchar
        </CharString>
        <CharString name="f.smcp">
          -82 204 123 94 130 hstem
          72 59 callgsubr
          465 551 rmoveto
          -387 hlineto
          -6 -5 rlineto
          -546 vlineto
          -5 27 31 -1 21 hhcurveto
          21 31 28 callsubr
          204 11 vlineto
          167 hlineto
          6 18 2 44 callsubr
          17 -2 26 -6 17 vhcurveto
          -167 hlineto
          -11 52 hlineto
          42 58 vlineto
          106 hlineto
          56 22 27 45 14 -2 26 -5 18 hvcurveto
          endchar
        </CharString>
        <CharString name="five">
          -39 -15 126 204 119 85 129 hstem
          71 153 102 159 vstem
          451 648 rmoveto
          -363 hlineto
          -8 -8 -18 -302 16 -24 35 -24 27 -6 rlinecurve
          20 27 27 11 31 hhcurveto
          54 47 -31 -70 -67 -47 -36 -56 -45 -39 17 28 -39 hvcurveto
          -31 -22 -27 -51 -5 -29 rrcurveto
          -44 49 74 -25 77 hhcurveto
          124 124 75 161 127 -78 86 -136 -19 -18 -2 -4 -17 hvcurveto
          3 17 4 47 rlineto
          27 8 vlineto
          164 hlineto
          42 24 23 42 15 -1 23 -10 26 hvcurveto
          endchar
        </CharString>
        <CharString name="five.smcp">
          -87 -15 122 147 109 64 124 hstem
          68 147 71 155 vstem
          33 45 rmoveto
          -40 50 67 -20 70 hhcurveto
          114 107 69 133 103 -79 73 -107 -15 -15 -2 -2 -14 hvcurveto
          2 20 2 34 rlineto
          14 1 vlineto
          146 hlineto
          41 24 21 39 16 -1 22 -9 26 hvcurveto
          -333 hlineto
          -8 -7 -16 -262 15 -25 35 -26 28 -6 rlinecurve
          18 21 25 11 26 hhcurveto
          46 30 -28 -46 -45 -32 -28 -48 -41 -36 14 26 -34 hvcurveto
          -30 -22 -26 -53 -6 -27 rrcurveto
          endchar
        </CharString>
        <CharString name="four">
          -39 113 128 415 -20 hstem
          271 151 vstem
          271 hmoveto
          -5 27 26 -1 22 hhcurveto
          23 25 52 callsubr
          42 vlineto
          27 -1 20 25 vvcurveto
          78 hlineto
          7 24 3 29 21 vvcurveto
          18 -1 19 -3 18 vhcurveto
          -27 hlineto
          -26 -6 -1 -25 hhcurveto
          26 1 20 27 vvcurveto
          97 vlineto
          -7 6 rlineto
          -36 hlineto
          -69 -39 -48 -76 hvcurveto
          -33 vlineto
          -20 vlineto
          -31 -1 -43 -2 -28 -3 -3 5 rcurveline
          37 53 49 113 23 57 67 161 rcurveline
          -24 27 -73 13 -45 -8 -161 -382 rcurveline
          -8 -17 -10 -26 -22 vvcurveto
          -28 14 -38 19 -30 vhcurveto
          144 hlineto
          26 22 1 26 hhcurveto
          -25 -1 -20 -27 vvcurveto
          endchar
        </CharString>
        <CharString name="four.smcp">
          -87 88 122 348 -20 hstemhm
          249 143 hintmask 00000000
          hintmask 11100000
          249 hmoveto
          -5 28 24 -1 21 hhcurveto
          21 21 52 callsubr
          21 vlineto
          26 -1 16 25 vvcurveto
          59 hlineto
          8 27 3 19 29 vvcurveto
          17 -1 13 -3 17 vhcurveto
          -24 hlineto
          -12 -19 -1 -11 hhcurveto
          2 vlineto
          24 2 39 26 vvcurveto
          54 vlineto
          -6 7 rlineto
          -35 hlineto
          -63 -40 -50 -65 hvcurveto
          -25 vlineto
          -14 vlineto
          -26 -1 -33 -3 -21 -3 -3 5 rcurveline
          35 60 41 79 21 44 65 135 rcurveline
          -28 27 -61 16 -50 -8 -152 -323 rcurveline
          -6 -11 -11 -22 -22 vvcurveto
          -26 15 -37 18 -31 vhcurveto
          124 hlineto
          27 21 2 25 hhcurveto
          -25 -1 -16 -26 vvcurveto
          endchar
        </CharString>
        <CharString name="foursuperior">
          -149 386 106 hstem
          212 123 vstem
          212 319 rmoveto
          -5 21 24 -33 callsubr
          17 22 1 5 20 hvcurveto
          69 vlineto
          8 15 -1 9 hhcurveto
          15 hlineto
          6 22 3 21 24 vvcurveto
          14 -1 11 -3 14 vhcurveto
          -52 hlineto
          20 1 34 21 vvcurveto
          44 vlineto
          -5 4 rlineto
          -29 hlineto
          -57 -33 -35 -58 hvcurveto
          -23 vlineto
          -8 vlineto
          -20 -25 -2 -2 -17 hvcurveto
          -2 2 26 32 35 72 16 37 rlinecurve
          52 114 -28 19 -57 12 -39 -4 rlinecurve
          -114 -258 rlineto
          -4 -9 -10 -22 -18 vvcurveto
          -21 12 -32 16 -26 vhcurveto
          104 hlineto
          23 11 2 22 hhcurveto
          -21 -1 -9 -22 vvcurveto
          endchar
        </CharString>
        <CharString name="fraction">
          -283 0 -20 hstem
          -121 528 vstem
          -121 hmoveto
          -30 callsubr
          endchar
        </CharString>
        <CharString name="g">
          -33 -221 116 95 48 callsubr
          134 75 callsubr
          hintmask 11101100
          32 249 rmoveto
          38 callsubr
          41 40 15 24 33 vhcurveto
          -33 vlineto
          -61 -28 -40 -73 -45 -48 11 19 -43 vhcurveto
          -22 -26 -16 -50 -37 vvcurveto
          -20 52 73 -13 63 hhcurveto
          80 68 23 50 40 hvcurveto
          31 40 20 59 140 vvcurveto
          264 vlineto
          hintmask 11011100
          32 11 28 17 12 vhcurveto
          -4 28 -24 37 -20 15 -41 -1 -31 -15 -22 -24 rrcurveto
          hintmask 11101100
          26 -30 -43 66 callgsubr
          hvcurveto
          294 108 rmoveto
          -207 vlineto
          -23 -23 -26 -11 -26 hhcurveto
          -34 -25 39 93 93 19 57 49 19 24 -12 -22 23 hvcurveto
          endchar
        </CharString>
        <CharString name="g.smcp">
          20 -15 117 94 127 117 126 hstem
          31 162 203 145 vstem
          298 321 rmoveto
          -5 -15 -3 -25 -23 vvcurveto
          -43 25 -19 46 vhcurveto
          37 hlineto
          -1 -22 -1 -19 -10 vvcurveto
          1 vlineto
          -1 vlineto
          -7 vlineto
          -31 vlineto
          -3 -20 -21 -2 -22 hhcurveto
          -97 -43 56 114 109 48 59 85 50 48 -14 -24 48 hvcurveto
          30 20 27 54 3 41 rrcurveto
          28 -56 -79 21 -80 hhcurveto
          -152 -134 -91 -202 -170 78 -118 196 87 104 17 16 45 hvcurveto
          221 vlineto
          54 -23 30 -77 -48 -47 0 -2 -48 vhcurveto
          endchar
        </CharString>
        <CharString name="germandbls">
          -80 callsubr
        </CharString>
        <CharString name="germandbls.cap">
          -80 callsubr
        </CharString>
        <CharString name="germandbls.cap_smcp">
          36 -13 113 154 115 84 114 hstemhm
          89 159 135 159 hintmask 00000000
          hintmask 11111000
          89 hmoveto
          -4 24 31 -2 24 hhcurveto
          27 28 2 4 25 hvcurveto
          386 vlineto
          40 20 27 47 45 23 -32 -37 -5 0 -4 -1 -5 vhcurveto
          -41 -20 -22 -37 -34 vvcurveto
          -33 18 -20 31 -28 vhcurveto
          31 -29 rlineto
          19 -17 5 -11 -12 vvcurveto
          -16 -13 -13 -25 -16 -20 4 9 -19 vhcurveto
          -22 -24 -18 -49 -1 -33 rrcurveto
          -14 34 48 -6 36 hhcurveto
          101 76 52 80 35 -11 32 -44 45 hvcurveto
          -26 27 rlineto
          -10 8 -6 9 11 vvcurveto
          21 17 17 31 12 vhcurveto
          5 18 2 21 16 vvcurveto
          105 -91 71 -136 -135 -91 -55 -108 vhcurveto
          -35 vlineto
          -77 1 rlineto
          -4 -16 -1 -24 -16 vvcurveto
          -18 1 -25 4 -17 vhcurveto
          77 1 rlineto
          endchar
        </CharString>
        <CharString name="germandbls.smcp">
          449 20 callsubr
          hstemhm
          33 61 callsubr
          57 61 callsubr
          hintmask 11110000
          -93 callsubr
          hintmask 11001100
          509 hmoveto
          -100 callgsubr
          endchar
        </CharString>
        <CharString name="grave">
          541 229 hstem
          53 249 vstem
          147 770 -68 callsubr
        </CharString>
        <CharString name="grave.cap">
          727 212 hstem
          48 285 vstem
          109 939 -54 callsubr
        </CharString>
        <CharString name="greater">
          -39 555 -20 hstem
          322 163 vstem
          479 241 rmoveto
          9 35 -1 49 -8 34 -354 196 rcurveline
          -38 -20 -30 -53 -4 -49 184 -94 rcurveline
          20 -11 44 -18 21 -7 rrcurveto
          -8 vlineto
          -21 -7 -44 -18 -20 -10 -184 -95 rcurveline
          2 -49 30 -50 39 -21 rrcurveto
          endchar
        </CharString>
        <CharString name="guillemotleft">
          48 26 463 hstemhm
          23 296 -29 296 hintmask 10100000
          581 409 -44 callsubr
          hintmask 11000000
          -145 151 -44 callsubr
          endchar
        </CharString>
        <CharString name="guillemotright">
          48 26 463 hstemhm
          31 296 -29 296 hintmask 11000000
          35 105 -44 callgsubr
          hintmask 10100000
          145 -151 -44 callgsubr
          endchar
        </CharString>
        <CharString name="guilsinglleft">
          -220 26 463 hstem
          23 296 vstem
          314 409 -44 callsubr
          endchar
        </CharString>
        <CharString name="guilsinglright">
          -220 26 463 hstem
          31 296 vstem
          35 105 -44 callgsubr
          endchar
        </CharString>
        <CharString name="h">
          -26 508 -20 hstem
          60 50 callgsubr
          486 43 callsubr
          189 9 callgsubr
          56 callsubr
          -729 -27 callsubr
        </CharString>
        <CharString name="h.smcp">
          64 222 128 201 -20 hstem
          72 158 172 159 vstem
          402 hmoveto
          48 callgsubr
          551 vlineto
          45 callsubr
          -143 vlineto
          -22 1 -16 -21 vvcurveto
          -14 -14 1 -15 hhcurveto
          -87 hlineto
          -14 -15 -1 -15 hhcurveto
          21 1 16 22 vvcurveto
          143 vlineto
          6 -37 callgsubr
          -6 -25 hvcurveto
          -551 vlineto
          -70 callsubr
          164 5 callgsubr
          endchar
        </CharString>
        <CharString name="hbar">
          -23 508 -20 70 97 hstem
          63 50 callgsubr
          489 43 callsubr
          106 vlineto
          144 -1 rlineto
          5 18 2 12 20 vvcurveto
          17 -2 11 -5 20 vhcurveto
          -144 -2 rlineto
          60 -3 -24 22 -58 hhcurveto
          56 callsubr
          -75 vlineto
          -75 2 rlineto
          -5 -20 -1 -11 -17 vvcurveto
          -20 1 -12 5 -18 vhcurveto
          75 1 rlineto
          -559 -27 callsubr
        </CharString>
        <CharString name="hbar.smcp">
          72 217 126 59 149 hstem
          76 158 172 159 vstem
          234 hmoveto
          159 5 callgsubr
          -159 vlineto
          48 callgsubr
          402 58 vlineto
          5 15 2 20 13 vvcurveto
          13 -2 15 -5 16 vhcurveto
          -58 57 hlineto
          45 callsubr
          -57 -172 57 vlineto
          6 -37 callgsubr
          -6 -25 hvcurveto
          -57 -59 vlineto
          -4 -16 -2 -19 -10 vvcurveto
          -13 2 -19 4 -15 vhcurveto
          59 -402 hlineto
          -70 callsubr
          130 343 rmoveto
          -87 hlineto
          -14 -15 -1 -15 hhcurveto
          20 1 19 21 vvcurveto
          172 hlineto
          -21 1 -19 -20 vvcurveto
          -14 -14 1 -15 hhcurveto
          endchar
        </CharString>
        <CharString name="hyphen">
          -24 callgsubr
        </CharString>
        <CharString name="i">
          -271 -60 0 245 199 endchar
        </CharString>
        <CharString name="i.smcp">
          22 callgsubr
          hstem
          74 59 callgsubr
          -81 callsubr
          endchar
        </CharString>
        <CharString name="iacute">
          0 callsubr
          63 23 callgsubr
          39 249 -211 157 -89 callsubr
          hintmask 00110000
          -195 601 -98 callsubr
        </CharString>
        <CharString name="iacute.smcp">
          22 callgsubr
          62 23 callgsubr
          62 249 -237 -46 callgsubr
          -12 102 -98 callsubr
        </CharString>
        <CharString name="icircumflex">
          0 callsubr
          66 203 hstemhm
          -29 324 -218 157 -89 callsubr
          hintmask 00110000
          -6 551 -90 callgsubr
        </CharString>
        <CharString name="icircumflex.smcp">
          22 callgsubr
          65 203 hstemhm
          -6 324 -244 -46 callgsubr
          177 52 -90 callgsubr
        </CharString>
        <CharString name="idieresis">
          0 callsubr
          96 99 hstemhm
          -42 138 -19 157 -75 139 -89 callsubr
          hintmask 00110100
          -75 623 -107 callgsubr
        </CharString>
        <CharString name="idieresis.smcp">
          22 callgsubr
          95 99 hstemhm
          -19 138 -45 158 -50 139 -72 callgsubr
          hintmask 01101000
          108 124 -107 callgsubr
        </CharString>
        <CharString name="igrave">
          0 callsubr
          63 23 callgsubr
          -13 249 -159 157 -89 callsubr
          hintmask 00110000
          -153 770 -68 callsubr
        </CharString>
        <CharString name="igrave.smcp">
          22 callgsubr
          62 23 callgsubr
          9 249 -184 -46 callgsubr
          29 271 -68 callsubr
        </CharString>
        <CharString name="ij">
          24 5 callsubr
          106 116 hstemhm
          53 160 -130 157 141 52 callgsubr
          hintmask 00100100
          240 384 rmoveto
          hintmask 01000100
          -95 callsubr
          hintmask 00011000
          -187 642 -91 callsubr
          hintmask 00000000
          482 -258 rmoveto
          hintmask 10100010
          -82 callsubr
          hintmask 11000010
          -34 callsubr
        </CharString>
        <CharString name="ij.smcp">
          167 62 callgsubr
          hstemhm
          74 158 285 158 hintmask 01100000
          -81 callsubr
          hintmask 11010000
          286 -412 -61 callsubr
          endchar
        </CharString>
        <CharString name="itilde">
          0 callsubr
          76 30 callsubr
          -56 376 -243 157 -89 callsubr
          hintmask 00000000
          -101 572 -91 callgsubr
          hintmask 00110000
          -94 callsubr
        </CharString>
        <CharString name="itilde.smcp">
          22 callgsubr
          75 30 callsubr
          -33 376 -269 158 -72 callgsubr
          hintmask 00000000
          82 73 -91 callgsubr
          hintmask 01100000
          -94 callsubr
        </CharString>
        <CharString name="j">
          -265 5 callsubr
          106 116 hstemhm
          56 160 -124 52 callgsubr
          hintmask 10100100
          246 -40 callsubr
          -34 callsubr
        </CharString>
        <CharString name="j.smcp">
          -139 62 callgsubr
          hstem
          211 59 callgsubr
          54 139 -61 callsubr
          endchar
        </CharString>
        <CharString name="jcircumflex">
          -276 5 callsubr
          66 203 hstemhm
          -28 324 -213 52 callgsubr
          hintmask 10100100
          237 -40 callsubr
          -8 522 -90 callgsubr
        </CharString>
        <CharString name="jcircumflex.smcp">
          -139 62 callgsubr
          65 203 hstemhm
          129 324 -242 158 hintmask 11001000
          54 139 -61 callsubr
          hintmask 00110000
          332 464 -90 callgsubr
        </CharString>
        <CharString name="k">
          -46 200 76 callsubr
          hstem
          60 71 callsubr
          -69 callsubr
          endchar
        </CharString>
        <CharString name="k.smcp">
          7 220 126 205 -20 27 -20 hstemhm
          72 17 callgsubr
          hintmask 10110000
          -66 callsubr
          hlineto
          hintmask 11010000
          -36 callsubr
          endchar
        </CharString>
        <CharString name="kcommaaccent">
          -46 -23 callgsubr
          251 76 callsubr
          hstemhm
          60 152 11 134 hintmask 00011100
          -69 callsubr
          hintmask 11100010
          -122 -185 -94 callgsubr
        </CharString>
        <CharString name="kcommaaccent.smcp">
          0 -23 callgsubr
          271 126 205 -20 27 -20 hstemhm
          72 158 16 134 hintmask 00000000
          hintmask 00010110
          -66 callsubr
          hlineto
          hintmask 00011010
          -36 callsubr
          hintmask 11100001
          -191 -97 -94 callgsubr
        </CharString>
        <CharString name="kgreenlandic">
          -46 200 76 callsubr
          3 -20 hstemhm
          60 152 51 callgsubr
          -57 callgsubr
          hlineto
          hintmask 10110000
          84 9 callgsubr
          56 callsubr
          -499 -30 callgsubr
          endchar
        </CharString>
        <CharString name="kgreenlandic.smcp">
          7 220 126 212 -20 hstem
          72 59 callgsubr
          -66 callsubr
          118 hlineto
          1 callsubr
          -66 -37 callsubr
          -551 vlineto
          -4 23 32 -2 84 callsubr
          29 2 4 22 -6 callsubr
          endchar
        </CharString>
        <CharString name="l">
          -256 -5 119 hstem
          59 71 callsubr
          -28 callsubr
          endchar
        </CharString>
        <CharString name="l.smcp">
          -86 -3 131 428 -20 hstem
          70 59 callgsubr
          -27 callgsubr
          endchar
        </CharString>
        <CharString name="ldot">
          -167 -5 119 191 117 hstemhm
          59 152 48 146 hintmask 10100000
          -28 callsubr
          hintmask 01010000
          -23 249 -62 callsubr
        </CharString>
        <CharString name="ldot.smcp">
          -76 -3 131 139 117 172 -20 hstemhm
          70 158 82 146 hintmask 10110000
          -27 callgsubr
          hintmask 01001000
          -151 197 -62 callsubr
        </CharString>
        <CharString name="less">
          -39 554 -20 hstem
          45 163 vstem
          51 358 rmoveto
          -9 -36 1 -49 8 -33 354 -197 rcurveline
          38 20 30 53 4 49 -184 94 rcurveline
          -20 11 -44 18 -21 7 rrcurveto
          8 vlineto
          21 7 44 18 20 11 184 94 rcurveline
          -2 49 -30 50 -39 22 rrcurveto
          endchar
        </CharString>
        <CharString name="logicalnot">
          -39 242 64 callgsubr
          346 133 vstem
          48 367 rmoveto
          -6 -21 -1 -29 -13 vvcurveto
          -13 1 -28 6 -21 vhcurveto
          230 hlineto
          25 20 1 24 hhcurveto
          -21 -1 -20 -22 vvcurveto
          -55 70 callsubr
          20 -1 23 hhcurveto
          22 21 1 5 21 hvcurveto
          235 vlineto
          -7 7 rlineto
          endchar
        </CharString>
        <CharString name="lslash">
          -204 -5 119 384 -20 hstem
          95 151 vstem
          291 114 rmoveto
          -32 -13 17 30 hvcurveto
          176 vlineto
          89 44 8 40 -1 44 -10 27 rlinecurve
          -11 6 -75 -37 rlineto
          181 9 callgsubr
          -7 callsubr
          -342 vlineto
          -81 -40 -8 -40 1 -44 10 -27 rlinecurve
          11 -5 67 32 rlineto
          -129 10 callsubr
          2 10 1 66 callsubr
          endchar
        </CharString>
        <CharString name="lslash.smcp">
          -67 -3 131 428 -20 hstem
          90 59 callgsubr
          248 458 rmoveto
          70 -32 28 -60 vhcurveto
          -60 -6 callgsubr
          -229 vlineto
          -72 -21 -8 -39 1 -49 9 -24 rlinecurve
          12 -6 58 18 rlineto
          -114 vlineto
          -54 34 -35 57 vhcurveto
          194 hlineto
          57 37 11 callgsubr
          -140 hlineto
          -26 -33 -2 -3 -34 hvcurveto
          122 vlineto
          135 43 7 40 -1 48 -9 24 rlinecurve
          -12 6 -120 -41 rlineto
          endchar
        </CharString>
        <CharString name="m">
          239 368 140 hstemhm
          60 156 111 157 111 156 cntrmask 01110000
          hintmask 00000000
          hintmask 11110000
          327 301 rmoveto
          -301 -51 callsubr
          333 vlineto
          21 21 24 14 19 hhcurveto
          21 26 -13 -53 -24 callsubr
          -7 35 39 vvcurveto
          224 vlineto
          91 -45 68 -88 -55 -56 -31 -38 -43 vhcurveto
          42 -22 -40 27 -55 hhcurveto
          -52 -47 -29 -36 -39 hvcurveto
          40 -13 -28 23 -43 hhcurveto
          -58 -39 callsubr
          21 20 24 13 21 1 rrcurveto
          22 23 -14 -53 hvcurveto
          endchar
        </CharString>
        <CharString name="m.smcp">
          190 2 -20 103 125 188 153 hstem
          50 659 vstem
          50 2 rmoveto
          -5 21 29 -3 31 hhcurveto
          23 26 2 4 21 hvcurveto
          14 176 rlineto
          5 70 -2 94 58 vvcurveto
          7 hlineto
          73 -313 rlineto
          -4 21 38 -2 22 hhcurveto
          21 38 2 4 23 hvcurveto
          73 313 rlineto
          6 hlineto
          1 -57 -3 -96 6 -68 14 -177 rcurveline
          -4 21 28 -2 23 hhcurveto
          31 28 3 5 20 hvcurveto
          -57 549 rlineto
          6 -30 -44 29 callsubr
          -24 -43 -2 -6 -31 hvcurveto
          -49 -217 -6 -27 -8 -46 -8 -51 rlinecurve
          -7 hlineto
          -7 51 -9 47 -6 26 -49 217 rcurveline
          6 -27 -46 2 -25 hhcurveto
          -26 -42 -2 -6 -32 hvcurveto
          endchar
        </CharString>
        <CharString name="macron">
          572 111 hstemhm
          46 307 27 callsubr
          353 572 rmoveto
          5 20 2 15 22 vvcurveto
          23 -2 10 69 callgsubr
          -307 hlineto
          -6 -21 -2 -15 -20 vvcurveto
          -21 2 -14 6 -20 vhcurveto
          endchar
        </CharString>
        <CharString name="mu">
          -17 -198 -21 210 131 377 -20 hstem
          59 154 119 157 vstem
          489 499 rmoveto
          4 -23 -29 9 callsubr
          -30 -2 -4 -22 hvcurveto
          -346 vlineto
          -20 -17 -20 -11 -24 hhcurveto
          -39 -18 27 39 -1 hvcurveto
          311 vlineto
          4 -23 -27 6 callgsubr
          -585 vlineto
          -24 -4 -48 -21 -29 vhcurveto
          -20 26 30 -12 38 hhcurveto
          65 10 45 61 hvcurveto
          116 vlineto
          -7 15 17 -5 18 hhcurveto
          46 36 23 36 23 hvcurveto
          23 -35 37 -22 51 -1 -1 callsubr
          30 32 vvcurveto
          endchar
        </CharString>
        <CharString name="multiply">
          -39 506 -20 21 -20 hstemhm
          57 415 hintmask 00000000
          hintmask 01100000
          222 167 rmoveto
          42 42 43 -42 74 -75 19 9 20 13 15 16 rlinecurve
          15 15 12 18 10 20 -75 74 rcurveline
          -43 42 43 42 rlineto
          hintmask 10100000
          75 75 -10 19 -13 19 -15 15 rlinecurve
          -16 15 -18 14 -19 8 -74 -74 rcurveline
          -15 -15 -13 -14 -15 -14 rrcurveto
          hintmask 01100000
          -42 44 -75 74 -19 -8 -18 -14 -16 -15 rlinecurve
          -15 -15 -13 -20 -9 -19 75 -74 rcurveline
          15 -15 14 -13 14 -15 -43 -43 rcurveline
          -75 -73 9 -20 13 -18 16 -15 rlinecurve
          15 -16 18 -13 19 -10 rrcurveto
          endchar
        </CharString>
        <CharString name="n">
          61 callgsubr
          hstemhm
          60 156 117 51 callsubr
          hintmask 01110000
          -3 callgsubr
          hintmask 10110000
          38 -13 -27 22 -42 hhcurveto
          -59 -39 callsubr
          24 26 28 10 20 hhcurveto
          34 9 -21 -45 -24 callsubr
          -6 35 39 vvcurveto
          endchar
        </CharString>
        <CharString name="n.smcp">
          39 callgsubr
          hstemhm
          72 145 202 150 hintmask 00000000
          hintmask 01110000
          -53 callgsubr
          hintmask 10110000
          -86 callgsubr
          endchar
        </CharString>
        <CharString name="nacute">
          -22 84 0 110 194 endchar
        </CharString>
        <CharString name="nacute.smcp">
          39 callgsubr
          55 23 callgsubr
          72 145 12 249 -59 -88 callgsubr
          hintmask 00101000
          -340 102 -98 callsubr
        </CharString>
        <CharString name="nbspace">
          -349 0 0 32 32 endchar
        </CharString>
        <CharString name="ncaron">
          61 callgsubr
          66 206 hstemhm
          60 156 -98 326 -111 -51 callgsubr
          hintmask 00101000
          -305 626 -100 callsubr
        </CharString>
        <CharString name="ncaron.smcp">
          39 callgsubr
          68 206 hstemhm
          72 145 -57 326 -67 -88 callgsubr
          hintmask 00101000
          -342 252 -100 callsubr
        </CharString>
        <CharString name="nine">
          -39 -15 122 105 125 211 115 hstem
          32 154 150 162 vstem
          259 663 rmoveto
          -122 -105 -83 -149 -154 73 -65 108 49 41 16 24 32 hvcurveto
          -87 -5 -35 -58 -83 hhcurveto
          -40 -34 9 11 -27 hvcurveto
          -29 -25 -18 -42 -3 -40 rrcurveto
          -21 41 55 -14 68 hhcurveto
          173 100 129 216 178 -46 55 -19 24 hvcurveto
          25 -19 -50 51 -105 hhcurveto
          -5 -326 rmoveto
          -43 -25 29 75 61 20 46 51 24 16 -13 -14 11 hvcurveto
          19 -24 9 -49 -70 vvcurveto
          -10 vlineto
          -20 -25 -27 -11 -30 hhcurveto
          endchar
        </CharString>
        <CharString name="nine.smcp">
          -87 -15 113 89 116 154 109 hstem
          32 150 112 157 vstem
          236 566 rmoveto
          -114 -90 -71 -129 -105 46 -74 113 38 34 9 18 31 hvcurveto
          -73 -4 -30 -43 -67 hhcurveto
          -32 -36 10 7 -22 hvcurveto
          -27 -24 -16 -35 -5 -41 rrcurveto
          -17 37 62 -13 49 hhcurveto
          156 92 105 180 100 -14 90 -58 56 hvcurveto
          32 -32 -48 18 -63 hhcurveto
          -4 -263 rmoveto
          -35 -15 29 50 49 19 26 33 21 13 -11 -11 8 hvcurveto
          11 -16 8 -33 -51 vvcurveto
          -16 vlineto
          -10 -20 -21 -6 -22 hhcurveto
          endchar
        </CharString>
        <CharString name="ntilde">
          61 callgsubr
          66 30 callsubr
          60 156 -123 376 -136 -51 callgsubr
          hintmask 00000000
          -208 447 -98 callgsubr
        </CharString>
        <CharString name="ntilde.smcp">
          39 callgsubr
          68 30 callsubr
          72 145 -82 376 -92 -88 callgsubr
          hintmask 00000000
          -245 73 -98 callgsubr
        </CharString>
        <CharString name="numbersign">
          149 1 11 120 123 153 123 120 11 hstem
          18 686 vstem
          466 531 rmoveto
          -119 55 callsubr
          -27 -120 rlineto
          -130 hlineto
          -13 -35 0 -52 13 -36 rrcurveto
          102 hlineto
          -34 -153 rlineto
          -122 hlineto
          -12 -35 0 -52 12 -36 rrcurveto
          95 32 callgsubr
          119 32 callgsubr
          128 hlineto
          12 36 0 52 -12 35 rrcurveto
          -101 hlineto
          34 153 rlineto
          120 hlineto
          13 36 0 52 -13 35 rrcurveto
          -92 55 callsubr
          -174 -243 rmoveto
          119 hlineto
          -34 -153 rlineto
          -119 hlineto
          endchar
        </CharString>
        <CharString name="o">
          37 callgsubr
          hstem
          30 160 141 161 vstem
          -77 callgsubr
          endchar
        </CharString>
        <CharString name="o.smcp">
          -8 callgsubr
          hstem
          31 162 221 161 vstem
          -101 callsubr
          endchar
        </CharString>
        <CharString name="oacute">
          37 callgsubr
          79 callsubr
          30 160 -22 249 -86 28 callgsubr
          -77 callgsubr
          hintmask 00101000
          -22 351 -98 callsubr
        </CharString>
        <CharString name="oacute.smcp">
          -8 callgsubr
          50 callsubr
          17 249 -45 -89 callgsubr
          hintmask 00101000
          179 378 -98 callsubr
        </CharString>
        <CharString name="ocircumflex">
          78 callsubr
          195 endchar
        </CharString>
        <CharString name="ocircumflex.smcp">
          -8 callgsubr
          30 203 17 callsubr
          -51 324 -52 -89 callgsubr
          hintmask 00101000
          368 328 -90 callgsubr
        </CharString>
        <CharString name="odieresis">
          78 callsubr
          200 endchar
        </CharString>
        <CharString name="odieresis.smcp">
          -8 callgsubr
          60 99 17 callsubr
          -64 2 callgsubr
          -55 161 hintmask 11010010
          -101 callsubr
          hintmask 00101100
          299 400 -107 callgsubr
        </CharString>
        <CharString name="oe">
          231 -15 117 97 108 90 117 -111 111 hstemhm
          30 160 141 168 128 144 hintmask 00000000
          hintmask 11011110
          757 199 rmoveto
          10 33 4 22 callsubr
          -76 91 -131 -70 -48 -23 -38 -33 vhcurveto
          38 -34 -50 23 -68 hhcurveto
          -63 41 callgsubr
          -54 -52 -18 -66 -87 vvcurveto
          -88 18 -65 54 -53 vhcurveto
          -41 41 55 -18 63 hhcurveto
          67 48 22 36 34 hvcurveto
          -36 31 48 -22 74 hhcurveto
          70 74 21 37 50 hvcurveto
          -4 30 40 callsubr
          -16 -41 -42 -14 -45 hhcurveto
          -66 -18 41 54 -4 hvcurveto
          -310 51 rmoveto
          hintmask 11101110
          -9 callgsubr
          vhcurveto
          hintmask 11011110
          -62 -9 65 83 hvcurveto
          374 153 rmoveto
          46 17 -39 -46 hvcurveto
          -11 -128 vlineto
          65 3 17 31 45 hhcurveto
          endchar
        </CharString>
        <CharString name="oe.smcp">
          279 -2 127 91 123 85 127 hstem
          393 151 vstem
          813 83 callgsubr
          -199 hlineto
          -30 -17 -1 -1 -24 hvcurveto
          16 1 29 16 vvcurveto
          32 64 vlineto
          132 hlineto
          7 18 2 27 18 callsubr
          26 -7 18 vhcurveto
          -132 hlineto
          -13 -26 0 -1 -25 hvcurveto
          28 vlineto
          15 -1 26 17 vvcurveto
          65 hlineto
          179 hlineto
          9 23 3 24 -3 callsubr
          0 21 -4 23 vhcurveto
          -339 hlineto
          7 -45 -58 8 -46 hhcurveto
          -84 -51 -22 -31 -42 hvcurveto
          -76 -55 -23 -98 -83 vvcurveto
          -83 23 -100 76 -56 vhcurveto
          -31 42 51 -22 84 hhcurveto
          43 54 6 7 44 hvcurveto
          268 7 callgsubr
          39 callsubr
          20 13 vvcurveto
          -506 -20 rmoveto
          -99 -12 94 78 76 12 94 99 28 29 -6 -8 29 hvcurveto
          -315 vlineto
          -8 -29 -30 -5 -27 hhcurveto
          endchar
        </CharString>
        <CharString name="ograve">
          78 callsubr
          193 endchar
        </CharString>
        <CharString name="ograve.smcp">
          -8 callgsubr
          50 callsubr
          -36 249 8 -89 callgsubr
          hintmask 00101000
          220 547 -68 callsubr
        </CharString>
        <CharString name="one">
          -39 0 128 520 -20 hstem
          219 71 callsubr
          28 446 rmoveto
          6 -39 29 -38 30 -13 45 19 50 31 38 42 rrcurveto
          -2 -42 -5 -47 -27 vvcurveto
          -131 vlineto
          -24 1 -25 -25 vvcurveto
          -16 -34 1 -14 hhcurveto
          -81 hlineto
          -5 -19 -3 -24 -21 vvcurveto
          -21 3 -23 5 -20 vhcurveto
          417 hlineto
          5 19 3 24 21 vvcurveto
          21 -3 24 -5 19 vhcurveto
          -54 hlineto
          -15 -37 -1 -16 hhcurveto
          25 1 25 24 vvcurveto
          447 vlineto
          5 -27 -24 1 -22 hhcurveto
          -22 -24 -1 -5 -28 hvcurveto
          -37 -76 -59 -64 -100 -62 rrcurveto
          endchar
        </CharString>
        <CharString name="one.smcp">
          -87 0 123 428 -20 hstem
          193 151 vstem
          27 383 rmoveto
          6 -37 24 -38 32 -14 44 19 38 24 30 32 rrcurveto
          -3 -36 -5 -37 -22 vvcurveto
          -89 vlineto
          -20 1 -24 -20 vvcurveto
          -15 -33 2 -13 hhcurveto
          -64 hlineto
          -5 -17 -3 -24 -21 vvcurveto
          -21 3 -22 5 -18 vhcurveto
          376 hlineto
          5 17 2 23 54 callsubr
          24 -5 17 vhcurveto
          -36 hlineto
          -14 -39 -2 -13 hhcurveto
          20 1 24 20 vvcurveto
          366 vlineto
          4 -25 -24 1 -22 hhcurveto
          -21 -27 -1 68 callsubr
          -36 -69 -45 -47 -91 -52 rrcurveto
          endchar
        </CharString>
        <CharString name="onehalf">
          485 0 -20 26 114 113 112 1 -20 25 115 hstemhm
          161 126 -2 528 50 136 hintmask 10000010
          285 hmoveto
          -30 callsubr
          hintmask 00100100
          -637 -148 -77 callsubr
          hintmask 00000000
          986 -415 3 callgsubr
          hintmask 01010001
          83 -62 59 -96 vhcurveto
          hintmask 01001001
          -83 -60 -54 -66 -13 hvcurveto
          hintmask 01010001
          -25 callgsubr
          hintmask 01001001
          75 callgsubr
        </CharString>
        <CharString name="onequarter">
          485 0 -20 95 106 52 112 hstemhm
          161 126 9 528 19 123 hintmask 00110000
          26 535 -77 callsubr
          hintmask 10001000
          270 -535 rmoveto
          -30 callsubr
          hintmask 01000100
          169 -675 rmoveto
          -5 21 24 -33 callsubr
          17 22 1 5 20 hvcurveto
          69 vlineto
          8 15 -1 9 hhcurveto
          15 hlineto
          6 22 3 21 24 vvcurveto
          14 -1 11 -3 14 vhcurveto
          -52 hlineto
          20 1 34 21 vvcurveto
          44 vlineto
          -5 4 rlineto
          -29 hlineto
          -57 -33 -35 -58 hvcurveto
          -23 vlineto
          -8 vlineto
          -20 -25 -2 -2 -17 hvcurveto
          -2 2 26 32 35 72 16 37 rlinecurve
          52 114 -28 19 -57 12 -39 -4 rlinecurve
          -114 -258 rlineto
          -4 -9 -10 -22 -18 vvcurveto
          -21 12 -32 16 -26 vhcurveto
          104 hlineto
          23 11 2 22 hhcurveto
          -21 -1 -9 -22 vvcurveto
          endchar
        </CharString>
        <CharString name="onesuperior">
          -149 319 112 hstem
          169 126 vstem
          34 621 -77 callsubr
          endchar
        </CharString>
        <CharString name="ordfeminine">
          -112 271 94 87 81 67 98 hstem
          39 125 92 137 vstem
          420 345 rmoveto
          -21 9 -6 20 26 vvcurveto
          159 vlineto
          102 -78 37 -70 -55 -76 -15 -22 -55 vhcurveto
          2 -31 10 -32 20 -21 rrcurveto
          13 44 34 10 39 hhcurveto
          22 26 -12 -33 hvcurveto
          -24 vlineto
          1 -21 -20 1 -14 hhcurveto
          -88 -74 -42 -96 -65 47 -59 80 50 38 22 25 29 hvcurveto
          -26 21 31 -16 38 hhcurveto
          23 12 21 31 3 26 rrcurveto
          -216 20 rmoveto
          -24 -16 17 21 30 16 19 33 12 15 -1 -1 16 hvcurveto
          -40 vlineto
          -8 0 -8 1 -7 vhcurveto
          -14 -18 -19 -8 -16 hhcurveto
          endchar
        </CharString>
        <CharString name="ordmasculine">
          -113 270 98 232 98 hstem
          41 129 116 129 vstem
          415 484 rmoveto
          65 -16 59 -45 44 vhcurveto
          31 -30 -47 15 -49 hhcurveto
          -51 -45 -15 -31 -30 hvcurveto
          -45 -44 -16 -59 -65 vvcurveto
          -64 16 -60 45 -44 vhcurveto
          -31 30 45 -15 51 hhcurveto
          49 47 15 31 30 hvcurveto
          45 44 16 60 64 vvcurveto
          -245 hmoveto
          70 14 46 44 43 15 -46 -70 -69 -15 -47 -43 -44 -14 47 69 vhcurveto
          endchar
        </CharString>
        <CharString name="oslash">
          -44 -15 110 309 110 -13 -20 80 -20 hstemhm
          32 144 173 145 hintmask 00000000
          hintmask 11011100
          494 251 rmoveto
          78 -17 74 -54 52 vhcurveto
          -1 hlineto
          36 63 -22 22 -27 13 -28 8 rlinecurve
          hintmask 10111100
          -34 -60 rlineto
          hintmask 11011100
          9 -26 -28 4 -30 hhcurveto
          -64 41 callgsubr
          -54 -52 -17 -74 -78 vvcurveto
          -79 17 -75 53 -53 vhcurveto
          -36 -62 19 -21 30 -15 29 -6 rlinecurve
          34 58 rlineto
          -9 26 28 -4 31 hhcurveto
          63 55 18 41 42 hvcurveto
          54 53 17 75 79 vvcurveto
          -145 hmoveto
          -80 -13 -76 -73 -11 -10 2 3 -8 vhcurveto
          111 213 rlineto
          3 -20 1 -21 -21 vvcurveto
          -173 hmoveto
          79 13 74 74 10 10 -2 -3 8 vhcurveto
          -111 -212 rlineto
          -3 20 -1 22 22 vvcurveto
          endchar
        </CharString>
        <CharString name="oslash.smcp">
          38 -15 107 -85 -20 472 107 hstemhm
          31 153 238 153 hintmask 00000000
          hintmask 10111000
          31 275 rmoveto
          hintmask 01111000
          -69 16 -78 47 -58 vhcurveto
          -46 -63 rlineto
          hintmask 10111000
          17 -25 34 -22 29 -9 43 59 rcurveline
          -16 34 40 -9 58 hhcurveto
          83 50 19 31 40 hvcurveto
          76 58 23 98 84 vvcurveto
          71 -17 81 -50 58 vhcurveto
          46 64 -20 26 -32 20 -28 10 rlinecurve
          -45 -62 rlineto
          15 -33 -39 8 -54 hhcurveto
          -83 -49 -21 -31 -41 hvcurveto
          -5 callgsubr
          391 hmoveto
          -82 -15 -101 -103 -26 -20 6 10 -16 vhcurveto
          173 246 rlineto
          5 -26 2 -28 -25 vvcurveto
          -238 hmoveto
          80 17 104 103 22 18 -5 -9 15 vhcurveto
          -169 -241 rlineto
          -4 23 -2 25 23 vvcurveto
          endchar
        </CharString>
        <CharString name="otilde">
          37 callgsubr
          40 30 callsubr
          30 160 -117 376 -118 28 callgsubr
          -77 callgsubr
          hintmask 00000000
          72 322 -98 callgsubr
        </CharString>
        <CharString name="otilde.smcp">
          -8 callgsubr
          40 118 17 callsubr
          -78 376 -77 -89 callgsubr
          hintmask 00000000
          273 349 -98 callgsubr
        </CharString>
        <CharString name="p">
          -31 49 callsubr
          116 283 125 -8 -20 hstemhm
          60 153 133 160 hintmask 00000000
          hintmask 01101110
          506 256 rmoveto
          hintmask 01110110
          151 -58 107 -122 -52 -47 -23 -34 -34 vhcurveto
          hintmask 01101110
          31 -18 -30 18 -37 hhcurveto
          -41 -37 callsubr
          -708 vlineto
          7 -7 rlineto
          hintmask 10101110
          60 hlineto
          62 24 24 70 hvcurveto
          133 vlineto
          -12 27 30 -9 35 hhcurveto
          hintmask 01101110
          110 91 94 172 hvcurveto
          hintmask 01110110
          -220 133 rmoveto
          35 25 -40 -92 -93 -20 -58 -48 -19 -23 9 14 -23 hvcurveto
          220 vlineto
          32 25 28 8 20 hhcurveto
          endchar
        </CharString>
        <CharString name="p.smcp">
          -35 170 117 151 118 hstem
          72 158 119 161 vstem
          510 362 rmoveto
          136 -95 58 -131 -69 -83 -3 -1 -54 vhcurveto
          2 callsubr
          -546 vlineto
          -70 callsubr
          170 54 vlineto
          130 96 61 131 hvcurveto
          -280 77 rmoveto
          -1 23 2 0 16 hhcurveto
          67 11 -45 -30 -32 -11 -44 -67 -7 -16 0 -1 -18 hvcurveto
          endchar
        </CharString>
        <CharString name="paragraph">
          182 -159 117 591 134 hstem
          276 156 61 59 callgsubr
          276 64 rmoveto
          -43 -7 -24 -15 -16 vhcurveto
          -18 -17 -24 -5 -27 hhcurveto
          -33 -36 10 10 -31 hvcurveto
          -22 -31 -11 -53 1 -29 rrcurveto
          -12 33 55 -12 59 hhcurveto
          74 66 19 45 40 hvcurveto
          43 48 8 62 80 vvcurveto
          582 vlineto
          -7 7 rlineto
          2 -57 -44 3 -51 hhcurveto
          -142 -105 -63 -162 -155 106 -73 132 hvcurveto
          12 hlineto
          217 -366 rmoveto
          -6 25 36 -1 20 hhcurveto
          21 30 1 6 26 hvcurveto
          681 vlineto
          -1 18 18 -1 18 hhcurveto
          27 hlineto
          10 30 0 74 -10 30 rrcurveto
          -232 -37 callsubr
          endchar
        </CharString>
        <CharString name="parenleft">
          -194 -198 1041 hstem
          59 162 vstem
          221 322 rmoveto
          145 43 167 91 128 vhcurveto
          -19 41 -35 28 -36 12 rrcurveto
          -138 -131 -68 -212 -178 vvcurveto
          -177 68 -213 138 -130 vhcurveto
          36 12 35 28 19 41 rrcurveto
          -91 128 -43 167 144 vvcurveto
          endchar
        </CharString>
        <CharString name="parenright">
          -194 -198 1041 hstem
          154 162 vstem
          154 322 rmoveto
          -144 -43 -167 -92 -128 vhcurveto
          20 -41 35 -28 35 -12 rrcurveto
          139 130 68 213 177 vvcurveto
          178 -68 212 -139 131 vhcurveto
          -35 -12 -35 -28 -20 -41 rrcurveto
          92 -128 43 -167 -145 vvcurveto
          endchar
        </CharString>
        <CharString name="percent">
          421 -13 95 -82 -20 282 95 -31 95 180 95 hstemhm
          44 126 93 125 214 125 93 126 hintmask 0000000000000000
          hintmask 0110111110000000
          946 204 rmoveto
          hintmask 1001111110000000
          63 -10 67 -43 42 vhcurveto
          32 -31 -40 13 -48 hhcurveto
          -49 -39 -13 -32 -33 hvcurveto
          -41 -42 -10 -67 -63 vvcurveto
          -63 9 -68 42 -41 vhcurveto
          -33 32 40 -12 49 hhcurveto
          48 40 12 33 31 hvcurveto
          hintmask 0110111110000000
          44 41 9 68 63 vvcurveto
          hintmask 1001111110000000
          -219 hmoveto
          68 5 54 42 42 4 -54 -68 -67 -4 -55 -42 -42 -5 55 67 vhcurveto
          -339 276 rmoveto
          62 -10 68 -42 41 vhcurveto
          32 -32 -39 13 -49 hhcurveto
          -48 -39 -13 -32 -33 hvcurveto
          -42 -41 -10 -68 -62 vvcurveto
          hintmask 0110111110000000
          -63 10 -68 42 -42 vhcurveto
          -33 32 40 -12 48 hhcurveto
          49 40 12 33 31 hvcurveto
          hintmask 1001111110000000
          43 42 9 68 63 vvcurveto
          hintmask 0110111110000000
          -218 hmoveto
          67 4 54 42 43 4 -54 -67 -68 -4 -55 -43 -42 -4 55 68 vhcurveto
          61 -480 rmoveto
          24 -7 84 -3 42 10 378 683 rcurveline
          -25 7 -84 3 -41 -10 rrcurveto
          endchar
        </CharString>
        <CharString name="period">
          -282 8 121 hstem
          53 169 vstem
          53 68 rmoveto
          -76 callsubr
          endchar
        </CharString>
        <CharString name="periodcentered">
          -240 227 121 hstem
          80 159 vstem
          80 287 rmoveto
          -12 3 -30 8 -18 vhcurveto
          -13 19 30 -6 24 hhcurveto
          25 31 6 13 19 hvcurveto
          8 1 callgsubr
          -8 19 vhcurveto
          11 -19 -31 7 -25 hhcurveto
          -24 -30 -7 -11 -19 hvcurveto
          -8 -19 -3 -30 -12 vvcurveto
          endchar
        </CharString>
        <CharString name="plus">
          -39 237 125 152 -20 hstem
          199 132 vstem
          199 430 rmoveto
          -26 1 -20 -23 vvcurveto
          -24 -20 1 -24 hhcurveto
          -79 hlineto
          -5 -20 -2 -21 -22 vvcurveto
          -22 2 -21 5 -19 vhcurveto
          79 hlineto
          24 20 1 24 hhcurveto
          -24 -1 -19 -25 vvcurveto
          -85 vlineto
          -5 23 23 -1 22 hhcurveto
          22 19 1 5 23 hvcurveto
          85 vlineto
          25 -1 19 24 vvcurveto
          24 19 -1 25 hhcurveto
          79 hlineto
          5 20 2 20 22 vvcurveto
          22 -2 18 -5 23 vhcurveto
          -79 hlineto
          -25 -19 -1 -24 hhcurveto
          23 1 20 26 vvcurveto
          84 vlineto
          5 -23 -21 1 -22 hhcurveto
          -22 -21 -1 -5 -23 hvcurveto
          endchar
        </CharString>
        <CharString name="plusminus">
          -39 0 117 192 112 131 -20 hstem
          201 129 vstem
          201 492 rmoveto
          -26 1 -22 -24 vvcurveto
          -23 -20 1 -24 hhcurveto
          -72 hlineto
          -4 -22 -1 -12 -21 vvcurveto
          -22 1 -12 4 -23 vhcurveto
          72 hlineto
          24 20 1 23 hhcurveto
          -24 -1 -22 -24 vvcurveto
          -61 vlineto
          -5 22 22 -1 21 hhcurveto
          21 21 1 5 22 hvcurveto
          61 vlineto
          24 -1 22 24 vvcurveto
          22 20 -1 24 hhcurveto
          72 hlineto
          4 23 1 12 22 vvcurveto
          21 -1 12 -4 22 vhcurveto
          -72 hlineto
          -24 -20 -1 -22 hhcurveto
          24 1 22 26 vvcurveto
          60 vlineto
          5 -22 -21 1 -21 hhcurveto
          -21 -22 -1 -5 -22 hvcurveto
          266 -552 rmoveto
          4 22 1 15 22 vvcurveto
          22 -1 13 -4 23 vhcurveto
          -404 hlineto
          -4 -23 -1 -13 -22 vvcurveto
          -22 1 -15 4 -22 vhcurveto
          endchar
        </CharString>
        <CharString name="q">
          -30 49 callsubr
          48 callsubr
          133 75 callsubr
          hintmask 10101110
          325 -122 rmoveto
          -70 23 -24 61 vhcurveto
          61 hlineto
          7 7 rlineto
          564 vlineto
          32 12 28 16 12 vhcurveto
          -6 28 -22 37 -19 15 -41 -1 -32 -14 -22 -24 rrcurveto
          hintmask 01110110
          25 -30 -42 66 callgsubr
          38 callsubr
          41 40 14 24 32 hvcurveto
          -74 88 rmoveto
          -34 -25 39 93 93 20 57 48 19 23 -12 -21 23 hvcurveto
          -8 vlineto
          -208 vlineto
          -22 -22 -27 -11 -25 hhcurveto
          endchar
        </CharString>
        <CharString name="q.smcp">
          39 -120 111 -6 116 349 116 17 callsubr
          221 161 hintmask 00000000
          hintmask 01111000
          31 275 rmoveto
          -17 callgsubr
          56 -19 84 hhcurveto
          3 hlineto
          hintmask 10111000
          66 -60 rlineto
          -40 41 37 -5 27 hhcurveto
          56 46 37 74 4 hvcurveto
          -29 2 -48 -2 -53 44 20 11 17 15 16 18 rrcurveto
          49 57 12 67 72 -63 callgsubr
          hintmask 01111000
          -5 callgsubr
          162 hmoveto
          -58 callsubr
          endchar
        </CharString>
        <CharString name="question">
          -149 2 134 429 134 hstemhm
          81 148 -138 126 34 163 hintmask 00000000
          hintmask 11100000
          1 641 rmoveto
          2 -40 25 -50 30 -22 rrcurveto
          hintmask 11011000
          20 34 39 16 41 hhcurveto
          52 27 -27 -39 -45 -42 -29 -54 -26 hvcurveto
          -56 -25 -12 -15 9 -149 rlineto
          -6 19 23 -2 18 hhcurveto
          19 20 2 6 18 hvcurveto
          10 76 60 32 rlineto
          75 39 56 59 100 vvcurveto
          106 -71 77 -136 -79 -71 -25 -33 -56 vhcurveto
          155 -505 rmoveto
          -27 -28 -6 -10 -20 hvcurveto
          -6 -13 -4 -28 -19 vvcurveto
          -18 4 -27 6 -13 vhcurveto
          -11 20 28 -5 27 hhcurveto
          27 28 5 11 18 hvcurveto
          8 13 4 44 callsubr
          19 -4 28 -8 13 vhcurveto
          10 -18 80 callsubr
          endchar
        </CharString>
        <CharString name="questiondown">
          -149 -203 134 428 134 hstemhm
          14 163 21 148 -136 126 51 callgsubr
          426 -145 rmoveto
          -2 39 -24 50 -30 22 rrcurveto
          hintmask 11101000
          -19 -35 -38 -16 -41 hhcurveto
          -52 -27 26 39 45 42 30 54 25 hvcurveto
          55 25 13 16 -9 149 rlineto
          5 -19 -23 2 -18 hhcurveto
          -19 -20 -2 -5 -18 hvcurveto
          -10 -77 -60 -31 rlineto
          -75 -40 -56 -59 -100 vvcurveto
          -105 71 -77 136 78 72 24 34 55 vhcurveto
          -154 504 rmoveto
          27 28 6 11 19 hvcurveto
          7 12 4 18 callgsubr
          -4 28 -7 12 vhcurveto
          11 -19 80 callsubr
          -27 -28 -6 -11 -19 hvcurveto
          -7 73 callgsubr
          7 -12 vhcurveto
          -11 19 28 -6 27 hhcurveto
          endchar
        </CharString>
        <CharString name="quotedbl">
          -118 47 callsubr
          68 151 hintmask 00000000
          hintmask 01010000
          259 718 rmoveto
          hintmask 10010000
          -52 callgsubr
          hintmask 00000000
          -219 hmoveto
          hintmask 01100000
          -52 callgsubr
          endchar
        </CharString>
        <CharString name="quotedblbase">
          -66 -48 callgsubr
          hintmask 00000000
          235 hmoveto
          -67 callgsubr
          endchar
        </CharString>
        <CharString name="quotedblleft">
          -66 504 135 hstemhm
          36 166 27 callsubr
          48 504 rmoveto
          -66 callgsubr
          hintmask 00000000
          235 hmoveto
          -66 callgsubr
          endchar
        </CharString>
        <CharString name="quotedblright">
          -66 558 -20 105 134 hstemhm
          69 166 69 166 hintmask 11100000
          222 777 rmoveto
          -67 callsubr
          hintmask 11010000
          235 hmoveto
          -67 callsubr
          endchar
        </CharString>
        <CharString name="quoteleft">
          -301 504 135 hstemhm
          39 166 27 callsubr
          51 504 rmoveto
          -66 callgsubr
          endchar
        </CharString>
        <CharString name="quoteright">
          -301 558 -20 105 134 hstem
          64 166 vstem
          217 777 rmoveto
          -67 callsubr
          endchar
        </CharString>
        <CharString name="quotesinglbase">
          -301 -48 callgsubr
          endchar
        </CharString>
        <CharString name="quotesingle">
          -327 47 callsubr
          hintmask 00000000
          hintmask 01100000
          40 718 rmoveto
          hintmask 10100000
          -52 callgsubr
          endchar
        </CharString>
        <CharString name="r">
          -172 507 -20 hstem
          68 156 vstem
          -48 callsubr
          endchar
        </CharString>
        <CharString name="r.smcp">
          25 callgsubr
          hstem
          33 callsubr
          131 162 vstem
          -99 callsubr
          endchar
        </CharString>
        <CharString name="racute">
          -172 12 0 114 194 endchar
        </CharString>
        <CharString name="racute.smcp">
          25 callgsubr
          37 229 29 callgsubr
          -43 249 -75 -69 callgsubr
          -43 340 -98 callsubr
        </CharString>
        <CharString name="rcaron">
          -172 10 0 114 207 endchar
        </CharString>
        <CharString name="rcaron.smcp">
          25 callgsubr
          50 206 29 callgsubr
          -113 326 -82 -69 callgsubr
          -46 490 -100 callsubr
        </CharString>
        <CharString name="rcommaaccent">
          -172 -23 callgsubr
          558 -20 hstemhm
          68 156 -128 134 hintmask 00011000
          -48 callsubr
          hintmask 11100100
          189 -486 -94 callgsubr
        </CharString>
        <CharString name="rcommaaccent.smcp">
          1 -23 callgsubr
          246 119 128 114 29 callgsubr
          13 134 -16 162 hintmask 00011101
          -99 callsubr
          hintmask 11100010
          136 -372 -94 callgsubr
        </CharString>
        <CharString name="registered">
          33 196 82 158 59 49 58 60 82 hstem
          27 90 79 78 53 82 76 90 vstem
          27 470 rmoveto
          -154 119 -120 154 154 121 120 154 154 -121 120 -154 -154 -119 -120 -154 vhcurveto
          90 hmoveto
          105 78 87 105 106 79 -87 -105 -106 -79 -86 -106 -105 -78 86 106 vhcurveto
          292 59 rmoveto
          38 -26 35 -76 -32 -38 -2 -1 -38 vhcurveto
          -3 -2 rlineto
          -247 vlineto
          19 -6 41 0 18 6 rrcurveto
          86 6 vlineto
          16 5 -5 -12 6 hvcurveto
          21 -43 rlineto
          -21 11 12 -10 20 hhcurveto
          21 23 12 16 12 hvcurveto
          -11 6 -7 12 -6 12 -11 22 rcurveline
          -6 13 -10 16 -17 7 rrcurveto
          25 6 25 21 41 vvcurveto
          -135 15 rmoveto
          25 hlineto
          20 8 -11 -12 -14 -7 -12 -24 hvcurveto
          -22 hlineto
          endchar
        </CharString>
        <CharString name="ring">
          542 79 101 77 hstem
          58 83 callsubr
          vstem
          58 671 -68 callgsubr
        </CharString>
        <CharString name="ring.cap">
          660 77 102 77 hstem
          58 83 callsubr
          vstem
          58 788 -19 callsubr
        </CharString>
        <CharString name="s">
          24 callsubr
          hstem
          34 154 72 161 vstem
          -82 callgsubr
          endchar
        </CharString>
        <CharString name="s.smcp">
          -60 20 callsubr
          hstem
          33 61 callsubr
          vstem
          -93 callsubr
          endchar
        </CharString>
        <CharString name="sacute">
          24 callsubr
          79 callsubr
          34 154 -59 249 -118 -60 callgsubr
          109 567 -98 callsubr
        </CharString>
        <CharString name="sacute.smcp">
          -60 20 callsubr
          79 callsubr
          33 166 -34 249 -99 -60 callsubr
          148 612 -98 callsubr
        </CharString>
        <CharString name="scaron">
          24 callsubr
          40 206 hstemhm
          34 154 -128 326 -126 -60 callgsubr
          107 717 -100 callsubr
        </CharString>
        <CharString name="scaron.smcp">
          -60 20 callsubr
          40 206 hstemhm
          33 166 -104 326 -106 -60 callsubr
          145 762 -100 callsubr
        </CharString>
        <CharString name="section">
          -69 -118 113 590 113 -37 -20 hstemhm
          27 148 -116 154 76 153 -115 148 hintmask 00000000
          hintmask 11001010
          475 311 rmoveto
          92 -74 45 -90 38 vhcurveto
          -58 24 rlineto
          -26 10 -14 12 18 vvcurveto
          21 21 14 29 37 40 -13 -17 41 vhcurveto
          hintmask 10110010
          25 19 21 51 -3 36 rrcurveto
          hintmask 11001010
          20 -44 -63 17 -61 hhcurveto
          -120 -77 -73 -88 -52 25 -39 40 -29 hvcurveto
          hintmask 10110100
          -57 -37 -40 -51 -58 vvcurveto
          -92 74 -45 90 -38 vhcurveto
          57 -24 rlineto
          27 -11 14 -12 -19 vvcurveto
          -21 -21 -14 -30 -46 -51 19 16 -37 vhcurveto
          -25 -18 -20 -51 3 -37 rrcurveto
          -26 47 69 -16 62 hhcurveto
          126 76 73 88 51 -26 40 -40 29 hvcurveto
          hintmask 11001010
          58 37 41 52 59 vvcurveto
          -244 56 rmoveto
          56 -22 40 -25 -37 vvcurveto
          -29 -21 -26 -27 -17 vhcurveto
          -9 4 rlineto
          hintmask 10110100
          -60 24 -35 23 37 vvcurveto
          28 20 27 27 16 vhcurveto
          endchar
        </CharString>
        <CharString name="semicolon">
          -271 -8 136 189 121 hstemhm
          59 169 -156 166 hintmask 00000000
          hintmask 10010000
          -36 callgsubr
          hintmask 01100000
          -166 249 rmoveto
          -76 callsubr
          endchar
        </CharString>
        <CharString name="seven">
          -39 517 131 hstemhm
          44 453 -363 158 27 callsubr
          59 648 rmoveto
          -9 -21 -6 -29 -28 vvcurveto
          -18 3 -20 5 -15 vhcurveto
          158 hlineto
          28 76 5 8 34 hvcurveto
          5 -5 -19 -17 -34 -39 -11 -15 rlinecurve
          -13 -17 rlineto
          hintmask 10100000
          -70 -92 -58 -141 -12 -156 -4 -48 rcurveline
          -4 24 28 -2 28 hhcurveto
          30 27 2 4 21 hvcurveto
          4 46 12 151 43 122 88 122 rlinecurve
          39 54 rlineto
          13 19 8 24 15 vvcurveto
          26 -15 41 -13 28 vhcurveto
          endchar
        </CharString>
        <CharString name="seven.smcp">
          -87 425 126 hstemhm
          37 417 -338 156 27 callsubr
          51 551 rmoveto
          -8 -21 -6 -22 -28 vvcurveto
          -20 3 -20 5 -15 vhcurveto
          142 hlineto
          34 57 4 5 34 hvcurveto
          3 -4 -16 -16 -19 -18 -13 -15 rlinecurve
          -14 -17 rlineto
          hintmask 10100000
          -78 -90 -47 -106 -11 -144 -2 -24 rcurveline
          -5 24 30 -3 27 hhcurveto
          32 25 3 5 19 hvcurveto
          1 22 6 148 38 89 84 107 rlinecurve
          35 45 rlineto
          12 15 6 15 18 vvcurveto
          22 -14 41 -15 29 vhcurveto
          endchar
        </CharString>
        <CharString name="six">
          -39 -15 115 211 125 105 122 hstem
          32 162 150 154 vstem
          271 -15 rmoveto
          122 105 83 149 154 -73 65 -108 -50 -41 -17 -24 -32 hvcurveto
          88 5 36 58 83 hhcurveto
          40 34 -9 -11 27 hvcurveto
          29 25 18 42 3 40 rrcurveto
          21 -41 -55 14 -68 hhcurveto
          -173 -100 -129 -216 -178 46 -55 19 -24 hvcurveto
          -25 19 50 -51 105 hhcurveto
          5 326 rmoveto
          43 25 -29 -75 -61 -20 -46 -51 -24 -16 13 14 -11 hvcurveto
          -19 24 -9 49 70 vvcurveto
          10 vlineto
          20 25 27 11 30 hhcurveto
          endchar
        </CharString>
        <CharString name="six.smcp">
          -87 -15 110 154 115 89 113 hstem
          32 156 113 149 vstem
          247 -15 rmoveto
          114 89 71 129 105 -45 74 -113 -39 -34 -10 -17 -31 hvcurveto
          73 5 30 43 66 hhcurveto
          33 36 -10 -7 22 hvcurveto
          26 24 17 35 5 41 rrcurveto
          17 -37 -62 13 -49 hhcurveto
          -156 -92 -104 -181 -100 14 -90 58 -56 hvcurveto
          -32 32 48 -18 63 hhcurveto
          4 264 rmoveto
          34 16 -29 -51 -49 -19 -25 -33 -21 -13 10 11 -8 hvcurveto
          -11 17 -8 32 51 vvcurveto
          16 vlineto
          10 19 22 7 22 hhcurveto
          endchar
        </CharString>
        <CharString name="slash">
          -118 -120 888 hstem
          1 447 vstem
          1 -69 rmoveto
          38 -30 49 -15 46 -6 314 837 rcurveline
          -38 30 -49 15 -46 6 rrcurveto
          endchar
        </CharString>
        <CharString name="space">
          -349 endchar
        </CharString>
        <CharString name="sterling">
          -30 -2 129 128 111 169 128 hstem
          66 71 callsubr
          414 366 rmoveto
          -57 -62 -1 -50 hhcurveto
          -12 33 -15 31 35 vvcurveto
          46 34 25 45 43 46 -21 -27 33 vhcurveto
          39 14 34 41 7 40 rrcurveto
          38 -41 -79 43 -93 hhcurveto
          -149 -71 -101 -84 -42 19 -35 16 -35 hvcurveto
          -54 hlineto
          -11 -28 0 -54 11 -29 rrcurveto
          72 hlineto
          -7 -33 -19 -29 -15 -24 -13 -19 rcurveline
          -13 -18 -5 -16 -22 vvcurveto
          -14 2 -11 16 -71 vhcurveto
          339 hlineto
          58 39 28 50 8 hvcurveto
          3 20 0 12 19 vvcurveto
          -123 hlineto
          -69 -57 -3 -4 -52 hvcurveto
          -3 3 26 36 19 47 6 50 rlinecurve
          -1 51 52 0 52 hhcurveto
          11 29 0 54 -11 28 rrcurveto
          endchar
        </CharString>
        <CharString name="sterling.smcp">
          -91 -2 125 96 101 123 123 hstemhm
          39 416 -393 146 hintmask 00000000
          hintmask 11110000
          370 320 rmoveto
          hintmask 11101000
          -48 -53 -1 -43 hhcurveto
          -9 23 -9 24 21 vvcurveto
          35 23 21 36 37 36 -20 -21 28 vhcurveto
          35 17 28 37 12 38 rrcurveto
          39 -39 -69 33 -85 hhcurveto
          -114 -74 -75 -83 -34 11 -29 12 -25 hvcurveto
          -38 hlineto
          -11 -25 0 -49 11 -27 rrcurveto
          55 hlineto
          -5 -18 -9 -18 -14 -24 -10 -15 rcurveline
          -12 -20 -7 -18 -18 vvcurveto
          -20 6 -21 12 -49 vhcurveto
          286 hlineto
          59 36 27 50 39 callsubr
          10 19 vvcurveto
          -90 hlineto
          -71 -59 -2 -5 -34 hvcurveto
          -3 2 25 31 13 38 5 33 rlinecurve
          -1 43 41 0 45 hhcurveto
          hintmask 11110000
          12 27 0 48 -12 26 rrcurveto
          endchar
        </CharString>
        <CharString name="t">
          -194 -5 119 276 110 150 -20 hstem
          80 153 vstem
          -59 callsubr
          endchar
        </CharString>
        <CharString name="t.smcp">
          -107 423 128 hstem
          156 59 callgsubr
          -47 callgsubr
          endchar
        </CharString>
        <CharString name="tcaron">
          -158 -5 119 276 110 50 11 89 -20 146 24 hstemhm
          80 153 56 141 hintmask 11010100
          -59 callsubr
          hintmask 00101010
          -63 61 -15 callsubr
        </CharString>
        <CharString name="tcaron.smcp">
          -107 423 128 55 206 hstemhm
          72 326 -242 158 hintmask 10010000
          -47 callgsubr
          hintmask 01100000
          -17 440 -100 callsubr
        </CharString>
        <CharString name="thorn">
          -35 49 callsubr
          115 280 124 0 -20 hstemhm
          60 150 133 159 hintmask 00000000
          hintmask 01101110
          502 266 rmoveto
          138 -67 105 -113 -42 -39 -16 -23 -31 vhcurveto
          172 vlineto
          58 callsubr
          -26 callsubr
          -938 vlineto
          7 -7 rlineto
          hintmask 10101110
          59 hlineto
          61 23 24 70 hvcurveto
          133 vlineto
          -12 30 33 -9 34 hhcurveto
          hintmask 01101110
          98 97 84 192 hvcurveto
          hintmask 01110110
          -220 119 rmoveto
          35 26 -38 -92 -93 -20 -57 -49 -16 -24 9 15 -24 hvcurveto
          217 vlineto
          31 24 28 8 20 hhcurveto
          endchar
        </CharString>
        <CharString name="thorn.smcp">
          -32 91 117 151 118 74 -20 hstem
          72 157 120 161 vstem
          72 hmoveto
          -5 24 35 -33 callsubr
          21 77 callsubr
          91 55 vlineto
          130 96 61 132 138 -96 55 -130 hvcurveto
          -19 -18 -1 -18 hhcurveto
          75 63 callsubr
          -32 1 -21 57 callsubr
          -24 hvcurveto
          199 -192 rmoveto
          64 14 -42 -33 -35 -14 -41 -64 -7 -17 0 -1 -18 hvcurveto
          153 vlineto
          -1 18 17 0 7 hhcurveto
          endchar
        </CharString>
        <CharString name="three">
          -39 -15 125 407 131 hstem
          332 19 callgsubr
          435 492 rmoveto
          21 22 9 20 23 vvcurveto
          34 -17 32 -14 25 vhcurveto
          -361 hlineto
          -11 -25 -2 -28 -19 vvcurveto
          -13 1 -22 9 -24 vhcurveto
          121 hlineto
          19 55 6 6 23 hvcurveto
          4 -6 -16 -13 -33 -30 -19 -19 rlinecurve
          -92 -95 8 -34 24 -38 26 -12 rlinecurve
          8 17 18 4 19 hhcurveto
          48 40 -31 -56 -59 -40 -38 -61 -51 -44 22 27 -34 hvcurveto
          -32 -25 -27 -39 -6 -37 rrcurveto
          -41 45 77 -32 92 hhcurveto
          129 112 79 137 109 -69 66 -94 13 hvcurveto
          10 8 10 8 9 9 rrcurveto
          endchar
        </CharString>
        <CharString name="three.smcp">
          -87 -15 122 319 64 callgsubr
          288 59 callgsubr
          392 403 rmoveto
          18 16 10 18 22 vvcurveto
          26 -14 38 -16 28 vhcurveto
          -327 hlineto
          -11 -25 -2 -26 -18 vvcurveto
          -12 1 -18 9 -26 vhcurveto
          95 hlineto
          13 57 3 5 22 hvcurveto
          3 -5 -12 -9 -34 -26 -18 -16 rlinecurve
          -73 -66 7 -28 28 -43 27 -14 rlinecurve
          5 14 12 4 18 hhcurveto
          43 26 -27 -34 -44 -31 -24 -48 -35 -42 16 25 -34 hvcurveto
          -33 -22 -24 -43 -7 -36 rrcurveto
          -36 45 70 -26 78 hhcurveto
          117 102 66 117 87 -60 58 -87 12 hvcurveto
          12 7 10 7 8 7 rrcurveto
          endchar
        </CharString>
        <CharString name="threequarters">
          485 0 -20 95 106 48 103 247 106 hstemhm
          232 135 -99 528 26 123 hintmask 10000100
          268 hmoveto
          -30 callsubr
          hintmask 00111000
          -322 -129 -64 callsubr
          hintmask 01000010
          543 -510 rmoveto
          -5 21 24 -33 callsubr
          17 22 1 5 20 hvcurveto
          69 vlineto
          8 15 -1 9 hhcurveto
          15 hlineto
          6 22 3 21 24 vvcurveto
          14 -1 11 -3 14 vhcurveto
          -52 hlineto
          20 1 34 21 vvcurveto
          44 vlineto
          -5 4 rlineto
          -29 hlineto
          -57 -33 -35 -58 hvcurveto
          -23 vlineto
          -8 vlineto
          -20 -25 -2 -2 -17 hvcurveto
          -2 2 26 32 35 72 16 37 rlinecurve
          52 114 -28 19 -57 12 -39 -4 rlinecurve
          -114 -258 rlineto
          -4 -9 -10 -22 -18 vvcurveto
          -21 12 -32 16 -26 vhcurveto
          104 hlineto
          23 11 2 22 hhcurveto
          -21 -1 -9 -22 vvcurveto
          endchar
        </CharString>
        <CharString name="threesuperior">
          -149 314 103 247 106 hstem
          228 135 vstem
          320 639 -64 callsubr
          endchar
        </CharString>
        <CharString name="tilde">
          554 118 -68 117 hstemhm
          11 376 hintmask 00000000
          hintmask 10100000
          200 572 -91 callgsubr
          hintmask 01100000
          -94 callsubr
        </CharString>
        <CharString name="tilde.cap">
          741 117 -68 30 callsubr
          -1 400 hintmask 00000000
          hintmask 10100000
          200 759 -65 callgsubr
          hintmask 01100000
          -71 callgsubr
        </CharString>
        <CharString name="two">
          -39 -1 133 404 127 hstem
          313 59 callgsubr
          488 132 rmoveto
          -137 hlineto
          -42 -56 -4 -7 -54 hvcurveto
          14 25 39 32 28 24 72 60 rcurveline
          65 55 54 58 86 vvcurveto
          122 -84 80 -127 -113 -77 -76 -93 -26 vhcurveto
          -29 20 54 -17 37 hhcurveto
          43 12 29 45 48 hhcurveto
          43 26 -31 -40 -39 -23 -30 -30 -26 hvcurveto
          -108 -98 rlineto
          -63 -56 -52 -61 -61 vvcurveto
          -33 34 -43 20 -19 vhcurveto
          298 hlineto
          54 33 23 51 8 hvcurveto
          3 17 1 27 15 vvcurveto
          endchar
        </CharString>
        <CharString name="two.smcp">
          -87 -2 129 311 128 hstem
          269 155 vstem
          442 127 rmoveto
          -106 hlineto
          -32 -52 -4 -8 -53 hvcurveto
          12 16 26 19 18 14 70 58 rcurveline
          56 45 43 56 63 vvcurveto
          105 -76 75 -118 -95 -72 -63 -82 -21 vhcurveto
          19 -28 47 -22 42 -1 rrcurveto
          37 10 25 31 36 hhcurveto
          31 17 -24 -24 -26 -16 -22 -20 -16 hvcurveto
          -98 -88 rlineto
          -51 -46 -49 -55 -49 vvcurveto
          -30 33 -43 18 -17 vhcurveto
          259 hlineto
          52 33 23 49 9 hvcurveto
          2 15 1 29 13 vvcurveto
          endchar
        </CharString>
        <CharString name="twosuperior">
          -149 317 114 226 -20 25 115 hstemhm
          221 136 51 callgsubr
          370 431 3 callgsubr
          hintmask 10110000
          83 -62 59 -96 vhcurveto
          hintmask 11010000
          -83 -60 -54 -66 -13 hvcurveto
          hintmask 10110000
          -25 callgsubr
          hintmask 11010000
          75 callgsubr
        </CharString>
        <CharString name="u">
          25 callsubr
          hstemhm
          57 157 117 156 hintmask 00000000
          hintmask 10111000
          -40 callgsubr
          hintmask 11011000
          -59 callgsubr
          endchar
        </CharString>
        <CharString name="u.smcp">
          -13 callsubr
          80 callgsubr
          173 17 callgsubr
          hintmask 11011000
          21 callgsubr
          hintmask 10111000
          -92 callsubr
          endchar
        </CharString>
        <CharString name="uacute">
          25 callsubr
          54 23 callgsubr
          57 157 -42 249 -90 156 hintmask 00000000
          hintmask 10101010
          -40 callgsubr
          hintmask 11001010
          -59 callgsubr
          hintmask 00010100
          115 227 -98 callsubr
        </CharString>
        <CharString name="uacute.smcp">
          24 callgsubr
          -11 249 -65 -75 callsubr
          -342 447 -98 callsubr
        </CharString>
        <CharString name="ucircumflex">
          -20 66 0 117 195 endchar
        </CharString>
        <CharString name="ucircumflex.smcp">
          -13 callsubr
          59 203 80 callgsubr
          -78 324 -73 -75 callsubr
          -152 397 -90 callgsubr
        </CharString>
        <CharString name="udieresis">
          25 callsubr
          87 99 hstemhm
          57 157 -123 2 callgsubr
          -100 156 hintmask 00000000
          hintmask 10101001
          -40 callgsubr
          hintmask 11001001
          -59 callgsubr
          hintmask 00010110
          235 249 -107 callgsubr
        </CharString>
        <CharString name="udieresis.smcp">
          -13 callsubr
          89 99 80 callgsubr
          -91 2 callgsubr
          -76 17 callgsubr
          hintmask 11001001
          21 callgsubr
          hintmask 10101001
          -92 callsubr
          hintmask 00010110
          -221 469 -107 callgsubr
        </CharString>
        <CharString name="ugrave">
          -20 67 0 117 193 endchar
        </CharString>
        <CharString name="ugrave.smcp">
          24 callgsubr
          -63 249 -13 -75 callsubr
          -300 616 -68 callsubr
        </CharString>
        <CharString name="underscore">
          -4 -177 117 hstem
          -8 581 vstem
          566 -177 rmoveto
          5 20 2 16 22 vvcurveto
          23 -2 15 69 callgsubr
          -567 hlineto
          -6 -21 -1 -27 -11 vvcurveto
          -12 1 -26 6 -20 vhcurveto
          endchar
        </CharString>
        <CharString name="uni00AD">
          -24 callgsubr
        </CharString>
        <CharString name="uring">
          -20 66 0 117 202 endchar
        </CharString>
        <CharString name="uring.smcp">
          -13 callsubr
          57 79 101 77 80 callgsubr
          -58 83 callsubr
          -51 158 hintmask 0000000000000000
          hintmask 1100010010000000
          21 callgsubr
          hintmask 1010010010000000
          -92 callsubr
          hintmask 0001101100000000
          -389 517 -68 callgsubr
        </CharString>
        <CharString name="v">
          -89 -6 125 385 -20 24 -20 hstemhm
          -5 484 hintmask 00000000
          hintmask 10110000
          249 119 rmoveto
          -6 -3 0 8 -1 hvcurveto
          -5 30 -7 53 -10 38 -45 187 rcurveline
          54 -13 -28 19 -49 hhcurveto
          -26 -33 -9 -12 -28 hvcurveto
          120 -418 rlineto
          -62 18 31 -13 59 hhcurveto
          40 43 2 4 34 hvcurveto
          hintmask 11010000
          37 115 62 225 40 145 -5 7 rcurveline
          9 -24 -30 3 -27 hhcurveto
          -19 -19 -2 -4 -19 hvcurveto
          endchar
        </CharString>
        <CharString name="v.smcp">
          -23 -6 124 439 -20 21 -20 hstemhm
          4 538 hintmask 00000000
          hintmask 10110000
          285 118 rmoveto
          -4 -3 0 9 -2 hvcurveto
          -12 71 -12 52 -16 55 -53 179 rcurveline
          54 -16 -24 20 -49 hhcurveto
          -31 -31 -7 -11 -28 hvcurveto
          143 -478 rlineto
          -56 16 38 -12 52 hhcurveto
          40 56 1 5 30 hvcurveto
          163 539 -6 8 rlineto
          hintmask 11010000
          8 -31 -26 2 -23 hhcurveto
          -20 -17 -1 -5 -24 hvcurveto
          endchar
        </CharString>
        <CharString name="w">
          187 -6 121 246 133 11 -20 23 -20 hstemhm
          5 747 hintmask 00000000
          hintmask 10011000
          102 67 rmoveto
          -60 13 28 -13 59 hhcurveto
          37 49 2 4 32 hvcurveto
          28 174 rlineto
          hintmask 11001000
          7 50 11 69 8 68 rrcurveto
          6 hlineto
          8 -69 10 -70 8 -50 16 -107 rcurveline
          -61 9 30 -10 60 hhcurveto
          36 47 1 5 31 hvcurveto
          hintmask 10101000
          117 482 -5 10 rlineto
          11 -22 -39 2 -21 hhcurveto
          -19 -24 -2 -5 -17 hvcurveto
          -45 -218 -12 -62 -8 -57 -7 -46 rlinecurve
          -6 -1 2 7 -1 hvcurveto
          hintmask 11001000
          -56 370 rlineto
          5 -24 -49 2 -20 hhcurveto
          -19 -46 -2 32 callsubr
          -55 -379 rlineto
          -6 -1 2 7 -1 hvcurveto
          -3 34 -10 57 -13 65 -31 161 rcurveline
          43 -9 -15 24 -50 hhcurveto
          -28 -29 -7 -11 -30 hvcurveto
          endchar
        </CharString>
        <CharString name="w.smcp">
          259 -7 134 277 139 -7 20 hstemhm
          16 794 hintmask 00000000
          hintmask 10110000
          118 61 rmoveto
          -60 12 36 -8 50 hhcurveto
          43 57 2 5 31 hvcurveto
          38 216 rlineto
          hintmask 11010000
          12 69 9 79 5 40 rrcurveto
          7 hlineto
          4 -40 10 -80 11 -68 26 -156 rcurveline
          -59 9 40 -10 45 hhcurveto
          41 60 3 6 30 hvcurveto
          hintmask 10110000
          116 536 -8 9 rlineto
          7 -21 -29 4 -26 hhcurveto
          -21 -22 0 -6 -25 hvcurveto
          -50 -275 -8 -44 -8 -59 -5 -45 rlinecurve
          -4 -3 -1 13 -2 hvcurveto
          hintmask 11010000
          -64 404 rlineto
          5 -31 -35 2 -31 hhcurveto
          -31 -37 -2 -5 -30 hvcurveto
          -69 -416 rlineto
          -7 -1 1 11 -1 hvcurveto
          -5 42 -8 53 -7 39 -34 197 rcurveline
          65 -13 -16 23 -55 hhcurveto
          -28 -37 -6 -8 -22 hvcurveto
          endchar
        </CharString>
        <CharString name="x">
          -88 505 -20 24 -20 hstemhm
          2 481 hintmask 00000000
          hintmask 10100000
          324 499 rmoveto
          -73 -121 rlineto
          hintmask 01100000
          -53 82 rlineto
          33 -21 -19 16 -39 hhcurveto
          -33 -39 -10 -24 -34 hvcurveto
          142 -221 -153 -239 5 -9 rlineto
          -9 23 29 -3 30 hhcurveto
          23 22 1 5 16 hvcurveto
          80 137 65 -99 rlineto
          -31 20 23 -16 39 hhcurveto
          35 40 14 21 31 hvcurveto
          -158 240 rlineto
          hintmask 10100000
          141 218 -4 10 rlineto
          7 -23 -25 4 -29 hhcurveto
          -22 -22 -2 -4 -17 hvcurveto
          endchar
        </CharString>
        <CharString name="x.smcp">
          -13 539 20 hstem
          4 548 vstem
          377 551 rmoveto
          -90 -138 -57 84 rlineto
          43 -30 -25 19 -43 hhcurveto
          -23 -45 -6 -27 -40 hvcurveto
          160 -238 -180 -275 67 callgsubr
          -8 24 25 -3 32 hhcurveto
          23 27 2 4 20 hvcurveto
          106 167 77 -113 rlineto
          -42 29 27 -20 43 hhcurveto
          22 47 5 28 41 hvcurveto
          -185 271 161 243 -1 7 rlineto
          8 -27 -33 3 -20 hhcurveto
          -23 -26 -1 -4 -21 hvcurveto
          endchar
        </CharString>
        <CharString name="y">
          59 callsubr
          hstemhm
          1 491 51 callgsubr
          -15 callgsubr
          hintmask 10110000
          -39 callgsubr
          endchar
        </CharString>
        <CharString name="y.smcp">
          -93 537 20 hstem
          160 154 vstem
          -79 callsubr
          endchar
        </CharString>
        <CharString name="yacute">
          -72 50 0 121 194 endchar
        </CharString>
        <CharString name="yacute.smcp">
          -93 537 20 36 23 callgsubr
          147 249 -236 154 hintmask 10010000
          -79 callsubr
          hintmask 01100000
          -183 103 -98 callsubr
        </CharString>
        <CharString name="ydieresis">
          59 callsubr
          86 99 hstemhm
          1 491 -419 2 callgsubr
          hintmask 00000000
          hintmask 11001000
          -15 callgsubr
          hintmask 10101000
          -39 callgsubr
          hintmask 00010110
          -95 610 -107 callgsubr
        </CharString>
        <CharString name="ydieresis.smcp">
          -93 537 20 69 99 hstemhm
          66 138 -44 154 -47 139 hintmask 10010000
          -79 callsubr
          hintmask 01101000
          -63 125 -107 callgsubr
        </CharString>
        <CharString name="yen">
          -21 149 96 66 96 252 -20 hstem
          195 153 vstem
          494 149 rmoveto
          5 19 2 7 22 vvcurveto
          22 -2 6 -5 20 vhcurveto
          -141 hlineto
          31 66 rlineto
          110 hlineto
          5 19 2 6 23 vvcurveto
          22 -2 6 -5 20 vhcurveto
          -65 hlineto
          108 231 -6 8 rlineto
          7 -30 -21 2 -24 hhcurveto
          -22 -17 -1 -6 -22 hvcurveto
          -65 -149 -15 -34 -22 -60 -12 -43 rlinecurve
          -6 hlineto
          -11 37 -21 66 -13 31 -45 111 rcurveline
          34 -14 -15 18 -43 hhcurveto
          -28 -39 -12 -16 -31 hvcurveto
          101 -224 rlineto
          -65 81 callsubr
          -9 -19 vvcurveto
          -22 2 -7 6 -19 vhcurveto
          108 hlineto
          30 -66 rlineto
          -138 81 callsubr
          -8 -20 vvcurveto
          -21 2 -8 6 -19 vhcurveto
          144 -149 hlineto
          -5 26 33 -1 20 hhcurveto
          21 27 -35 callsubr
          149 vlineto
          endchar
        </CharString>
        <CharString name="yen.smcp">
          -74 119 87 55 87 193 20 hstem
          170 149 vstem
          453 119 rmoveto
          4 19 2 3 54 callsubr
          3 -4 20 vhcurveto
          -127 hlineto
          27 55 rlineto
          100 hlineto
          4 19 2 2 54 callsubr
          4 -4 20 vhcurveto
          -59 hlineto
          93 193 -6 8 rlineto
          7 -30 -19 2 -22 hhcurveto
          -21 -22 -1 -6 -23 hvcurveto
          -59 -141 -11 -27 -12 -33 -9 -35 rlinecurve
          -5 hlineto
          -9 35 -10 36 -12 26 -41 102 rcurveline
          31 -13 -18 16 -35 hhcurveto
          -33 -37 -12 -15 -29 hvcurveto
          86 -186 rlineto
          -60 81 callsubr
          -7 -18 vvcurveto
          -20 2 -3 6 -19 vhcurveto
          100 hlineto
          25 -55 rlineto
          -125 81 callsubr
          -7 -17 vvcurveto
          -19 2 -5 6 -19 vhcurveto
          133 -119 hlineto
          -5 25 33 -33 callsubr
          20 26 -35 callsubr
          119 vlineto
          endchar
        </CharString>
        <CharString name="z">
          64 callsubr
          hstem
          25 402 vstem
          -63 callsubr
          endchar
        </CharString>
        <CharString name="z.smcp">
          12 callgsubr
          hstem
          33 459 vstem
          -97 callsubr
          endchar
        </CharString>
        <CharString name="zacute">
          -119 28 0 122 194 endchar
        </CharString>
        <CharString name="zacute.smcp">
          12 callgsubr
          42 23 callgsubr
          33 459 -320 249 -88 callsubr
          -67 295 -98 callsubr
        </CharString>
        <CharString name="zcaron">
          -119 26 0 122 207 endchar
        </CharString>
        <CharString name="zcaron.smcp">
          12 callgsubr
          55 206 hstemhm
          33 459 -390 326 -88 callsubr
          -70 445 -100 callsubr
        </CharString>
        <CharString name="zdotaccent">
          64 callsubr
          85 116 hstemhm
          25 402 -288 160 hintmask 11010000
          -63 callsubr
          hintmask 00101000
          -26 350 -91 callsubr
          endchar
        </CharString>
        <CharString name="zdotaccent.smcp">
          12 callgsubr
          85 116 hstemhm
          33 459 -313 160 -88 callsubr
          -60 336 -91 callsubr
          endchar
        </CharString>
        <CharString name="zero">
          -39 -15 119 440 119 hstem
          30 160 132 178 vstem
          30 324 rmoveto
          -108 9 -96 62 -70 vhcurveto
          -37 38 45 -28 81 hhcurveto
          82 44 28 37 38 hvcurveto
          62 70 9 96 108 vvcurveto
          109 -9 95 -62 70 vhcurveto
          37 -38 -44 28 -82 hhcurveto
          -81 -45 -28 -37 -38 hvcurveto
          -62 -70 -9 -95 -109 vvcurveto
          160 hmoveto
          94 7 59 11 29 vhcurveto
          27 11 22 11 24 hhcurveto
          25 21 -11 -27 11 hvcurveto
          11 -29 7 -59 -94 vvcurveto
          -93 -7 -60 -11 -29 vhcurveto
          -27 -11 -21 -11 -25 hhcurveto
          -24 -22 11 27 -11 hvcurveto
          -11 29 -7 60 93 vvcurveto
          endchar
        </CharString>
        <CharString name="zero.smcp">
          -87 -15 113 355 113 hstem
          31 153 100 167 vstem
          31 276 rmoveto
          -79 3 -96 56 -58 vhcurveto
          -33 34 41 -25 76 hhcurveto
          77 40 25 33 34 hvcurveto
          56 58 3 96 79 vvcurveto
          80 -3 96 -56 57 vhcurveto
          34 -34 -40 23 -77 hhcurveto
          -76 -41 -23 -34 -34 hvcurveto
          -56 -56 -3 -97 -80 vvcurveto
          153 hmoveto
          81 3 52 11 20 vhcurveto
          15 7 14 9 22 hhcurveto
          22 14 -9 -15 7 hvcurveto
          11 -20 3 -52 -81 vvcurveto
          -82 -3 -51 -11 -20 vhcurveto
          -16 -7 -15 -9 -21 hhcurveto
          -22 -14 9 16 -7 hvcurveto
          -11 20 -3 51 82 vvcurveto
          endchar
        </CharString>
      <CharString index="0">
        rmoveto
        -12 2 -20 7 -17 vhcurveto
        -11 17 25 -6 23 hhcurveto
        23 24 6 11 18 hvcurveto
        6 -75 callgsubr
        -6 16 vhcurveto
        10 -18 -24 6 -23 hhcurveto
        -22 -26 -6 -10 -17 hvcurveto
        -7 -16 -2 -22 -12 vvcurveto
        -201 hmoveto
        -12 2 -20 6 -17 vhcurveto
        -11 18 24 -6 23 hhcurveto
        23 25 6 11 17 hvcurveto
        7 -75 callgsubr
        -7 16 vhcurveto
        10 -17 -25 6 -23 hhcurveto
        -22 -25 -6 -10 -18 hvcurveto
        -6 -16 -2 -22 -12 vvcurveto
        endchar
      </CharString>
      <CharString index="1">
        rmoveto
        -31 -15 -8 -9 -18 hvcurveto
        -10 -11 -4 -21 -18 vvcurveto
        -17 4 -22 10 -12 vhcurveto
        -9 18 15 -8 31 hhcurveto
        24 21 8 82 callgsubr
        9 12 3 22 17 vvcurveto
        18 -3 21 -9 85 callgsubr
        -15 -21 8 -24 hhcurveto
        -236 hmoveto
        -26 -20 -8 -9 -14 hvcurveto
        -9 -11 -3 -21 -18 vvcurveto
        -17 3 -22 9 -12 vhcurveto
        -9 14 20 -8 26 hhcurveto
        29 17 8 9 18 hvcurveto
        10 12 2 22 17 vvcurveto
        18 -2 21 -10 85 callgsubr
        -18 -17 8 -29 hhcurveto
        endchar
      </CharString>
      <CharString index="2">
        538 131 -65 callsubr
        76 -90 callsubr
        204 hlineto
        9 -42 callgsubr
        -431 -37 callsubr
        -586 vlineto
        -57 35 -36 57 vhcurveto
        return
      </CharString>
      <CharString index="3">
        296 83 callgsubr
        -29 callsubr
        11 25 vvcurveto
        33 -18 callsubr
        26 18 callsubr
        26 -38 callsubr
        33 -49 callsubr
        24 -73 callgsubr
        231 7 callgsubr
        9 4 callsubr
        20 13 vvcurveto
        return
      </CharString>
      <CharString index="4">
        hintmask 11010000
        -107 callsubr
        return
      </CharString>
      <CharString index="5">
        hintmask 11101000
        -105 callsubr
        return
      </CharString>
      <CharString index="6">
        -220 -671 -80 callgsubr
        20 203 -85 callgsubr
        return
      </CharString>
      <CharString index="7">
        -27 45 85 -29 107 hhcurveto
        131 100 62 113 85 -58 58 -93 33 hvcurveto
        -87 32 rlineto
        -27 10 -21 7 20 vvcurveto
        21 19 16 35 48 65 -16 -22 51 vhcurveto
        33 25 20 48 45 vvcurveto
        23 -53 -84 21 -78 hhcurveto
        -135 -87 -72 -104 -85 70 -46 77 -29 hvcurveto
        88 -32 rlineto
        35 -13 12 -14 -18 vvcurveto
        -29 -27 -15 -37 -60 -66 21 27 -51 vhcurveto
        -31 -20 -25 -57 -1 -39 rrcurveto
        return
      </CharString>
      <CharString index="8">
        566 472 rmoveto
        151 -104 66 -139 -76 -78 -21 callgsubr
        34 -33 callsubr
        22 31 28 callsubr
        250 41 vlineto
        54 19 -28 -34 12 hvcurveto
        36 -105 rlineto
        -61 21 19 -31 58 hhcurveto
        42 44 20 27 20 hvcurveto
        -22 17 -18 27 -10 30 -30 85 rcurveline
        -15 43 -24 35 -38 14 rrcurveto
        57 22 65 64 97 vvcurveto
        -331 97 rmoveto
        -1 28 26 0 20 hhcurveto
        76 18 -44 -52 -51 -18 -46 -76 -13 -30 -1 -1 -31 hvcurveto
        return
      </CharString>
      <CharString index="9">
        -91 callgsubr
        hintmask 00101000
        -94 callsubr
      </CharString>
      <CharString index="10">
        484 72 rmoveto
        -20 14 -8 -85 callsubr
        65 46 27 33 35 hvcurveto
        22 -29 35 -23 51 -8 callsubr
        -256 28 -53 callsubr
        return
      </CharString>
      <CharString index="11">
        613 690 rmoveto
        -52 hlineto
        -61 -28 -26 -71 hvcurveto
        -122 vlineto
        -69 4 -133 8 -93 vhcurveto
        -4 -2 -14 37 -23 56 -25 59 rlinecurve
        -155 357 rlineto
        5 -35 -37 1 -20 hhcurveto
        -20 -50 -3 -6 -25 hvcurveto
        -680 30 callgsubr
        32 -33 callsubr
        20 27 -35 callsubr
        199 vlineto
        83 -5 131 -7 85 vhcurveto
        3 1 14 -38 20 -52 23 -51 rlinecurve
        157 -358 rlineto
        -5 35 38 -1 20 hhcurveto
        20 51 3 6 26 hvcurveto
        680 vlineto
        return
      </CharString>
      <CharString index="12">
        607 683 rmoveto
        5 -26 -36 1 -20 hhcurveto
        -21 -31 -31 callgsubr
        -433 vlineto
        -91 -30 -47 -80 -81 -29 47 91 vhcurveto
        338 vlineto
        72 -34 30 -26 callsubr
        -431 vlineto
        -169 98 -98 173 173 97 98 169 vhcurveto
        return
      </CharString>
      <CharString index="13">
        rmoveto
        -44 15 -58 -7 -34 -24 rrcurveto
        9 -17 4 -19 -17 vvcurveto
        -43 -22 -32 -44 -26 vhcurveto
        5 -29 17 -25 25 -9 rrcurveto
        95 28 58 63 81 vvcurveto
        21 -5 26 -6 14 vhcurveto
        endchar
      </CharString>
      <CharString index="14">
        167 hintmask 11010100
        -103 callsubr
        return
      </CharString>
      <CharString index="15">
        rmoveto
        -20 -8 -32 -24 -9 -32 113 -110 rcurveline
        36 -8 57 -1 38 9 120 123 rcurveline
        -8 29 -37 27 -20 8 -121 -87 rcurveline
        endchar
      </CharString>
      <CharString index="16">
        rmoveto
        -9 16 24 -9 23 hhcurveto
        52 42 36 52 22 63 callgsubr
        rlineto
        28 -10 -35 19 -27 hhcurveto
        -9 -12 rlineto
        -17 -12 -11 -7 -12 hhcurveto
        -10 -10 4 5 -9 hvcurveto
        return
      </CharString>
      <CharString index="17">
        rmoveto
        20 8 35 24 12 32 -91 125 rcurveline
        -35 9 -59 2 -35 -11 -104 -136 rcurveline
        17 -31 32 -21 20 -8 97 94 rcurveline
        endchar
      </CharString>
      <CharString index="18">
        28 callgsubr
        -101 callsubr
        return
      </CharString>
      <CharString index="19">
        150 hintmask 00000000
        hintmask 01010100
        -53 callgsubr
        hintmask 10010100
        -86 callgsubr
        return
      </CharString>
      <CharString index="20">
        hintmask 11010000
        -96 callsubr
        hintmask 00101000
        return
      </CharString>
      <CharString index="21">
        -118 250 rlineto
        6 -24 -46 0 -20 hhcurveto
        -20 -44 -4 32 callsubr
        -548 30 callgsubr
        30 -33 callsubr
        20 25 -35 callsubr
        152 vlineto
        34 -5 110 -4 80 vhcurveto
        4 1 11 -24 33 -81 10 -21 rlinecurve
        120 -251 rlineto
        -6 24 50 0 20 hhcurveto
        19 44 3 6 26 hvcurveto
        548 vlineto
        return
      </CharString>
      <CharString index="22">
        rmoveto
        15 55 23 80 10 56 rrcurveto
        6 hlineto
        17 -66 22 -83 16 -57 17 -62 rcurveline
        -12 -14 1 -10 hhcurveto
        -73 hlineto
        -11 -16 -1 -13 hhcurveto
        return
      </CharString>
      <CharString index="23">
        rmoveto
        21 8 31 25 10 32 -114 110 rcurveline
        -36 7 -55 1 -39 -9 -118 -121 rcurveline
        7 -29 35 -28 21 -8 120 86 rcurveline
        endchar
      </CharString>
      <CharString index="24">
        rmoveto
        4 -27 18 -36 23 -12 240 94 rcurveline
        -3 46 -33 53 -25 43 callgsubr
      </CharString>
      <CharString index="25">
        20 34 rmoveto
        -26 46 75 -23 78 hhcurveto
        122 80 63 100 85 -57 49 -76 27 hvcurveto
        -62 22 rlineto
        -27 10 -11 11 17 vvcurveto
        18 14 14 27 48 50 -19 -19 42 vhcurveto
        25 19 20 53 -2 37 rrcurveto
        22 -44 -80 20 -60 hhcurveto
        -118 -76 -64 -101 -81 55 -43 70 -26 hvcurveto
        55 -21 rlineto
        33 -11 13 -15 -19 vvcurveto
        -20 -20 -15 -38 -40 -55 19 23 -44 vhcurveto
        -23 -24 -19 -48 -1 -34 rrcurveto
        return
      </CharString>
      <CharString index="26">
        78 hmoveto
        -56 callsubr
        27 hvcurveto
        683 vlineto
        5 -27 -55 callgsubr
        return
      </CharString>
      <CharString index="27">
        67 callgsubr
        -7 19 34 -4 25 hhcurveto
        24 23 1 5 20 hvcurveto
        43 145 rlineto
        -1 13 15 0 12 hhcurveto
        return
      </CharString>
      <CharString index="28">
        6 -8 rlineto
        -8 17 30 -4 26 hhcurveto
        25 23 2 5 19 hvcurveto
        31 98 rlineto
        -1 10 10 0 11 hhcurveto
        return
      </CharString>
      <CharString index="29">
        514 rmoveto
        -18 -46 -19 -53 -13 -50 rrcurveto
        -6 hlineto
        -13 54 -15 47 -17 42 -48 119 rcurveline
        45 -18 -21 19 -45 hhcurveto
        -34 -36 -11 -16 -27 hvcurveto
        193 -450 rlineto
        -214 70 callsubr
        36 -33 callsubr
        21 77 callsubr
        210 vlineto
        194 459 -7 8 rlineto
        8 -21 -30 4 -27 hhcurveto
        -21 -22 -1 -5 -22 hvcurveto
        return
      </CharString>
      <CharString index="30">
        492 250 rmoveto
        87 -19 65 -53 53 vhcurveto
        41 -42 -55 18 -62 hhcurveto
        -63 41 callgsubr
        -53 -53 -19 -65 -87 vvcurveto
        -88 19 -65 53 -53 -18 callgsubr
        53 19 65 88 vvcurveto
        -302 hmoveto
        -9 callgsubr
        -62 -9 65 83 vhcurveto
        return
      </CharString>
      <CharString index="31">
        433 411 rmoveto
        -46 callsubr
        -172 65 -182 211 110 105 50 56 57 hvcurveto
        -43 callsubr
        88 24 -77 -83 -2 hvcurveto
        return
      </CharString>
      <CharString index="32">
        16 2 21 12 vvcurveto
        12 -2 22 return
      </CharString>
      <CharString index="33">
        377 301 rmoveto
        -38 callgsubr
        -137 58 -151 192 101 80 38 48 55 hvcurveto
        -43 callgsubr
        70 16 -57 -85 hvcurveto
        return
      </CharString>
      <CharString index="34">
        -22 callgsubr
        -395 -6 callgsubr
        -458 vlineto
        -54 35 -35 56 vhcurveto
        return
      </CharString>
      <CharString index="35">
        hintmask 10010000
        -81 callsubr
        return
      </CharString>
      <CharString index="36">
        -47 23 rlineto
        10 -18 -25 8 -23 hhcurveto
        -58 -42 -37 -51 -24 hvcurveto
        -9 -19 rlineto
        -28 11 37 -19 30 hhcurveto
        8 12 rlineto
        18 12 14 6 11 hhcurveto
        11 11 -4 -5 9 hvcurveto
        endchar
      </CharString>
      <CharString index="37">
        163 hintmask 11010100
        -99 callgsubr
        hintmask 00101000
        return
      </CharString>
      <CharString index="38">
        162 hintmask 11010100
        -99 callsubr
        hintmask 00101000
        return
      </CharString>
      <CharString index="39">
        rmoveto
        -71 55 -58 86 86 55 58 -32 callgsubr
        29 19 22 30 30 19 -22 -29 -28 -19 -22 -30 -30 -19 22 28 vhcurveto
        endchar
      </CharString>
      <CharString index="40">
        10 -17 -34 8 -26 hhcurveto
        -26 -32 -8 -10 -19 hvcurveto
        -6 -13 -5 -29 -20 vvcurveto
        -20 5 -26 6 -12 vhcurveto
        10 -8 19 -4 17 -3 -2 -47 -52 -28 -32 -10 -14 callsubr
        33 56 85 94 vvcurveto
        29 -4 24 -9 27 vhcurveto
        return
      </CharString>
      <CharString index="41">
        -11 18 33 -7 84 callsubr
        33 8 10 18 hvcurveto
        7 13 4 29 19 vvcurveto
        20 -5 26 -6 13 vhcurveto
        -10 8 -19 4 -17 3 2 46 52 29 32 10 3 27 -11 31 -27 14 rrcurveto
        -116 -33 -55 -86 -94 vvcurveto
        -28 3 -24 9 -27 vhcurveto
        return
      </CharString>
      <CharString index="42">
        rmoveto
        -9 17 25 -9 24 hhcurveto
        56 44 79 callgsubr
        9 19 rlineto
        27 -11 -37 20 -30 hhcurveto
        -8 -13 rlineto
        -17 -12 -14 -7 -11 hhcurveto
        -11 -11 4 5 -9 hvcurveto
        return
      </CharString>
      <CharString index="43">
        -33 callsubr
        20 31 -35 callsubr
        return
      </CharString>
      <CharString index="44">
        vvcurveto
        85 -23 98 -76 57 vhcurveto
        31 -40 -50 20 -83 hhcurveto
        -83 -49 -21 -31 -41 hvcurveto
        return
      </CharString>
      <CharString index="45">
        170 hintmask 11010100
        -83 callsubr
        hintmask 00101000
        return
      </CharString>
      <CharString index="46">
        rmoveto
        -29 -32 -20 -46 -6 -40 rrcurveto
        -30 47 63 -14 53 hhcurveto
        188 44 115 157 hvcurveto
        421 63 callsubr
        -33 1 -21 hhcurveto
        -20 78 callgsubr
        -436 vlineto
        -79 -17 -46 -73 -31 -31 13 17 -28 vhcurveto
        return
      </CharString>
      <CharString index="47">
        28 callgsubr
        -82 callgsubr
        hintmask 00101000
        return
      </CharString>
      <CharString index="48">
        356 vlineto
        4 -23 -29 6 callgsubr
        -334 vlineto
        -25 -26 -29 -9 -19 hhcurveto
        -34 -9 21 46 hvcurveto
        212 vlineto
        63 -21 34 -63 -39 -36 -14 -19 -22 vhcurveto
        18 -26 6 -35 -39 vvcurveto
        return
      </CharString>
      <CharString index="49">
        32 244 rmoveto
        38 callsubr
        55 48 26 37 35 vhcurveto
        22 -34 35 -21 50 -8 callsubr
        -17 12 -11 28 32 vvcurveto
        498 -4 callgsubr
        -242 vlineto
        13 -28 -30 9 -35 hhcurveto
        -109 -91 -93 -172 hvcurveto
        220 -133 rmoveto
        -35 -25 39 93 92 20 58 48 19 22 -10 -14 24 hvcurveto
        -219 vlineto
        -31 -25 -28 -8 -20 hhcurveto
        return
      </CharString>
</ttFont>
